{"glyphs":{"0":{"ha":780,"x_min":78,"x_max":701,"o":"m 701 421 q 626 94 701 201 q 391 -14 551 -14 q 157 91 233 -14 q 78 404 81 196 l 78 572 q 153 895 78 789 q 389 1001 229 1001 q 624 899 549 1001 q 701 584 699 797 l 701 421 m 576 593 q 531 825 576 752 q 389 898 486 898 q 249 825 293 898 q 203 602 205 753 l 203 401 q 250 165 203 241 q 391 89 296 89 q 529 161 484 89 q 576 387 574 233 l 576 593 z "},"1":{"ha":780,"x_min":115,"x_max":494,"o":"m 494 0 l 368 0 l 368 836 l 115 743 l 115 857 l 475 992 l 494 992 l 494 0 z "},"2":{"ha":780,"x_min":63,"x_max":729,"o":"m 729 0 l 82 0 l 82 90 l 424 470 q 529 610 500 556 q 557 722 557 664 q 511 848 557 799 q 386 898 464 898 q 240 845 292 898 q 189 696 189 791 l 63 696 q 151 917 63 833 q 386 1001 239 1001 q 604 929 524 1001 q 684 736 684 857 q 498 389 684 591 l 233 102 l 729 102 l 729 0 z "},"3":{"ha":780,"x_min":64,"x_max":690,"o":"m 264 555 l 359 555 q 498 602 448 556 q 549 724 549 647 q 376 898 549 898 q 247 851 295 898 q 198 728 198 805 l 73 728 q 158 923 73 846 q 376 1001 244 1001 q 595 927 516 1001 q 675 722 675 853 q 633 597 675 657 q 519 507 591 536 q 645 421 601 481 q 690 275 690 361 q 603 64 690 142 q 377 -14 516 -14 q 151 62 238 -14 q 64 260 64 137 l 190 260 q 241 136 190 182 q 377 89 292 89 q 516 136 468 89 q 564 273 564 184 q 511 405 564 359 q 359 452 458 451 l 264 452 l 264 555 z "},"4":{"ha":780,"x_min":36,"x_max":749,"o":"m 612 332 l 749 332 l 749 229 l 612 229 l 612 0 l 486 0 l 486 229 l 36 229 l 36 303 l 478 987 l 612 987 l 612 332 m 178 332 l 486 332 l 486 816 l 471 789 l 178 332 z "},"5":{"ha":780,"x_min":104,"x_max":725,"o":"m 140 495 l 190 987 l 696 987 l 696 871 l 296 871 l 267 602 q 431 645 339 645 q 646 556 566 645 q 725 315 725 467 q 643 74 725 162 q 412 -14 560 -14 q 199 59 281 -14 q 104 260 116 132 l 223 260 q 283 132 235 175 q 412 89 332 89 q 550 149 500 89 q 600 313 600 208 q 546 472 600 412 q 402 532 492 532 q 273 496 320 532 l 240 469 l 140 495 z "},"6":{"ha":780,"x_min":90,"x_max":713,"o":"m 574 988 l 574 882 l 551 882 q 318 795 405 879 q 218 558 231 711 q 431 648 296 648 q 636 557 559 648 q 713 322 713 466 q 630 78 713 170 q 408 -14 547 -14 q 178 95 266 -14 q 90 376 90 204 l 90 424 q 206 841 90 696 q 552 988 322 985 l 574 988 m 410 543 q 291 505 345 543 q 216 408 237 466 l 216 361 q 271 165 216 239 q 408 90 326 90 q 541 153 492 90 q 589 316 589 215 q 540 480 589 418 q 410 543 491 543 z "},"7":{"ha":780,"x_min":52,"x_max":720,"o":"m 720 917 l 311 0 l 179 0 l 587 884 l 52 884 l 52 987 l 720 987 l 720 917 z "},"8":{"ha":780,"x_min":76,"x_max":704,"o":"m 681 730 q 642 598 681 656 q 536 508 603 541 q 659 411 614 475 q 704 267 704 347 q 617 62 704 138 q 390 -14 531 -14 q 162 63 248 -14 q 76 267 76 139 q 120 411 76 347 q 241 509 163 475 q 137 599 175 541 q 99 730 99 656 q 179 928 99 854 q 390 1001 259 1001 q 601 928 520 1001 q 681 730 681 854 m 578 269 q 526 404 578 352 q 389 456 473 456 q 253 405 304 456 q 201 269 201 353 q 251 137 201 185 q 390 89 301 89 q 528 137 478 89 q 578 269 578 186 m 390 898 q 270 852 316 898 q 224 728 224 806 q 270 606 224 652 q 390 559 315 559 q 510 606 465 559 q 555 728 555 652 q 509 850 555 803 q 390 898 462 898 z "},"9":{"ha":780,"x_min":68,"x_max":689,"o":"m 563 434 q 469 359 524 387 q 349 330 414 330 q 200 372 264 330 q 102 491 137 414 q 68 659 68 567 q 105 838 68 758 q 212 959 143 917 q 374 1001 281 1001 q 605 891 520 1001 q 689 593 689 782 l 689 556 q 575 135 689 268 q 231 -1 461 3 l 207 -1 l 207 105 l 233 105 q 472 186 389 108 q 563 434 555 264 m 370 434 q 486 473 433 434 q 564 568 539 511 l 564 618 q 510 819 564 742 q 374 897 456 897 q 241 833 292 897 q 191 666 191 770 q 240 499 191 565 q 370 434 288 434 z "},"\u0000":{"ha":0,"x_min":0,"x_max":0,"o":""},"\u0002":{"ha":0,"x_min":0,"x_max":0,"o":""},"\r":{"ha":344,"x_min":0,"x_max":0,"o":""}," ":{"ha":344,"x_min":0,"x_max":0,"o":""},"!":{"ha":357,"x_min":109,"x_max":257,"o":"m 235 279 l 122 279 l 113 987 l 245 987 l 235 279 m 109 63 q 127 114 109 94 q 182 135 146 135 q 238 114 219 135 q 257 63 257 94 q 238 13 257 33 q 182 -7 219 -7 q 127 13 146 -7 q 109 63 109 33 z "},"\"":{"ha":444,"x_min":92,"x_max":371,"o":"m 188 949 l 168 707 l 92 707 l 93 1042 l 188 1042 l 188 949 m 371 949 l 351 707 l 275 707 l 276 1042 l 371 1042 l 371 949 z "},"#":{"ha":855,"x_min":81,"x_max":838,"o":"m 519 278 l 340 278 l 286 0 l 189 0 l 243 278 l 81 278 l 81 371 l 260 371 l 307 611 l 132 611 l 132 705 l 326 705 l 381 987 l 478 987 l 422 705 l 602 705 l 657 987 l 755 987 l 699 705 l 838 705 l 838 611 l 681 611 l 634 371 l 787 371 l 787 278 l 616 278 l 562 0 l 465 0 l 519 278 m 357 371 l 536 371 l 583 611 l 404 611 l 357 371 z "},"$":{"ha":780,"x_min":75,"x_max":706,"o":"m 581 254 q 537 359 581 317 q 389 437 493 402 q 179 552 245 481 q 113 732 113 623 q 177 914 113 843 q 355 999 242 985 l 355 1147 l 456 1147 l 456 998 q 634 903 570 983 q 697 684 697 823 l 572 684 q 527 836 572 779 q 404 892 481 892 q 281 850 323 892 q 238 734 238 808 q 283 624 238 665 q 432 549 328 583 q 593 475 535 515 q 679 381 651 435 q 706 256 706 328 q 637 71 706 141 q 444 -12 568 1 l 444 -141 l 344 -141 l 344 -12 q 146 78 218 0 q 75 291 75 157 l 200 291 q 250 146 200 197 q 390 95 299 95 q 530 138 479 95 q 581 254 581 180 z "},"%":{"ha":1017,"x_min":71,"x_max":957,"o":"m 71 798 q 128 944 71 886 q 273 1002 184 1002 q 419 944 363 1002 q 475 793 475 886 l 475 745 q 419 599 475 656 q 275 543 362 543 q 129 599 186 543 q 71 750 71 656 l 71 798 m 165 745 q 195 658 165 692 q 275 624 224 624 q 352 657 323 624 q 382 748 382 690 l 382 798 q 353 885 382 850 q 273 920 323 920 q 194 885 223 920 q 165 795 165 850 l 165 745 m 552 242 q 609 388 552 331 q 754 446 665 446 q 900 389 843 446 q 957 237 957 332 l 957 189 q 900 43 957 100 q 755 -14 844 -14 q 610 42 667 -14 q 552 193 552 99 l 552 242 m 646 189 q 675 101 646 136 q 755 67 705 67 q 833 101 804 67 q 863 192 863 134 l 863 242 q 833 330 863 296 q 754 363 804 363 q 676 330 706 363 q 646 239 646 296 l 646 189 m 303 75 l 232 119 l 714 891 l 785 846 l 303 75 z "},"&":{"ha":863,"x_min":68,"x_max":859,"o":"m 68 265 q 108 396 68 336 q 260 535 148 456 q 172 664 194 615 q 149 761 149 713 q 216 937 149 873 q 396 1001 282 1001 q 564 942 498 1001 q 631 792 631 882 q 601 682 631 732 q 495 576 570 631 l 422 522 l 642 260 q 688 456 688 348 l 802 456 q 718 169 802 283 l 859 0 l 709 0 l 643 78 q 525 10 593 33 q 388 -14 458 -14 q 156 63 243 -14 q 68 265 68 140 m 388 89 q 570 165 488 89 l 330 453 l 307 437 q 194 265 194 353 q 246 137 194 185 q 388 89 298 89 m 275 765 q 355 602 275 700 l 435 659 q 498 721 481 691 q 515 792 515 750 q 481 868 515 838 q 395 898 447 898 q 307 860 340 898 q 275 765 275 823 z "},"'":{"ha":242,"x_min":70,"x_max":172,"o":"m 172 966 l 157 717 l 70 717 l 71 1042 l 172 1042 l 172 966 z "},"(":{"ha":475,"x_min":90,"x_max":448,"o":"m 90 401 q 131 695 90 554 q 254 951 172 836 q 422 1114 335 1067 l 448 1031 q 286 800 349 956 q 216 450 222 644 l 216 393 q 311 -62 216 131 q 448 -242 369 -177 l 422 -319 q 250 -151 332 -269 q 90 401 90 80 z "},")":{"ha":483,"x_min":26,"x_max":385,"o":"m 385 394 q 345 104 385 243 q 223 -152 305 -35 q 52 -319 142 -269 l 26 -242 q 194 6 130 -162 q 258 380 257 175 l 258 402 q 229 667 258 545 q 145 886 199 789 q 26 1038 92 983 l 52 1114 q 223 949 142 1065 q 344 693 304 833 q 385 394 385 553 z "},"*":{"ha":598,"x_min":19,"x_max":578,"o":"m 224 667 l 19 728 l 50 830 l 255 754 l 249 987 l 353 987 l 346 751 l 547 825 l 578 722 l 370 661 l 505 477 l 420 413 l 294 608 l 172 418 l 87 479 l 224 667 z "},"+":{"ha":787,"x_min":53,"x_max":730,"o":"m 454 530 l 730 530 l 730 411 l 454 411 l 454 99 l 328 99 l 328 411 l 53 411 l 53 530 l 328 530 l 328 818 l 454 818 l 454 530 z "},",":{"ha":273,"x_min":20,"x_max":209,"o":"m 91 -197 l 20 -148 q 86 35 83 -59 l 86 149 l 209 149 l 209 50 q 175 -87 209 -18 q 91 -197 142 -155 z "},"-":{"ha":383,"x_min":25,"x_max":356,"o":"m 356 368 l 25 368 l 25 471 l 356 471 l 356 368 z "},".":{"ha":366,"x_min":98,"x_max":254,"o":"m 98 66 q 117 120 98 98 q 175 142 136 142 q 234 120 214 142 q 254 66 254 98 q 234 14 254 35 q 175 -7 214 -7 q 117 14 136 -7 q 98 66 98 35 z "},"/":{"ha":572,"x_min":12,"x_max":532,"o":"m 120 -85 l 12 -85 l 425 987 l 532 987 l 120 -85 z "},":":{"ha":336,"x_min":91,"x_max":248,"o":"m 91 66 q 110 120 91 98 q 168 142 130 142 q 227 120 207 142 q 247 66 247 98 q 227 14 247 35 q 168 -7 207 -7 q 110 14 130 -7 q 91 66 91 35 m 92 665 q 111 719 92 697 q 169 741 130 741 q 228 719 208 741 q 248 665 248 697 q 228 612 248 633 q 169 591 208 591 q 111 612 130 591 q 92 665 92 633 z "},";":{"ha":294,"x_min":28,"x_max":231,"o":"m 75 665 q 95 719 75 697 q 153 741 114 741 q 211 719 191 741 q 231 665 231 697 q 211 612 231 633 q 153 591 191 591 q 95 612 114 591 q 75 665 75 633 m 99 -197 l 28 -148 q 94 35 92 -59 l 94 149 l 217 149 l 217 50 q 183 -87 217 -18 q 99 -197 150 -155 z "},"<":{"ha":706,"x_min":49,"x_max":604,"o":"m 179 437 l 604 265 l 604 132 l 49 389 l 49 488 l 604 745 l 604 612 l 179 437 z "},"=":{"ha":762,"x_min":103,"x_max":669,"o":"m 669 552 l 103 552 l 103 661 l 669 661 l 669 552 m 669 271 l 103 271 l 103 379 l 669 379 l 669 271 z "},">":{"ha":726,"x_min":91,"x_max":670,"o":"m 539 441 l 91 616 l 91 745 l 670 489 l 670 390 l 91 133 l 91 263 l 539 441 z "},"?":{"ha":656,"x_min":51,"x_max":601,"o":"m 242 278 q 260 406 243 359 q 330 509 277 452 l 418 601 q 475 739 475 665 q 438 851 475 810 q 330 891 401 891 q 218 854 260 891 q 176 756 176 818 l 51 756 q 129 933 52 866 q 330 1001 206 1001 q 529 932 458 1001 q 601 743 601 863 q 491 509 601 625 l 417 436 q 368 278 368 381 l 242 278 m 237 63 q 255 114 237 94 q 311 135 274 135 q 366 114 347 135 q 385 63 385 94 q 366 13 385 33 q 311 -7 347 -7 q 255 13 274 -7 q 237 63 237 33 z "},"@":{"ha":1247,"x_min":72,"x_max":1187,"o":"m 1179 340 q 1097 81 1171 176 q 901 -14 1024 -14 q 739 100 774 -14 q 655 15 702 43 q 557 -14 608 -14 q 412 65 461 -14 q 375 283 362 144 q 426 483 385 395 q 532 621 467 570 q 668 671 597 671 q 766 656 723 671 q 864 599 810 642 l 829 223 q 916 66 816 66 q 1040 142 992 66 q 1091 340 1087 218 q 993 743 1104 604 q 656 881 882 881 q 414 813 519 881 q 247 618 308 746 q 178 324 186 491 q 219 32 170 156 q 368 -157 268 -92 q 610 -222 468 -222 q 732 -208 671 -222 q 834 -169 793 -193 l 859 -247 q 748 -290 817 -273 q 607 -307 678 -307 q 315 -231 437 -307 q 133 -11 193 -155 q 80 324 72 132 q 163 660 88 511 q 368 889 239 808 q 659 970 496 970 q 948 895 827 970 q 1128 675 1069 819 q 1179 340 1187 532 m 483 283 q 501 135 473 186 q 588 83 528 83 q 666 118 629 83 q 728 217 704 153 l 729 223 l 760 564 q 679 584 722 584 q 548 503 600 584 q 483 283 496 422 z "},"A":{"ha":906,"x_min":19,"x_max":888,"o":"m 660 258 l 246 258 l 153 0 l 19 0 l 396 987 l 510 987 l 888 0 l 754 0 l 660 258 m 286 365 l 621 365 l 453 827 l 286 365 z "},"B":{"ha":865,"x_min":115,"x_max":787,"o":"m 115 0 l 115 987 l 437 987 q 679 921 598 987 q 760 724 760 854 q 721 602 760 655 q 614 519 682 549 q 740 434 694 497 q 787 285 787 372 q 701 76 787 152 q 457 0 614 0 l 115 0 m 245 462 l 245 106 l 460 106 q 603 154 551 106 q 656 283 656 201 q 462 462 656 462 l 245 462 m 245 566 l 441 566 q 578 609 527 566 q 629 725 629 652 q 582 843 629 806 q 437 880 534 880 l 245 880 l 245 566 z "},"C":{"ha":904,"x_min":81,"x_max":841,"o":"m 841 313 q 725 72 823 157 q 467 -14 628 -14 q 186 112 292 -14 q 81 448 81 237 l 81 543 q 130 785 81 680 q 269 945 179 889 q 478 1001 359 1001 q 730 913 635 1001 q 841 670 825 825 l 710 670 q 636 841 693 788 q 478 894 580 894 q 282 802 353 894 q 212 539 212 709 l 212 444 q 279 188 212 283 q 467 93 346 93 q 633 142 575 93 q 710 313 691 191 l 841 313 z "},"D":{"ha":911,"x_min":115,"x_max":829,"o":"m 115 0 l 115 987 l 393 987 q 621 930 522 987 q 774 768 720 873 q 829 527 828 663 l 829 464 q 775 219 829 324 q 621 58 721 114 q 388 0 521 1 l 115 0 m 245 880 l 245 106 l 382 106 q 616 200 532 106 q 700 467 700 294 l 700 524 q 621 786 700 692 q 397 880 542 879 l 245 880 z "},"E":{"ha":789,"x_min":115,"x_max":742,"o":"m 673 456 l 245 456 l 245 106 l 742 106 l 742 0 l 115 0 l 115 987 l 735 987 l 735 880 l 245 880 l 245 563 l 673 563 l 673 456 z "},"F":{"ha":768,"x_min":115,"x_max":726,"o":"m 659 436 l 245 436 l 245 0 l 115 0 l 115 987 l 726 987 l 726 880 l 245 880 l 245 543 l 659 543 l 659 436 z "},"G":{"ha":946,"x_min":83,"x_max":844,"o":"m 844 130 q 704 22 793 58 q 494 -14 614 -14 q 280 43 374 -14 q 135 204 186 100 q 83 446 84 309 l 83 532 q 187 878 83 755 q 479 1001 291 1001 q 728 922 634 1001 q 844 698 823 843 l 713 698 q 480 894 677 894 q 282 802 349 894 q 214 536 214 710 l 214 455 q 290 191 214 289 q 495 93 366 93 q 623 109 568 93 q 714 164 678 125 l 714 386 l 486 386 l 486 492 l 844 492 l 844 130 z "},"H":{"ha":990,"x_min":115,"x_max":873,"o":"m 873 0 l 743 0 l 743 456 l 245 456 l 245 0 l 115 0 l 115 987 l 245 987 l 245 563 l 743 563 l 743 987 l 873 987 l 873 0 z "},"I":{"ha":378,"x_min":124,"x_max":254,"o":"m 254 0 l 124 0 l 124 987 l 254 987 l 254 0 z "},"J":{"ha":766,"x_min":36,"x_max":659,"o":"m 528 987 l 659 987 l 659 288 q 574 66 659 146 q 347 -14 489 -14 q 118 62 200 -14 q 36 273 36 137 l 166 273 q 213 140 166 188 q 347 93 259 93 q 478 144 428 93 q 528 286 528 195 l 528 987 z "},"K":{"ha":871,"x_min":115,"x_max":871,"o":"m 366 459 l 245 334 l 245 0 l 115 0 l 115 987 l 245 987 l 245 499 l 684 987 l 841 987 l 452 551 l 871 0 l 715 0 l 366 459 z "},"L":{"ha":747,"x_min":115,"x_max":713,"o":"m 245 106 l 713 106 l 713 0 l 115 0 l 115 987 l 245 987 l 245 106 z "},"M":{"ha":1213,"x_min":115,"x_max":1097,"o":"m 283 987 l 606 182 l 928 987 l 1097 987 l 1097 0 l 967 0 l 967 385 l 979 800 l 655 0 l 555 0 l 232 798 l 245 385 l 245 0 l 115 0 l 115 987 l 283 987 z "},"N":{"ha":990,"x_min":115,"x_max":873,"o":"m 873 0 l 743 0 l 245 761 l 245 0 l 115 0 l 115 987 l 245 987 l 744 223 l 744 987 l 873 987 l 873 0 z "},"O":{"ha":955,"x_min":80,"x_max":874,"o":"m 874 462 q 825 209 874 317 q 687 43 777 100 q 478 -14 597 -14 q 271 44 361 -14 q 131 207 181 101 q 80 453 81 313 l 80 524 q 130 776 80 667 q 270 943 179 885 q 477 1001 360 1001 q 686 944 595 1001 q 825 778 777 886 q 874 524 874 669 l 874 462 m 745 526 q 674 795 745 701 q 477 889 604 889 q 282 795 353 889 q 210 534 212 701 l 210 462 q 281 194 210 292 q 478 97 353 97 q 673 189 604 97 q 745 452 743 281 l 745 526 z "},"P":{"ha":876,"x_min":115,"x_max":825,"o":"m 245 387 l 245 0 l 115 0 l 115 987 l 479 987 q 733 905 641 987 q 825 686 825 822 q 735 464 825 542 q 477 387 645 387 l 245 387 m 245 493 l 479 493 q 639 542 583 493 q 694 684 694 591 q 639 825 694 772 q 486 880 583 878 l 245 880 l 245 493 z "},"Q":{"ha":955,"x_min":74,"x_max":872,"o":"m 869 462 q 823 215 869 319 q 696 54 778 112 l 872 -85 l 783 -167 l 575 -1 q 472 -14 526 -14 q 265 44 355 -14 q 125 207 175 101 q 74 453 75 313 l 74 524 q 123 776 74 667 q 263 943 173 885 q 471 1001 354 1001 q 681 943 590 1001 q 820 778 771 886 q 869 525 869 669 l 869 462 m 739 526 q 669 794 739 700 q 471 889 600 889 q 277 795 348 889 q 204 534 206 701 l 204 462 q 275 195 204 292 q 472 97 346 97 q 667 189 598 97 q 739 452 736 281 l 739 526 z "},"R":{"ha":855,"x_min":114,"x_max":831,"o":"m 477 399 l 245 399 l 245 0 l 114 0 l 114 987 l 441 987 q 697 911 608 987 q 787 690 787 836 q 738 530 787 598 q 599 427 688 461 l 831 8 l 831 0 l 691 0 l 477 399 m 245 506 l 445 506 q 599 556 542 506 q 656 690 656 606 q 602 831 656 782 q 444 880 547 880 l 245 880 l 245 506 z "},"S":{"ha":824,"x_min":54,"x_max":772,"o":"m 406 440 q 162 558 238 488 q 85 732 85 629 q 179 925 85 848 q 421 1001 272 1001 q 603 962 523 1001 q 726 853 682 922 q 770 702 770 784 l 639 702 q 582 843 639 791 q 421 894 525 894 q 271 851 325 894 q 217 734 217 809 q 268 632 217 673 q 443 555 319 590 q 635 479 566 521 q 738 382 705 437 q 772 251 772 326 q 678 59 772 131 q 428 -14 585 -14 q 238 25 326 -14 q 102 132 150 64 q 54 286 54 200 l 185 286 q 251 145 185 197 q 428 93 317 93 q 586 135 531 93 q 641 250 641 177 q 590 362 641 322 q 406 440 539 401 z "},"T":{"ha":829,"x_min":33,"x_max":797,"o":"m 797 880 l 479 880 l 479 0 l 350 0 l 350 880 l 33 880 l 33 987 l 797 987 l 797 880 z "},"U":{"ha":901,"x_min":95,"x_max":810,"o":"m 810 987 l 810 316 q 722 87 809 176 q 486 -12 635 -1 l 451 -14 q 193 74 289 -14 q 95 315 96 161 l 95 987 l 224 987 l 224 319 q 283 152 224 212 q 451 93 342 93 q 620 152 562 93 q 679 318 679 211 l 679 987 l 810 987 z "},"V":{"ha":884,"x_min":19,"x_max":866,"o":"m 441 173 l 724 987 l 866 987 l 500 0 l 385 0 l 19 987 l 161 987 l 441 173 z "},"W":{"ha":1232,"x_min":41,"x_max":1202,"o":"m 328 311 l 347 181 l 374 298 l 570 987 l 680 987 l 870 298 l 897 179 l 918 312 l 1072 987 l 1202 987 l 963 0 l 844 0 l 641 720 l 625 795 l 610 720 l 399 0 l 280 0 l 41 987 l 172 987 l 328 311 z "},"X":{"ha":871,"x_min":39,"x_max":834,"o":"m 437 609 l 673 987 l 827 987 l 515 498 l 834 0 l 680 0 l 437 385 l 193 0 l 39 0 l 359 498 l 46 987 l 199 987 l 437 609 z "},"Y":{"ha":834,"x_min":10,"x_max":821,"o":"m 416 492 l 673 987 l 821 987 l 481 368 l 481 0 l 351 0 l 351 368 l 10 987 l 159 987 l 416 492 z "},"Z":{"ha":831,"x_min":58,"x_max":777,"o":"m 212 106 l 777 106 l 777 0 l 58 0 l 58 98 l 600 880 l 67 880 l 67 987 l 755 987 l 755 892 l 212 106 z "},"[":{"ha":368,"x_min":99,"x_max":355,"o":"m 355 1025 l 225 1025 l 225 -109 l 355 -109 l 355 -212 l 99 -212 l 99 1128 l 355 1128 l 355 1025 z "},"\\":{"ha":570,"x_min":27,"x_max":559,"o":"m 27 987 l 146 987 l 559 -85 l 439 -85 l 27 987 z "},"]":{"ha":368,"x_min":6,"x_max":262,"o":"m 6 1128 l 262 1128 l 262 -212 l 6 -212 l 6 -109 l 137 -109 l 137 1025 l 6 1025 l 6 1128 z "},"^":{"ha":581,"x_min":43,"x_max":534,"o":"m 289 821 l 160 494 l 43 494 l 246 987 l 332 987 l 534 494 l 418 494 l 289 821 z "},"_":{"ha":627,"x_min":3,"x_max":624,"o":"m 624 -102 l 3 -102 l 3 0 l 624 0 l 624 -102 z "},"`":{"ha":429,"x_min":39,"x_max":321,"o":"m 321 841 l 214 841 l 39 1040 l 190 1040 l 321 841 z "},"a":{"ha":755,"x_min":74,"x_max":680,"o":"m 548 0 q 530 77 537 22 q 321 -14 443 -14 q 143 48 213 -14 q 74 203 74 109 q 161 381 74 318 q 406 445 248 445 l 528 445 l 528 503 q 489 607 528 568 q 373 646 450 646 q 260 612 306 646 q 215 530 215 578 l 89 530 q 128 636 89 585 q 234 718 167 688 q 380 747 300 747 q 579 684 507 747 q 654 509 651 621 l 654 172 q 680 11 654 71 l 680 0 l 548 0 m 340 96 q 452 126 399 96 q 528 205 505 157 l 528 356 l 430 356 q 199 221 199 356 q 239 129 199 162 q 340 96 278 96 z "},"b":{"ha":779,"x_min":95,"x_max":716,"o":"m 716 359 q 639 89 716 191 q 431 -14 562 -14 q 216 85 292 -14 l 210 0 l 95 0 l 95 1042 l 220 1042 l 220 653 q 430 747 296 747 q 640 646 564 747 q 716 370 716 545 l 716 359 m 591 373 q 541 571 591 501 q 399 641 492 641 q 220 526 275 641 l 220 208 q 400 93 278 93 q 541 163 490 93 q 591 373 591 233 z "},"c":{"ha":727,"x_min":62,"x_max":681,"o":"m 389 89 q 507 130 456 89 q 562 231 557 170 l 681 231 q 637 111 677 168 q 531 20 597 54 q 389 -14 464 -14 q 151 86 239 -14 q 62 360 62 186 l 62 381 q 102 572 62 488 q 215 701 141 655 q 389 747 288 747 q 594 673 512 747 q 681 481 675 600 l 562 481 q 508 598 557 553 q 389 644 460 644 q 240 575 293 644 q 188 376 188 507 l 188 353 q 240 157 188 226 q 389 89 292 89 z "},"d":{"ha":783,"x_min":64,"x_max":684,"o":"m 64 373 q 144 645 64 542 q 354 747 224 747 q 558 659 483 747 l 558 1042 l 684 1042 l 684 0 l 568 0 l 562 79 q 353 -14 487 -14 q 145 91 225 -14 q 64 363 64 195 l 64 373 m 190 359 q 241 163 190 234 q 384 93 293 93 q 558 200 503 93 l 558 537 q 385 641 502 641 q 241 570 293 641 q 190 359 190 498 z "},"e":{"ha":736,"x_min":63,"x_max":686,"o":"m 399 -14 q 157 84 250 -14 q 63 347 63 182 l 63 370 q 105 565 63 479 q 221 699 146 650 q 384 747 296 747 q 606 653 527 747 q 686 383 686 559 l 686 331 l 189 331 q 252 156 191 222 q 406 89 313 89 q 519 116 473 89 q 600 188 565 143 l 676 128 q 399 -14 584 -14 m 384 644 q 256 589 308 644 q 193 434 205 534 l 560 434 l 560 444 q 509 592 555 539 q 384 644 463 644 z "},"f":{"ha":482,"x_min":41,"x_max":484,"o":"m 157 0 l 157 637 l 41 637 l 41 734 l 157 734 l 157 809 q 220 991 157 927 q 398 1056 283 1056 q 484 1044 441 1056 l 477 943 q 410 949 446 949 q 315 913 349 949 q 282 811 282 878 l 282 734 l 439 734 l 439 637 l 282 637 l 282 0 l 157 0 z "},"g":{"ha":779,"x_min":65,"x_max":685,"o":"m 65 373 q 144 646 65 545 q 355 747 224 747 q 564 652 489 747 l 570 734 l 685 734 l 685 18 q 601 -207 685 -125 q 374 -289 516 -289 q 218 -255 294 -289 q 102 -162 142 -221 l 168 -87 q 365 -186 248 -186 q 508 -135 456 -186 q 559 10 559 -83 l 559 73 q 353 -14 484 -14 q 145 90 224 -14 q 65 373 65 194 m 191 359 q 242 164 191 235 q 385 93 293 93 q 559 201 503 93 l 559 536 q 386 641 501 641 q 243 570 294 641 q 191 359 191 498 z "},"h":{"ha":765,"x_min":95,"x_max":672,"o":"m 220 645 q 437 747 304 747 q 672 485 670 747 l 672 0 l 547 0 l 547 486 q 510 603 546 565 q 399 641 475 641 q 292 608 338 641 q 220 523 246 576 l 220 0 l 95 0 l 95 1042 l 220 1042 l 220 645 z "},"i":{"ha":337,"x_min":96,"x_max":244,"o":"m 231 0 l 106 0 l 106 734 l 231 734 l 231 0 m 96 928 q 114 980 96 959 q 170 1001 133 1001 q 225 980 206 1001 q 244 928 244 959 q 225 878 244 898 q 170 857 206 857 q 114 878 133 857 q 96 928 96 898 z "},"j":{"ha":332,"x_min":-44,"x_max":234,"o":"m 224 734 l 224 -85 q 33 -296 224 -296 q -44 -284 -9 -296 l -44 -184 q 13 -189 -22 -189 q 77 -166 55 -189 q 99 -87 99 -144 l 99 734 l 224 734 m 86 928 q 105 980 86 958 q 159 1001 123 1001 q 215 980 196 1001 q 234 928 234 959 q 215 878 234 898 q 159 857 196 857 q 104 878 123 857 q 86 928 86 898 z "},"k":{"ha":704,"x_min":96,"x_max":703,"o":"m 300 340 l 221 258 l 221 0 l 96 0 l 96 1042 l 221 1042 l 221 412 l 288 492 l 517 734 l 669 734 l 384 427 l 703 0 l 555 0 l 300 340 z "},"l":{"ha":337,"x_min":106,"x_max":231,"o":"m 231 0 l 106 0 l 106 1042 l 231 1042 l 231 0 z "},"m":{"ha":1217,"x_min":94,"x_max":1123,"o":"m 213 734 l 216 652 q 434 747 297 747 q 644 629 588 747 q 739 715 680 682 q 878 747 798 747 q 1123 492 1119 747 l 1123 0 l 998 0 l 998 484 q 962 602 998 563 q 841 641 926 641 q 725 599 771 641 q 671 487 679 557 l 671 0 l 545 0 l 545 481 q 389 641 545 641 q 220 536 265 641 l 220 0 l 94 0 l 94 734 l 213 734 z "},"n":{"ha":766,"x_min":95,"x_max":672,"o":"m 214 734 l 218 642 q 437 747 302 747 q 672 485 670 747 l 672 0 l 547 0 l 547 486 q 510 603 546 565 q 399 641 475 641 q 292 608 338 641 q 220 523 246 576 l 220 0 l 95 0 l 95 734 l 214 734 z "},"o":{"ha":792,"x_min":62,"x_max":730,"o":"m 62 374 q 104 568 62 481 q 222 701 146 654 q 395 747 298 747 q 637 644 545 747 q 730 368 730 540 l 730 359 q 689 166 730 252 q 571 34 648 81 q 396 -14 495 -14 q 154 90 247 -14 q 62 365 62 194 l 62 374 m 188 359 q 244 163 188 237 q 396 89 301 89 q 548 164 492 89 q 604 374 604 239 q 547 569 604 494 q 395 644 490 644 q 245 570 302 644 q 188 359 188 496 z "},"p":{"ha":779,"x_min":95,"x_max":715,"o":"m 715 359 q 638 89 715 191 q 431 -14 562 -14 q 220 71 297 -14 l 220 -282 l 95 -282 l 95 734 l 210 734 l 216 652 q 429 747 292 747 q 638 648 561 747 q 715 370 715 548 l 715 359 m 589 373 q 536 569 589 497 q 391 641 484 641 q 220 540 277 641 l 220 189 q 393 89 277 89 q 536 160 483 89 q 589 373 589 232 z "},"q":{"ha":789,"x_min":64,"x_max":683,"o":"m 64 373 q 144 647 64 546 q 357 747 223 747 q 562 660 487 747 l 568 734 l 683 734 l 683 -282 l 557 -282 l 557 68 q 355 -14 481 -14 q 143 90 222 -14 q 64 364 64 193 l 64 373 m 190 359 q 243 161 190 233 q 387 89 296 89 q 557 188 498 89 l 557 547 q 388 644 498 644 q 243 572 297 644 q 190 359 190 500 z "},"r":{"ha":470,"x_min":95,"x_max":450,"o":"m 450 621 q 388 626 421 626 q 220 521 264 626 l 220 0 l 95 0 l 95 734 l 217 734 l 219 649 q 394 747 281 747 q 450 738 431 747 l 450 621 z "},"s":{"ha":716,"x_min":64,"x_max":648,"o":"m 522 195 q 484 274 522 245 q 350 322 446 302 q 199 371 255 342 q 116 439 143 399 q 90 532 90 478 q 166 685 90 623 q 361 747 242 747 q 563 683 486 747 q 641 518 641 618 l 515 518 q 471 607 515 570 q 361 644 427 644 q 254 614 292 644 q 215 536 215 585 q 251 468 215 491 q 381 424 287 445 q 533 374 475 403 q 620 303 591 345 q 648 203 648 262 q 569 46 648 105 q 365 -14 490 -14 q 209 18 277 -14 q 103 105 141 49 q 64 226 64 161 l 190 226 q 240 126 193 163 q 365 89 288 89 q 479 118 436 89 q 522 195 522 146 z "},"t":{"ha":454,"x_min":6,"x_max":406,"o":"m 265 911 l 265 734 l 402 734 l 402 637 l 265 637 l 265 182 q 283 116 265 138 q 346 94 302 94 q 406 102 368 94 l 406 0 q 309 -14 356 -14 q 182 37 225 -14 q 140 182 140 88 l 140 637 l 6 637 l 6 734 l 140 734 l 140 911 l 265 911 z "},"u":{"ha":766,"x_min":92,"x_max":670,"o":"m 548 73 q 333 -14 475 -14 q 154 55 216 -14 q 92 256 93 123 l 92 734 l 218 734 l 218 260 q 353 93 218 93 q 545 200 497 93 l 545 734 l 670 734 l 670 0 l 551 0 l 548 73 z "},"v":{"ha":673,"x_min":22,"x_max":647,"o":"m 337 170 l 519 734 l 647 734 l 384 0 l 288 0 l 22 734 l 151 734 l 337 170 z "},"w":{"ha":1044,"x_min":29,"x_max":1011,"o":"m 745 173 l 886 734 l 1011 734 l 798 0 l 696 0 l 517 556 l 344 0 l 242 0 l 29 734 l 154 734 l 298 184 l 469 734 l 570 734 l 745 173 z "},"x":{"ha":688,"x_min":28,"x_max":658,"o":"m 341 466 l 504 734 l 650 734 l 410 371 l 658 0 l 513 0 l 343 275 l 174 0 l 28 0 l 275 371 l 35 734 l 180 734 l 341 466 z "},"y":{"ha":657,"x_min":15,"x_max":640,"o":"m 335 184 l 506 734 l 640 734 l 345 -113 q 127 -296 277 -296 l 104 -294 l 57 -286 l 57 -184 l 91 -186 q 190 -161 155 -186 q 249 -66 226 -135 l 277 8 l 15 734 l 152 734 l 335 184 z "},"z":{"ha":688,"x_min":60,"x_max":642,"o":"m 213 102 l 642 102 l 642 0 l 60 0 l 60 92 l 465 630 l 66 630 l 66 734 l 622 734 l 622 645 l 213 102 z "},"{":{"ha":470,"x_min":43,"x_max":454,"o":"m 429 -248 q 248 -137 309 -214 q 187 68 187 -59 l 187 203 q 43 368 187 368 l 43 467 q 187 631 187 467 l 187 772 q 248 972 189 896 q 429 1083 307 1048 l 454 1005 q 313 768 313 960 l 313 631 q 199 417 313 477 q 313 201 313 356 l 313 61 q 454 -170 315 -125 l 429 -248 z "},"|":{"ha":338,"x_min":119,"x_max":220,"o":"m 220 -183 l 119 -183 l 119 987 l 220 987 l 220 -183 z "},"}":{"ha":470,"x_min":13,"x_max":425,"o":"m 13 -170 q 155 54 151 -126 l 155 203 q 278 417 155 360 q 155 631 155 473 l 155 768 q 14 1005 155 960 l 39 1083 q 220 973 159 1049 q 281 771 280 897 l 281 629 q 425 467 281 467 l 425 368 q 281 203 281 368 l 281 66 q 219 -138 281 -61 q 39 -248 158 -214 l 13 -170 z "},"~":{"ha":945,"x_min":89,"x_max":857,"o":"m 857 527 q 793 346 857 420 q 637 273 730 273 q 545 291 588 273 q 444 359 501 309 q 361 421 387 409 q 308 433 336 433 q 227 397 255 433 q 198 297 198 361 l 89 296 q 151 474 89 404 q 308 544 214 544 q 407 522 359 544 q 514 446 454 500 q 617 385 574 391 l 637 383 q 721 422 688 383 q 753 526 753 462 l 857 527 z "},"¡":{"ha":338,"x_min":94,"x_max":243,"o":"m 115 464 l 229 464 l 238 -244 l 106 -244 l 115 464 m 243 675 q 224 624 243 645 q 169 603 205 603 q 113 624 132 603 q 94 675 94 645 q 113 726 94 706 q 169 747 132 747 q 224 726 205 747 q 243 675 243 706 z "},"¢":{"ha":760,"x_min":71,"x_max":690,"o":"m 397 89 q 515 130 465 89 q 571 231 566 171 l 690 231 q 618 78 686 146 q 454 -8 551 9 l 454 -166 l 328 -166 l 328 -7 q 139 112 207 16 q 71 357 71 208 l 71 381 q 140 622 71 525 q 328 741 208 718 l 328 894 l 454 894 l 454 743 q 621 655 555 727 q 690 481 686 583 l 571 481 q 517 598 566 553 q 397 644 469 644 q 249 575 302 644 q 197 376 197 507 l 197 353 q 249 157 197 226 q 397 89 302 89 z "},"£":{"ha":807,"x_min":62,"x_max":765,"o":"m 304 422 l 310 273 q 268 106 310 168 l 765 106 l 764 0 l 64 0 l 64 106 l 117 106 q 161 157 144 113 q 179 267 178 201 l 179 272 l 174 422 l 62 422 l 62 528 l 170 528 l 164 705 q 247 920 164 840 q 466 1001 330 1001 q 670 929 595 1001 q 745 737 745 857 l 616 737 q 573 852 616 810 q 454 894 530 894 q 339 842 383 894 q 295 705 295 789 l 301 528 l 517 528 l 517 422 l 304 422 z "},"¤":{"ha":990,"x_min":71,"x_max":930,"o":"m 748 76 q 498 -14 640 -14 q 250 75 358 -14 l 159 -18 l 71 74 l 165 170 q 95 412 95 275 q 171 663 95 552 l 71 765 l 159 857 l 259 755 q 498 837 366 837 q 739 755 631 837 l 840 858 l 930 765 l 827 661 q 902 412 902 550 q 833 172 902 279 l 930 74 l 840 -18 l 748 76 m 211 412 q 250 257 211 329 q 355 144 289 185 q 498 102 422 102 q 642 144 575 102 q 746 257 708 186 q 785 412 785 329 q 746 567 785 495 q 641 679 708 638 q 498 720 574 720 q 355 680 422 720 q 250 567 289 639 q 211 412 211 495 z "},"¥":{"ha":841,"x_min":21,"x_max":812,"o":"m 416 530 l 663 987 l 812 987 l 528 499 l 740 499 l 740 414 l 479 414 l 479 302 l 740 302 l 740 218 l 479 218 l 479 0 l 349 0 l 349 218 l 92 218 l 92 302 l 349 302 l 349 414 l 92 414 l 92 499 l 304 499 l 21 987 l 170 987 l 416 530 z "},"¦":{"ha":333,"x_min":100,"x_max":226,"o":"m 100 -183 l 100 353 l 226 353 l 226 -183 l 100 -183 m 226 473 l 100 473 l 100 987 l 226 987 l 226 473 z "},"§":{"ha":852,"x_min":61,"x_max":777,"o":"m 777 292 q 650 106 777 164 q 722 27 697 73 q 746 -87 746 -19 q 658 -268 746 -201 q 415 -336 570 -336 q 271 -317 339 -336 q 155 -259 203 -298 q 61 -43 61 -182 l 187 -42 q 248 -181 187 -130 q 415 -233 309 -233 q 564 -193 507 -233 q 620 -88 620 -153 q 572 8 620 -28 q 382 85 524 43 q 193 156 258 118 q 97 246 128 193 q 65 374 65 298 q 189 559 65 500 q 120 639 144 593 q 96 753 96 685 q 186 933 96 865 q 427 1001 277 1001 q 673 924 585 1001 q 761 709 761 848 l 635 709 q 578 846 635 793 q 427 899 522 899 q 276 860 331 899 q 222 754 222 821 q 241 680 222 707 q 306 631 260 653 q 449 582 351 609 q 603 530 546 555 q 699 473 661 506 q 757 396 737 440 q 777 292 777 353 m 408 469 q 296 503 347 485 q 217 456 242 490 q 191 375 191 422 q 210 300 191 328 q 273 251 228 273 q 414 201 318 229 q 541 161 511 173 q 622 209 593 175 q 650 290 650 243 q 603 387 650 350 q 408 469 556 424 z "},"¨":{"ha":581,"x_min":69,"x_max":509,"o":"m 69 930 q 88 981 69 960 q 143 1002 106 1002 q 199 981 180 1002 q 218 930 218 960 q 199 879 218 899 q 143 859 180 859 q 88 879 106 859 q 69 930 69 899 m 361 928 q 379 980 361 959 q 435 1001 398 1001 q 490 980 471 1001 q 509 928 509 959 q 490 878 509 898 q 435 857 471 857 q 379 878 398 857 q 361 928 361 898 z "},"©":{"ha":1091,"x_min":62,"x_max":1024,"o":"m 759 405 q 700 247 759 301 q 534 192 642 192 q 364 263 428 192 q 300 458 300 335 l 300 533 q 365 724 300 652 q 534 795 429 795 q 701 740 643 795 q 760 583 760 684 l 661 583 q 628 679 661 650 q 534 708 596 708 q 434 661 471 708 q 397 531 397 614 l 397 454 q 434 326 397 373 q 534 279 471 279 q 628 308 597 279 q 660 405 660 336 l 759 405 m 140 494 q 194 278 140 378 q 341 123 248 179 q 543 66 435 66 q 745 123 652 66 q 892 278 838 179 q 946 494 946 378 q 892 708 946 610 q 746 863 839 806 q 543 920 652 920 q 341 864 435 920 q 194 709 248 808 q 140 494 140 610 m 62 494 q 125 749 62 631 q 301 933 189 866 q 543 1001 413 1001 q 785 933 673 1001 q 961 749 897 866 q 1024 494 1024 631 q 963 244 1024 361 q 790 57 902 127 q 543 -14 677 -14 q 297 56 410 -14 q 123 243 185 126 q 62 494 62 359 z "},"ª":{"ha":621,"x_min":100,"x_max":531,"o":"m 419 478 q 407 527 411 501 q 269 469 355 469 q 144 511 188 469 q 100 623 100 553 q 156 739 100 698 q 330 779 213 779 l 403 779 l 403 814 q 319 906 403 906 q 245 888 272 906 q 218 835 218 869 l 109 843 q 168 957 109 913 q 319 1001 226 1001 q 461 952 409 1001 q 513 813 513 904 l 513 599 q 531 478 513 533 l 419 478 m 295 562 q 354 575 324 562 q 403 607 384 589 l 403 703 l 327 703 q 240 681 271 703 q 210 625 210 660 q 295 562 210 562 z "},"«":{"ha":652,"x_min":69,"x_max":589,"o":"m 190 372 l 365 102 l 269 102 l 69 366 l 69 378 l 269 642 l 365 642 l 190 372 m 414 372 l 589 102 l 493 102 l 293 366 l 293 378 l 493 642 l 589 642 l 414 372 z "},"¬":{"ha":769,"x_min":86,"x_max":650,"o":"m 650 254 l 524 254 l 524 433 l 86 433 l 86 543 l 650 543 l 650 254 z "},"®":{"ha":1092,"x_min":61,"x_max":1023,"o":"m 61 494 q 124 749 61 631 q 300 933 188 866 q 543 1001 412 1001 q 785 933 673 1001 q 960 749 897 866 q 1023 494 1023 631 q 962 244 1023 361 q 789 57 901 127 q 543 -14 677 -14 q 297 56 409 -14 q 123 243 184 126 q 61 494 61 359 m 139 494 q 193 278 139 378 q 341 123 248 179 q 543 66 434 66 q 745 124 652 66 q 892 279 839 181 q 945 494 945 378 q 892 708 945 610 q 745 863 839 806 q 543 920 652 920 q 340 864 434 920 q 193 709 247 808 q 139 494 139 610 m 443 444 l 443 214 l 347 214 l 347 790 l 534 790 q 695 746 638 790 q 753 616 753 701 q 666 489 753 533 q 749 351 749 455 l 749 309 q 761 225 749 251 l 761 214 l 663 214 q 653 301 653 239 q 651 376 653 364 q 562 444 640 441 l 443 444 m 443 530 l 549 530 q 627 554 597 532 q 657 613 657 576 q 631 683 657 663 q 536 704 604 704 l 443 704 l 443 530 z "},"¯":{"ha":636,"x_min":81,"x_max":566,"o":"m 566 890 l 81 890 l 81 987 l 566 987 l 566 890 z "},"°":{"ha":519,"x_min":88,"x_max":431,"o":"m 88 825 q 139 948 88 895 q 261 1001 189 1001 q 381 948 332 1001 q 431 825 431 896 q 381 702 431 753 q 261 651 332 651 q 139 702 190 651 q 88 825 88 753 m 261 738 q 323 762 298 738 q 348 825 348 786 q 323 889 348 864 q 261 915 298 915 q 198 888 224 915 q 173 825 173 861 q 198 763 173 788 q 261 738 224 738 z "},"±":{"ha":742,"x_min":66,"x_max":687,"o":"m 440 579 l 687 579 l 687 477 l 440 477 l 440 196 l 327 196 l 327 477 l 66 477 l 66 579 l 327 579 l 327 859 l 440 859 l 440 579 m 658 0 l 92 0 l 92 103 l 658 103 l 658 0 z "},"²":{"ha":509,"x_min":45,"x_max":463,"o":"m 463 452 l 57 452 l 57 526 l 260 717 q 334 833 334 786 q 313 887 334 866 q 250 907 291 907 q 175 882 199 907 q 151 817 151 856 l 45 817 q 101 945 45 895 q 248 995 158 995 q 389 952 337 995 q 441 834 441 909 q 369 691 441 764 l 312 637 l 193 539 l 463 539 l 463 452 z "},"³":{"ha":509,"x_min":42,"x_max":452,"o":"m 180 763 l 237 763 q 311 784 287 763 q 336 837 336 804 q 314 887 336 867 q 245 907 293 907 q 181 889 207 907 q 156 844 156 872 l 50 844 q 105 952 50 911 q 244 994 160 994 q 390 953 337 994 q 443 842 443 912 q 419 773 443 804 q 351 726 395 743 q 452 601 452 698 q 394 487 452 529 q 244 444 336 444 q 98 487 155 444 q 42 602 42 530 l 149 602 q 176 551 149 572 q 248 531 203 531 q 320 551 296 531 q 345 606 345 572 q 239 684 345 683 l 180 684 l 180 763 z "},"´":{"ha":435,"x_min":83,"x_max":366,"o":"m 214 1040 l 366 1040 l 184 841 l 83 841 l 214 1040 z "},"µ":{"ha":787,"x_min":104,"x_max":682,"o":"m 230 734 l 230 304 q 266 141 231 194 q 379 88 300 88 q 556 191 514 88 l 556 734 l 682 734 l 682 0 l 569 0 l 563 78 q 385 -14 500 -14 q 230 36 285 -14 l 230 -282 l 104 -282 l 104 734 l 230 734 z "},"¶":{"ha":679,"x_min":45,"x_max":564,"o":"m 438 0 l 438 353 l 381 353 q 135 439 225 353 q 45 670 45 525 q 136 901 45 814 q 382 987 226 987 l 564 987 l 564 0 l 438 0 z "},"·":{"ha":362,"x_min":100,"x_max":256,"o":"m 100 494 q 119 549 100 527 q 177 570 138 570 q 236 549 216 570 q 256 494 256 527 q 236 441 256 463 q 177 420 216 420 q 119 441 138 420 q 100 494 100 463 z "},"¸":{"ha":344,"x_min":79,"x_max":289,"o":"m 193 0 l 185 -35 q 289 -153 289 -54 q 235 -257 289 -218 q 83 -295 180 -295 l 79 -222 q 162 -205 132 -222 q 191 -155 191 -187 q 170 -111 191 -125 q 81 -91 148 -97 l 103 0 l 193 0 z "},"¹":{"ha":509,"x_min":83,"x_max":336,"o":"m 336 457 l 229 457 l 229 865 l 83 826 l 83 913 l 323 992 l 336 992 l 336 457 z "},"º":{"ha":631,"x_min":83,"x_max":547,"o":"m 83 762 q 146 935 83 869 q 315 1001 210 1001 q 484 936 420 1001 q 547 758 547 870 l 547 707 q 484 534 547 600 q 316 468 420 468 q 147 534 212 468 q 83 711 83 600 l 83 762 m 193 707 q 226 601 193 640 q 316 562 259 562 q 405 601 372 562 q 437 709 437 640 l 437 762 q 404 867 437 829 q 315 906 371 906 q 227 869 260 906 q 193 766 195 831 l 193 707 z "},"»":{"ha":651,"x_min":69,"x_max":602,"o":"m 165 644 l 366 380 l 366 367 l 165 103 l 69 103 l 244 373 l 69 644 l 165 644 m 402 644 l 602 380 l 602 367 l 402 103 l 306 103 l 481 373 l 306 644 l 402 644 z "},"¼":{"ha":1017,"x_min":58,"x_max":966,"o":"m 311 450 l 204 450 l 204 858 l 58 819 l 58 906 l 298 985 l 311 985 l 311 450 m 300 80 l 230 125 l 712 897 l 783 852 l 300 80 m 894 203 l 966 203 l 966 115 l 894 115 l 894 0 l 787 0 l 787 115 l 533 115 l 529 184 l 785 535 l 894 535 l 894 203 m 636 203 l 787 203 l 787 399 l 776 380 l 636 203 z "},"½":{"ha":1078,"x_min":54,"x_max":1004,"o":"m 271 80 l 200 125 l 682 897 l 753 852 l 271 80 m 307 450 l 201 450 l 201 858 l 54 819 l 54 906 l 295 985 l 307 985 l 307 450 m 1004 0 l 598 0 l 598 73 l 802 264 q 876 380 876 334 q 854 434 876 414 q 791 455 832 455 q 716 429 741 455 q 692 365 692 404 l 586 365 q 643 492 586 442 q 789 543 699 543 q 930 499 878 543 q 983 382 983 456 q 910 239 983 311 l 853 185 l 734 87 l 1004 87 l 1004 0 z "},"¾":{"ha":1080,"x_min":75,"x_max":1029,"o":"m 387 80 l 316 125 l 798 897 l 869 852 l 387 80 m 956 203 l 1029 203 l 1029 115 l 956 115 l 956 0 l 850 0 l 850 115 l 595 115 l 591 184 l 847 535 l 956 535 l 956 203 m 699 203 l 850 203 l 850 399 l 838 380 l 699 203 m 213 764 l 270 764 q 345 784 320 764 q 369 838 369 805 q 348 888 369 868 q 279 907 326 907 q 215 890 240 907 q 189 845 189 873 l 83 845 q 138 953 83 911 q 277 995 193 995 q 423 954 370 995 q 476 842 476 913 q 452 774 476 805 q 384 726 429 743 q 485 602 485 699 q 427 487 485 530 q 277 445 370 445 q 132 488 188 445 q 75 603 75 530 l 182 603 q 209 552 182 572 q 281 532 236 532 q 354 552 329 532 q 378 607 378 572 q 273 685 378 684 l 213 685 l 213 764 z "},"¿":{"ha":657,"x_min":46,"x_max":602,"o":"m 399 461 q 384 346 398 389 q 338 263 370 303 q 243 158 305 223 q 173 25 180 92 l 172 0 q 211 -113 172 -74 q 324 -152 250 -152 q 434 -114 392 -152 q 477 -14 477 -75 l 602 -14 q 525 -192 601 -123 q 324 -261 448 -261 q 119 -193 191 -261 q 46 -3 46 -125 q 155 233 46 114 l 229 309 q 273 461 273 362 l 399 461 m 404 676 q 386 625 404 646 q 330 604 367 604 q 275 625 294 604 q 256 676 256 646 q 275 726 256 706 q 330 747 294 747 q 386 726 367 747 q 404 676 404 706 z "},"Æ":{"ha":1298,"x_min":-9,"x_max":1274,"o":"m 1274 0 l 675 0 l 665 239 l 283 239 l 144 0 l -9 0 l 587 987 l 1232 987 l 1232 884 l 764 884 l 777 565 l 1177 565 l 1177 463 l 781 463 l 796 102 l 1274 102 l 1274 0 m 351 357 l 661 357 l 640 854 l 351 357 z "},"×":{"ha":741,"x_min":60,"x_max":671,"o":"m 60 223 l 284 451 l 62 678 l 142 762 l 366 534 l 589 762 l 669 678 l 447 451 l 671 223 l 590 140 l 366 368 l 141 140 l 60 223 z "},"Ø":{"ha":955,"x_min":80,"x_max":888,"o":"m 874 462 q 825 209 874 317 q 687 43 777 100 q 478 -14 597 -14 q 273 42 362 -14 l 208 -63 l 111 -63 l 209 94 q 80 468 80 224 l 80 524 q 130 776 80 667 q 270 943 179 885 q 477 1001 360 1001 q 722 916 622 1001 l 792 1028 l 888 1028 l 780 855 q 874 529 873 728 l 874 462 m 210 462 q 276 201 210 296 l 659 814 q 477 889 589 889 q 282 795 353 889 q 210 534 212 701 l 210 462 m 745 526 q 707 738 745 649 l 334 140 q 478 97 396 97 q 673 189 604 97 q 745 452 743 281 l 745 526 z "},"Þ":{"ha":821,"x_min":113,"x_max":758,"o":"m 239 987 l 239 789 l 428 789 q 602 753 528 789 q 717 652 677 718 q 758 500 758 586 q 668 291 758 369 q 425 212 578 212 l 239 212 l 239 0 l 113 0 l 113 987 l 239 987 m 239 686 l 239 315 l 427 315 q 577 367 523 315 q 631 499 631 418 q 577 634 631 583 q 431 686 523 685 l 239 686 z "},"ß":{"ha":826,"x_min":94,"x_max":766,"o":"m 220 0 l 94 0 l 94 753 q 164 974 94 895 q 361 1054 235 1054 q 550 993 483 1054 q 616 825 616 932 q 573 671 616 740 q 530 555 530 602 q 555 489 530 521 q 644 408 581 456 q 737 313 708 359 q 766 215 766 267 q 697 47 766 107 q 505 -14 629 -14 q 389 1 450 -14 q 302 35 328 16 l 331 140 q 410 104 364 119 q 492 89 456 89 q 603 121 564 89 q 641 208 641 153 q 616 276 641 243 q 527 358 591 309 q 433 455 463 408 q 404 557 404 502 q 451 687 404 617 q 498 814 498 758 q 463 915 498 878 q 368 951 427 951 q 220 752 220 951 l 220 0 z "},"æ":{"ha":1173,"x_min":53,"x_max":1126,"o":"m 856 -14 q 587 109 679 -14 q 466 18 543 50 q 294 -14 389 -14 q 117 45 180 -14 q 53 206 53 104 q 130 372 53 313 q 357 431 207 431 l 508 431 l 508 488 q 471 603 508 561 q 363 644 433 644 q 244 607 292 644 q 197 515 197 570 l 72 528 q 154 686 72 625 q 363 747 236 747 q 500 719 441 747 q 594 635 560 691 q 696 718 637 688 q 826 747 755 747 q 1047 660 968 747 q 1126 415 1126 573 l 1126 337 l 632 337 q 696 153 637 218 q 856 88 755 88 q 1038 140 956 88 l 1070 161 l 1114 68 q 856 -14 1006 -14 m 318 88 q 420 113 367 88 q 508 175 474 138 l 508 336 l 353 336 q 227 297 274 334 q 179 203 179 260 q 215 120 179 151 q 318 88 251 88 m 826 644 q 697 586 748 644 q 635 434 647 528 l 1000 434 l 1000 455 q 955 594 1000 545 q 826 644 909 644 z "},"ð":{"ha":814,"x_min":85,"x_max":725,"o":"m 556 882 q 725 426 725 703 l 725 363 q 685 170 725 256 q 572 35 646 84 q 408 -14 499 -14 q 242 30 317 -14 q 126 150 168 74 q 85 317 85 226 q 123 495 85 416 q 232 618 161 574 q 389 663 302 663 q 582 585 500 663 q 454 813 549 718 l 306 713 l 256 780 l 387 869 q 173 964 297 930 l 212 1072 q 492 941 374 1035 l 621 1028 l 670 960 l 556 882 m 600 431 l 598 469 q 529 535 576 510 q 419 559 481 559 q 266 495 321 559 q 211 317 211 430 q 268 155 211 222 q 411 89 324 89 q 548 165 496 89 q 600 367 600 242 l 600 431 z "},"÷":{"ha":793,"x_min":48,"x_max":725,"o":"m 725 407 l 48 407 l 48 532 l 725 532 l 725 407 m 313 745 q 332 799 313 777 q 390 821 351 821 q 449 799 429 821 q 469 745 469 777 q 449 692 469 713 q 390 671 429 671 q 332 692 351 671 q 313 745 313 713 m 313 191 q 332 245 313 223 q 390 267 351 267 q 449 245 429 267 q 469 191 469 223 q 449 138 469 159 q 390 117 429 117 q 332 138 351 117 q 313 191 313 159 z "},"ø":{"ha":787,"x_min":62,"x_max":730,"o":"m 62 374 q 103 567 62 481 q 221 700 145 653 q 395 747 298 747 q 533 719 469 747 l 583 819 l 667 819 l 597 680 q 730 359 730 576 q 688 165 730 252 q 570 33 646 79 q 396 -14 494 -14 q 267 10 326 -14 l 217 -91 l 133 -91 l 201 47 q 62 374 62 148 m 187 359 q 253 152 187 227 l 486 623 q 395 644 444 644 q 244 570 301 644 q 187 359 187 496 m 604 374 q 545 572 604 497 l 314 106 q 396 89 351 89 q 547 163 490 89 q 604 363 604 237 l 604 374 z "},"þ":{"ha":800,"x_min":101,"x_max":721,"o":"m 721 359 q 644 89 721 191 q 437 -14 568 -14 q 227 71 303 -14 l 227 -282 l 101 -282 l 101 1042 l 227 1042 l 227 658 q 435 747 303 747 q 644 648 567 747 q 721 370 721 548 l 721 359 m 595 373 q 543 569 595 497 q 397 641 490 641 q 227 540 283 641 l 227 189 q 399 89 283 89 q 542 160 489 89 q 595 373 595 232 z "},"Ħ":{"ha":972,"x_min":20,"x_max":960,"o":"m 869 791 l 960 791 l 960 694 l 869 694 l 869 0 l 739 0 l 739 456 l 241 456 l 241 0 l 111 0 l 111 694 l 20 694 l 20 791 l 111 791 l 111 987 l 241 987 l 241 791 l 739 791 l 739 987 l 869 987 l 869 791 m 241 563 l 739 563 l 739 694 l 241 694 l 241 563 z "},"ı":{"ha":343,"x_min":105,"x_max":231,"o":"m 231 0 l 105 0 l 105 734 l 231 734 l 231 0 z "},"ĸ":{"ha":772,"x_min":104,"x_max":737,"o":"m 303 313 l 231 313 l 231 0 l 104 0 l 104 734 l 231 734 l 231 423 l 292 423 l 562 734 l 713 734 l 406 378 l 737 0 l 579 0 l 303 313 z "},"Ł":{"ha":748,"x_min":23,"x_max":713,"o":"m 245 572 l 423 629 l 423 544 l 245 487 l 245 106 l 713 106 l 713 0 l 114 0 l 114 446 l 23 417 l 23 502 l 114 530 l 114 987 l 245 987 l 245 572 z "},"ł":{"ha":375,"x_min":23,"x_max":354,"o":"m 247 589 l 354 631 l 354 547 l 247 506 l 247 0 l 121 0 l 121 458 l 23 420 l 23 504 l 121 541 l 121 1042 l 247 1042 l 247 589 z "},"Ŋ":{"ha":962,"x_min":110,"x_max":858,"o":"m 858 987 l 858 -56 q 800 -233 858 -170 q 636 -296 742 -296 q 558 -284 595 -296 l 568 -180 q 634 -189 593 -189 q 726 -48 726 -189 l 726 0 l 240 766 l 240 0 l 110 0 l 110 987 l 240 987 l 726 222 l 726 987 l 858 987 z "},"ŋ":{"ha":787,"x_min":98,"x_max":684,"o":"m 211 734 l 220 629 q 436 747 298 747 q 620 677 557 747 q 684 469 682 606 l 684 -60 q 627 -234 684 -172 q 465 -296 570 -296 q 387 -284 424 -296 l 397 -178 q 465 -186 420 -186 q 558 -55 558 -186 l 558 460 q 520 597 558 554 q 398 641 483 641 q 224 551 279 641 l 224 0 l 98 0 l 98 734 l 211 734 z "},"Œ":{"ha":1324,"x_min":71,"x_max":1221,"o":"m 1221 0 l 646 0 q 448 -14 526 -14 q 252 37 338 -14 q 119 179 166 87 q 71 387 71 271 l 71 597 q 118 806 71 713 q 251 950 165 899 q 447 1001 337 1001 q 646 987 531 1001 l 1215 987 l 1215 880 l 724 880 l 724 563 l 1152 563 l 1152 456 l 724 456 l 724 106 l 1221 106 l 1221 0 m 448 88 q 594 98 525 88 l 594 888 q 447 899 520 899 q 264 821 330 899 q 197 603 198 743 l 197 391 q 263 168 197 248 q 448 88 329 88 z "},"œ":{"ha":1261,"x_min":66,"x_max":1215,"o":"m 66 374 q 107 568 66 482 q 222 701 148 654 q 393 747 296 747 q 554 708 486 747 q 663 600 622 668 q 774 708 707 669 q 916 747 840 747 q 1136 661 1057 747 q 1215 416 1215 575 l 1215 337 l 728 337 q 789 155 733 222 q 935 88 844 88 q 1144 161 1063 88 l 1194 76 q 935 -14 1101 -14 q 774 24 844 -14 q 662 130 705 62 q 552 25 620 63 q 394 -14 485 -14 q 155 90 245 -14 q 66 365 66 193 l 66 374 m 191 359 q 245 161 191 235 q 394 88 300 88 q 541 161 487 88 q 595 374 595 234 q 541 571 595 497 q 393 644 486 644 q 246 572 301 644 q 191 359 191 499 m 916 644 q 798 589 849 644 q 732 440 747 534 l 1089 440 l 1089 458 q 1043 593 1089 543 q 916 644 996 644 z "},"ſ":{"ha":345,"x_min":109,"x_max":435,"o":"m 109 0 l 109 812 q 169 991 109 927 q 338 1056 229 1056 q 435 1042 378 1056 l 420 945 q 358 953 393 953 q 234 803 234 953 l 234 0 l 109 0 z "},"Ə":{"ha":960,"x_min":63,"x_max":880,"o":"m 473 -14 q 171 103 279 -14 q 63 441 63 220 l 63 520 l 749 520 l 749 525 q 667 796 749 700 q 434 892 584 892 q 228 853 322 892 l 186 836 l 155 932 l 170 941 q 434 1001 277 1001 q 760 873 639 1001 q 880 518 880 745 l 880 461 q 827 219 880 328 q 680 48 774 110 q 473 -14 586 -14 m 473 94 q 663 182 587 94 q 748 419 738 271 l 194 419 l 194 396 q 266 171 194 248 q 473 94 337 94 z "},"ƒ":{"ha":473,"x_min":-19,"x_max":475,"o":"m 412 637 l 275 637 l 275 -59 q 218 -234 275 -172 q 56 -296 161 -296 q -19 -284 15 -296 l -9 -184 q 56 -193 11 -193 q 124 -158 100 -193 q 149 -60 149 -123 l 149 637 l 33 637 l 33 734 l 149 734 l 149 815 q 209 992 150 928 q 378 1056 269 1056 q 475 1042 418 1056 l 460 942 q 393 949 434 949 q 275 817 277 949 l 275 734 l 412 734 l 412 637 z "},"Ơ":{"ha":954,"x_min":68,"x_max":975,"o":"m 863 462 q 814 209 863 317 q 675 43 765 100 q 467 -14 586 -14 q 260 43 351 -14 q 120 208 170 100 q 68 456 69 316 l 68 524 q 118 775 68 667 q 258 943 168 884 q 465 1001 349 1001 q 733 896 628 1001 q 830 945 798 901 q 861 1079 861 989 l 975 1079 q 796 812 975 853 q 863 528 862 695 l 863 462 m 734 526 q 664 795 734 701 q 465 889 593 889 q 271 795 342 889 q 198 534 200 701 l 198 462 q 270 194 198 292 q 467 97 341 97 q 665 193 596 97 q 734 463 734 288 l 734 526 z "},"ơ":{"ha":793,"x_min":62,"x_max":821,"o":"m 62 374 q 103 567 62 481 q 221 700 145 653 q 395 747 298 747 q 627 654 535 747 q 697 693 675 659 q 719 814 719 727 l 821 814 q 680 582 821 616 q 730 374 730 488 l 730 359 q 688 165 730 252 q 570 33 646 79 q 396 -14 494 -14 q 154 91 245 -14 q 62 365 62 195 l 62 374 m 187 359 q 244 163 187 237 q 396 89 300 89 q 547 163 490 89 q 604 363 604 237 l 604 374 q 546 570 604 496 q 395 644 489 644 q 244 570 301 644 q 187 359 187 496 z "},"Ư":{"ha":966,"x_min":95,"x_max":1061,"o":"m 810 987 l 810 843 q 921 897 888 850 q 954 1043 954 943 l 1061 1043 q 1001 830 1061 901 q 810 751 941 759 l 810 315 q 726 92 809 180 q 500 -11 644 4 l 451 -14 q 193 74 289 -14 q 95 315 96 161 l 95 987 l 224 987 l 224 319 q 283 152 224 212 q 451 93 342 93 q 620 152 562 93 q 679 318 679 211 l 679 987 l 810 987 z "},"ư":{"ha":859,"x_min":92,"x_max":878,"o":"m 878 792 q 828 620 878 670 q 670 568 779 570 l 670 0 l 551 0 l 548 73 q 333 -14 475 -14 q 154 55 216 -14 q 92 256 93 123 l 92 734 l 218 734 l 218 260 q 353 93 218 93 q 545 200 497 93 l 545 734 l 670 734 l 670 645 q 739 658 716 646 q 772 694 762 670 q 782 792 782 719 l 878 792 z "},"ȷ":{"ha":349,"x_min":-52,"x_max":242,"o":"m 242 734 l 242 -60 q 184 -236 242 -176 q 24 -296 127 -296 q -52 -284 -16 -296 l -42 -184 q 24 -193 -22 -193 q 92 -158 68 -193 q 117 -60 117 -123 l 117 734 l 242 734 z "},"ə":{"ha":732,"x_min":66,"x_max":679,"o":"m 347 748 q 587 646 496 748 q 679 376 679 545 l 679 351 q 637 166 679 250 q 522 34 595 82 q 366 -13 448 -14 q 145 73 224 -13 q 66 317 66 159 l 66 396 l 553 396 q 493 578 548 510 q 347 646 439 646 q 137 572 220 646 l 87 657 q 347 748 182 748 m 366 90 q 483 145 432 90 q 549 294 534 201 l 193 294 l 193 276 q 239 140 193 191 q 366 90 286 90 z "},"ˆ":{"ha":654,"x_min":115,"x_max":525,"o":"m 525 856 l 525 849 l 421 849 l 319 964 l 218 849 l 115 849 l 115 857 l 281 1042 l 357 1042 l 525 856 z "},"ˇ":{"ha":616,"x_min":95,"x_max":514,"o":"m 304 926 l 406 1041 l 514 1041 l 514 1034 l 342 848 l 265 848 l 95 1034 l 95 1041 l 201 1041 l 304 926 z "},"ˉ":{"ha":637,"x_min":81,"x_max":566,"o":"m 566 890 l 81 890 l 81 987 l 566 987 l 566 890 z "},"˘":{"ha":593,"x_min":87,"x_max":494,"o":"m 494 1014 q 438 882 494 932 q 291 832 382 832 q 144 882 200 832 q 87 1014 87 932 l 190 1014 q 216 940 190 966 q 291 913 241 913 q 365 939 338 913 q 392 1014 392 966 l 494 1014 z "},"˙":{"ha":337,"x_min":96,"x_max":244,"o":"m 96 927 q 114 979 96 958 q 170 1000 133 1000 q 225 979 206 1000 q 244 927 244 958 q 225 876 244 897 q 170 856 206 856 q 114 876 133 856 q 96 927 96 897 z "},"˚":{"ha":465,"x_min":82,"x_max":374,"o":"m 374 955 q 332 856 374 896 q 228 817 290 817 q 124 857 165 817 q 82 955 82 897 q 124 1055 82 1013 q 228 1096 165 1096 q 332 1055 290 1096 q 374 955 374 1013 m 149 955 q 172 900 149 923 q 228 877 195 877 q 283 899 260 877 q 307 955 307 922 q 284 1011 307 988 q 228 1035 261 1035 q 172 1011 194 1035 q 149 955 149 987 z "},"˛":{"ha":376,"x_min":34,"x_max":273,"o":"m 259 0 l 220 -31 q 143 -151 143 -92 q 196 -199 143 -199 q 264 -182 229 -199 l 273 -264 q 164 -294 225 -294 q 69 -258 104 -294 q 34 -165 34 -223 q 79 -52 34 -104 q 208 38 125 0 l 259 0 z "},"˜":{"ha":655,"x_min":83,"x_max":563,"o":"m 563 1017 q 521 899 563 944 q 417 853 479 853 q 369 860 389 853 q 316 888 349 867 q 268 913 283 909 q 235 918 254 918 q 187 896 207 918 q 168 842 168 875 l 83 846 q 124 966 83 919 q 229 1014 165 1014 q 271 1007 252 1014 q 323 981 290 1000 q 373 955 355 961 q 411 949 390 949 q 459 972 440 949 q 479 1025 479 995 l 563 1017 z "},"˝":{"ha":518,"x_min":64,"x_max":551,"o":"m 410 1041 l 551 1041 l 368 836 l 254 836 l 410 1041 m 180 1041 l 313 1041 l 165 836 l 64 836 l 180 1041 z "},"˳":{"ha":408,"x_min":85,"x_max":318,"o":"m 85 -164 q 119 -84 85 -117 q 203 -51 153 -51 q 285 -83 252 -51 q 318 -164 318 -116 q 286 -243 318 -212 q 203 -275 253 -275 q 119 -243 152 -275 q 85 -164 85 -211 m 144 -164 q 162 -204 144 -188 q 203 -220 180 -220 q 243 -204 227 -220 q 260 -164 260 -188 q 243 -123 260 -140 q 203 -106 227 -106 q 161 -123 178 -106 q 144 -164 144 -141 z "},"̀":{"ha":0,"x_min":-581,"x_max":-298,"o":"m -298 841 l -406 841 l -581 1040 l -429 1040 l -298 841 z "},"́":{"ha":0,"x_min":-446,"x_max":-163,"o":"m -315 1040 l -163 1040 l -345 841 l -446 841 l -315 1040 z "},"̃":{"ha":0,"x_min":-600,"x_max":-121,"o":"m -121 1017 q -162 899 -121 944 q -267 853 -204 853 q -315 860 -294 853 q -368 888 -335 867 q -415 913 -401 909 q -449 918 -430 918 q -496 896 -477 918 q -516 842 -516 875 l -600 846 q -559 966 -600 919 q -455 1014 -518 1014 q -412 1007 -431 1014 q -361 981 -393 1000 q -311 955 -328 961 q -273 949 -294 949 q -224 972 -243 949 q -205 1025 -205 995 l -121 1017 z "},"̉":{"ha":0,"x_min":-457,"x_max":-247,"o":"m -442 842 l -443 945 q -368 959 -392 949 q -345 996 -345 969 q -375 1035 -345 1022 q -457 1048 -406 1048 l -452 1120 q -299 1085 -351 1120 q -247 993 -247 1050 q -273 924 -247 951 q -352 890 -300 897 l -353 842 l -442 842 z "},"̏":{"ha":0,"x_min":-668,"x_max":-169,"o":"m -346 849 l -460 849 l -668 1029 l -515 1029 l -346 849 m -169 849 l -271 849 l -437 1029 l -298 1029 l -169 849 z "},"̣":{"ha":336,"x_min":-483,"x_max":-334,"o":"m -483 -166 q -464 -115 -483 -136 q -409 -94 -446 -94 q -353 -115 -372 -94 q -334 -166 -334 -136 q -353 -217 -334 -197 q -409 -237 -372 -237 q -464 -217 -446 -237 q -483 -166 -483 -197 z "},"΄":{"ha":356,"x_min":124,"x_max":279,"o":"m 161 1084 l 279 1084 l 200 856 l 124 856 l 161 1084 z "},"΅":{"ha":702,"x_min":77,"x_max":610,"o":"m 326 1134 l 454 1134 l 385 955 l 294 955 l 326 1134 m 77 930 q 95 981 77 960 q 151 1002 114 1002 q 206 981 187 1002 q 225 930 225 960 q 206 879 225 899 q 151 859 187 859 q 95 879 114 859 q 77 930 77 899 m 461 928 q 480 980 461 959 q 535 1001 498 1001 q 591 980 572 1001 q 610 928 610 959 q 591 878 610 898 q 535 857 572 857 q 480 878 498 857 q 461 928 461 898 z "},"·":{"ha":363,"x_min":100,"x_max":256,"o":"m 100 494 q 119 549 100 527 q 177 570 138 570 q 236 549 216 570 q 256 494 256 527 q 236 441 256 463 q 177 420 216 420 q 119 441 138 420 q 100 494 100 463 z "},"Γ":{"ha":772,"x_min":120,"x_max":727,"o":"m 727 880 l 251 880 l 251 0 l 120 0 l 120 987 l 727 987 l 727 880 z "},"Δ":{"ha":979,"x_min":21,"x_max":946,"o":"m 438 987 l 553 987 l 946 0 l 21 0 l 438 987 m 199 106 l 771 106 l 494 828 l 199 106 z "},"Θ":{"ha":945,"x_min":70,"x_max":864,"o":"m 651 447 l 300 447 l 300 550 l 651 550 l 651 447 m 864 462 q 815 210 864 317 q 677 44 767 102 q 468 -14 588 -14 q 261 44 351 -14 q 121 207 171 101 q 70 453 71 313 l 70 524 q 119 776 70 667 q 259 943 169 885 q 467 1001 350 1001 q 675 944 585 1001 q 813 780 764 887 q 864 533 863 673 l 864 462 m 734 526 q 664 795 734 701 q 467 889 593 889 q 272 795 343 889 q 199 534 201 701 l 199 462 q 270 195 199 292 q 468 97 341 97 q 663 189 594 97 q 734 452 732 281 l 734 526 z "},"Λ":{"ha":910,"x_min":34,"x_max":870,"o":"m 452 787 l 174 0 l 34 0 l 393 987 l 510 987 l 870 0 l 730 0 l 452 787 z "},"Ξ":{"ha":793,"x_min":81,"x_max":717,"o":"m 81 106 l 717 106 l 717 0 l 81 0 l 81 106 m 140 564 l 652 564 l 652 457 l 140 457 l 140 564 m 84 987 l 705 987 l 705 880 l 84 880 l 84 987 z "},"Π":{"ha":991,"x_min":121,"x_max":869,"o":"m 869 0 l 738 0 l 738 880 l 251 880 l 251 0 l 121 0 l 121 987 l 869 987 l 869 0 z "},"Σ":{"ha":793,"x_min":47,"x_max":741,"o":"m 511 487 l 210 106 l 741 106 l 741 0 l 47 0 l 47 97 l 373 494 l 47 890 l 47 987 l 707 987 l 707 880 l 211 880 l 511 503 l 511 487 z "},"Φ":{"ha":995,"x_min":52,"x_max":947,"o":"m 566 862 q 762 814 674 862 q 898 682 850 767 q 947 491 947 596 q 897 299 947 385 q 761 166 848 213 q 566 119 674 119 l 566 0 l 434 0 l 434 119 q 237 166 324 119 q 101 299 149 214 q 52 490 52 384 q 101 681 52 595 q 237 814 151 767 q 434 862 323 862 l 434 987 l 566 987 l 566 862 m 434 227 l 434 754 l 431 754 q 248 683 314 754 q 182 490 182 612 q 248 297 182 368 q 434 227 313 227 m 566 754 l 566 227 l 568 227 q 751 297 685 227 q 817 491 817 368 q 751 683 817 612 q 566 754 685 754 z "},"Ψ":{"ha":961,"x_min":61,"x_max":890,"o":"m 536 355 q 701 443 642 370 q 760 631 760 516 l 760 987 l 890 987 l 890 629 q 847 438 890 522 q 724 306 804 355 q 536 245 644 256 l 536 0 l 405 0 l 405 245 q 156 362 248 261 q 61 624 63 463 l 61 987 l 191 987 l 191 629 q 248 445 192 518 q 405 355 304 372 l 405 987 l 536 987 l 536 355 z "},"Ω":{"ha":924,"x_min":77,"x_max":832,"o":"m 500 110 q 646 224 593 128 q 700 479 698 321 l 700 570 q 634 810 700 727 q 454 894 568 894 q 274 809 339 894 q 209 569 209 724 l 209 492 q 262 229 209 330 q 414 110 315 129 l 414 0 l 80 0 l 80 106 l 230 106 q 117 280 158 176 q 77 494 77 384 l 77 569 q 124 794 77 695 q 258 947 172 893 q 454 1001 345 1001 q 648 948 562 1001 q 782 799 734 895 q 832 581 830 703 l 832 492 q 791 280 832 384 q 679 106 751 176 l 828 106 l 828 0 l 500 0 l 500 110 z "},"α":{"ha":785,"x_min":68,"x_max":775,"o":"m 682 734 l 682 193 q 736 98 684 98 q 760 102 749 98 l 775 9 q 692 -14 743 -14 q 567 98 593 -14 q 353 -14 494 -14 q 145 82 222 -14 q 68 343 68 178 l 68 353 q 144 640 68 532 q 354 747 221 747 q 564 638 492 747 l 576 734 l 682 734 m 193 339 q 243 154 193 220 q 384 88 292 88 q 557 214 501 88 l 557 517 q 385 644 499 644 q 244 567 294 644 q 193 339 193 490 z "},"β":{"ha":823,"x_min":109,"x_max":747,"o":"m 410 1001 q 621 927 541 1001 q 701 734 701 852 q 667 621 701 673 q 574 538 634 570 q 702 442 658 508 q 747 288 747 376 q 662 67 747 149 q 439 -14 578 -14 q 235 51 316 -14 l 235 -260 l 109 -260 l 109 728 q 150 865 109 801 q 261 965 191 928 q 410 1001 332 1001 m 575 737 q 529 852 575 806 q 410 898 483 898 q 286 850 337 898 q 235 729 235 802 l 235 167 q 313 110 264 132 q 426 89 362 89 q 569 143 517 89 q 621 285 621 197 q 574 421 621 365 q 452 479 526 477 l 351 479 l 351 582 l 408 582 q 532 622 490 582 q 575 737 575 663 z "},"γ":{"ha":696,"x_min":31,"x_max":672,"o":"m 354 187 l 544 734 l 672 734 l 415 39 l 415 -282 l 289 -282 l 289 43 l 31 734 l 159 734 l 354 187 z "},"δ":{"ha":787,"x_min":65,"x_max":721,"o":"m 150 861 q 219 1007 150 953 q 406 1061 288 1061 q 591 1023 500 1061 l 590 915 q 404 955 488 955 q 311 930 345 955 q 277 864 277 906 q 427 739 277 791 q 647 596 577 687 q 721 372 718 505 l 721 345 q 681 159 721 241 q 567 32 641 77 q 394 -14 492 -14 q 154 86 243 -14 q 65 351 65 186 l 65 359 q 129 561 65 471 q 290 674 193 650 l 290 677 q 186 751 222 704 q 150 861 150 799 m 192 345 q 247 157 192 226 q 394 88 301 88 q 541 157 486 88 q 595 359 595 225 q 537 526 595 452 q 395 617 480 600 q 248 548 303 617 q 192 345 192 478 z "},"ε":{"ha":749,"x_min":67,"x_max":681,"o":"m 194 206 q 244 121 194 154 q 374 87 294 87 q 503 125 450 87 q 555 217 555 162 l 681 217 q 594 49 681 112 q 374 -14 508 -14 q 151 46 235 -14 q 67 206 67 106 q 206 377 67 332 q 113 443 146 401 q 80 534 80 484 q 158 690 80 634 q 374 747 237 747 q 584 686 500 747 q 669 529 669 625 l 543 529 q 495 611 543 576 q 374 645 446 645 q 252 614 298 645 q 206 533 206 583 q 372 425 206 425 l 505 425 l 505 324 l 353 324 q 194 206 194 320 z "},"ζ":{"ha":720,"x_min":74,"x_max":653,"o":"m 653 987 l 653 906 l 416 616 q 288 430 322 507 q 253 262 253 352 q 276 168 253 201 q 354 118 298 135 l 522 69 q 601 23 576 53 q 625 -60 625 -7 q 587 -165 623 -106 q 505 -260 550 -223 l 438 -203 q 487 -138 470 -167 q 505 -79 505 -109 q 400 -6 505 -33 q 259 37 296 20 q 158 119 189 67 q 127 258 127 171 q 177 455 127 347 q 313 665 227 564 l 506 884 l 74 884 l 74 987 l 653 987 z "},"η":{"ha":787,"x_min":98,"x_max":684,"o":"m 212 734 l 219 642 q 436 747 300 747 q 624 681 565 747 q 684 475 683 614 l 684 -281 l 558 -281 l 558 468 q 522 602 558 560 q 398 644 485 644 q 292 615 336 644 q 224 532 248 585 l 224 0 l 98 0 l 98 734 l 212 734 z "},"θ":{"ha":791,"x_min":83,"x_max":707,"o":"m 707 434 q 627 101 707 216 q 395 -14 547 -14 q 166 99 247 -14 q 83 420 85 212 l 83 559 q 163 888 83 774 q 394 1001 243 1001 q 624 891 545 1001 q 707 573 704 781 l 707 434 m 208 543 l 581 543 l 581 581 q 533 816 581 734 q 394 898 486 898 q 256 816 303 898 q 208 581 208 734 l 208 543 m 581 440 l 208 440 l 208 414 q 258 174 208 258 q 395 89 307 89 q 531 170 484 89 q 581 406 579 252 l 581 440 z "},"ι":{"ha":450,"x_min":132,"x_max":398,"o":"m 258 734 l 258 185 q 276 121 258 142 q 338 99 295 99 q 397 107 371 99 l 398 5 q 301 -8 351 -8 q 132 191 132 -8 l 132 734 l 258 734 z "},"λ":{"ha":769,"x_min":25,"x_max":734,"o":"m 177 1029 q 284 1002 243 1029 q 347 911 325 975 l 637 159 q 666 111 650 124 q 705 98 681 98 l 730 100 l 734 -3 q 682 -12 710 -12 q 603 1 629 -12 q 555 43 576 14 q 515 126 534 72 l 359 528 l 165 0 l 25 0 l 292 698 l 227 857 q 194 911 212 895 q 145 926 176 926 l 113 925 l 113 1021 q 177 1029 141 1029 z "},"ξ":{"ha":681,"x_min":68,"x_max":635,"o":"m 598 873 q 443 898 509 898 q 293 863 347 898 q 239 770 239 828 q 465 622 239 622 l 555 622 l 555 519 l 453 519 q 262 465 330 517 q 195 301 195 412 q 243 172 195 225 q 384 97 292 119 q 518 62 476 75 q 582 36 560 50 q 635 -68 635 3 q 600 -169 635 -112 q 516 -267 565 -225 l 444 -210 l 482 -166 q 515 -83 515 -125 q 490 -41 515 -57 q 386 -8 464 -26 q 251 31 308 9 q 153 89 193 54 q 91 177 113 125 q 68 304 68 229 q 124 471 68 402 q 281 571 180 540 q 157 651 201 600 q 113 768 113 703 q 200 938 113 876 q 442 1001 288 1001 q 616 975 541 1001 l 598 873 z "},"π":{"ha":827,"x_min":28,"x_max":806,"o":"m 771 630 l 665 630 l 665 186 q 684 121 665 143 q 746 99 702 99 q 805 107 779 99 l 806 5 q 709 -8 758 -8 q 540 191 540 -8 l 540 630 l 268 630 l 268 0 l 142 0 l 142 630 l 28 630 l 28 734 l 771 734 l 771 630 z "},"ρ":{"ha":787,"x_min":98,"x_max":715,"o":"m 401 747 q 625 652 542 747 q 715 384 707 556 l 715 339 q 640 81 715 176 q 434 -14 564 -14 q 224 71 302 -14 l 224 -282 l 98 -282 l 98 393 q 137 581 98 500 q 244 704 175 661 q 401 747 314 747 m 224 189 q 397 89 281 89 q 539 155 488 89 q 590 353 590 221 q 541 568 590 492 q 401 644 492 644 q 273 571 322 644 q 224 383 224 498 l 224 189 z "},"ς":{"ha":747,"x_min":68,"x_max":673,"o":"m 389 747 q 595 675 517 747 q 673 481 673 603 l 555 481 q 509 600 555 555 q 389 644 464 644 q 247 570 299 644 q 194 374 194 496 l 194 353 q 411 109 194 176 l 502 83 q 595 31 568 64 q 623 -56 623 -1 q 588 -155 621 -98 q 504 -254 554 -212 l 437 -196 l 469 -159 q 503 -71 503 -119 q 479 -27 503 -42 q 397 0 455 -13 q 153 122 237 35 q 68 353 68 210 l 68 381 q 109 569 68 484 q 222 701 149 654 q 389 747 295 747 z "},"σ":{"ha":787,"x_min":65,"x_max":778,"o":"m 778 630 l 585 630 q 721 345 721 530 l 721 333 q 680 158 721 238 q 563 33 638 79 q 393 -14 488 -14 q 155 89 245 -14 q 65 365 65 192 l 65 374 q 105 559 65 477 q 219 687 145 641 q 387 734 292 733 l 778 734 l 778 630 m 191 359 q 245 162 191 235 q 393 89 300 89 q 542 162 488 89 q 595 374 595 236 q 541 560 595 490 q 392 630 486 630 q 245 561 299 630 q 191 359 191 492 z "},"τ":{"ha":724,"x_min":55,"x_max":668,"o":"m 668 632 l 416 632 l 416 182 q 488 92 416 92 q 550 110 517 92 l 578 22 q 455 -14 527 -14 q 331 36 370 -14 q 290 185 291 86 l 290 632 l 55 632 l 55 734 l 668 734 l 668 632 z "},"υ":{"ha":758,"x_min":97,"x_max":688,"o":"m 223 734 l 223 295 q 359 88 223 88 q 505 173 447 88 q 562 381 562 258 q 479 734 559 538 l 611 734 q 688 381 688 570 q 601 95 688 203 q 366 -14 513 -14 q 166 62 234 -14 q 97 284 98 138 l 97 734 l 223 734 z "},"φ":{"ha":979,"x_min":59,"x_max":920,"o":"m 420 -12 q 153 108 247 4 q 59 382 59 212 q 103 586 59 496 q 233 734 146 675 l 301 644 q 185 382 192 549 q 247 188 185 265 q 420 92 308 110 l 420 578 q 467 691 420 649 q 591 734 514 734 q 755 686 679 734 q 876 554 831 638 q 920 369 920 470 q 821 103 920 204 q 546 -12 723 3 l 546 -324 l 420 -324 l 420 -12 m 546 92 q 728 182 661 107 q 794 369 794 258 q 735 557 791 484 q 591 630 679 630 q 546 574 546 630 l 546 92 z "},"ψ":{"ha":972,"x_min":64,"x_max":913,"o":"m 540 734 l 540 92 q 722 186 656 109 q 788 385 788 264 q 702 734 785 542 l 833 734 q 913 385 913 574 q 817 106 913 209 q 540 -12 720 3 l 540 -320 l 414 -320 l 414 -10 q 153 113 241 7 q 64 404 64 218 l 64 734 l 191 734 l 191 396 q 248 187 192 264 q 414 93 304 110 l 414 734 l 540 734 z "},"ω":{"ha":1144,"x_min":83,"x_max":1059,"o":"m 307 734 q 208 380 213 542 q 247 165 208 242 q 357 88 286 88 q 469 147 431 88 q 507 318 507 205 l 507 522 l 634 522 l 634 315 q 673 146 635 203 q 784 88 711 88 q 895 165 856 88 q 933 380 933 241 q 835 734 928 542 l 967 734 q 1059 380 1059 568 q 988 90 1059 193 q 791 -14 918 -14 q 570 148 628 -14 q 487 27 543 68 q 351 -14 431 -14 q 153 90 223 -14 q 83 380 83 193 q 174 734 83 574 l 307 734 z "},"ϑ":{"ha":804,"x_min":82,"x_max":777,"o":"m 777 425 q 680 404 736 410 l 680 291 q 601 67 678 148 q 387 -14 523 -14 q 166 70 250 -14 q 82 300 82 154 l 82 522 l 208 523 l 208 295 q 256 145 208 198 q 387 93 303 93 q 510 142 466 93 q 554 295 554 192 l 554 408 q 316 524 407 429 q 224 767 224 620 q 287 939 224 876 q 451 1002 349 1002 q 619 936 559 1002 q 680 748 680 869 l 680 510 q 771 526 722 513 l 777 425 m 351 755 q 406 601 351 665 q 554 517 460 537 l 554 761 q 451 895 551 895 q 351 762 351 895 l 351 755 z "},"ϒ":{"ha":739,"x_min":-26,"x_max":769,"o":"m 372 525 l 524 869 q 590 966 553 936 q 685 996 626 996 q 769 977 734 996 l 745 875 q 709 880 736 880 q 637 827 662 880 l 436 387 l 436 0 l 307 0 l 307 388 l 106 827 q 34 880 79 880 q -1 875 7 880 l -26 977 q 58 996 9 996 q 154 967 117 996 q 218 876 190 939 l 372 525 z "},"ϖ":{"ha":1090,"x_min":50,"x_max":1060,"o":"m 1060 630 l 968 630 q 1011 380 1011 513 q 947 91 1011 195 q 768 -14 884 -14 q 548 149 604 -14 q 329 -14 492 -14 q 150 90 214 -14 q 85 380 85 193 q 129 630 85 509 l 50 630 l 50 734 l 1060 734 l 1060 630 m 885 380 q 832 630 882 495 l 264 630 q 211 380 214 494 q 243 165 211 242 q 336 88 276 88 q 445 145 407 88 q 485 311 484 201 l 485 490 l 612 490 l 612 311 q 651 145 613 201 q 762 88 690 88 q 852 165 820 88 q 885 380 885 241 z "},"Ђ":{"ha":1041,"x_min":28,"x_max":988,"o":"m 795 880 l 441 880 l 441 572 q 637 604 547 604 q 895 523 802 604 q 988 294 988 441 q 900 70 988 146 q 651 -7 812 -7 l 650 94 q 806 143 755 94 q 858 293 858 193 q 801 440 857 389 q 636 491 746 491 q 441 460 534 491 l 441 0 l 310 0 l 310 880 l 28 880 l 28 987 l 795 987 l 795 880 z "},"Є":{"ha":936,"x_min":83,"x_max":844,"o":"m 844 313 q 728 72 825 157 q 469 -14 631 -14 q 189 112 294 -14 q 83 448 83 237 l 83 542 q 132 783 83 678 q 271 944 180 888 q 481 1001 361 1001 q 733 913 638 1001 q 844 670 828 825 l 713 670 q 640 840 696 787 q 481 894 583 894 q 286 802 355 894 q 214 551 216 710 l 601 551 l 601 445 l 214 445 l 214 444 q 281 188 214 283 q 469 93 349 93 q 636 142 578 93 q 713 313 694 191 l 844 313 z "},"Љ":{"ha":1487,"x_min":33,"x_max":1429,"o":"m 856 987 l 856 604 l 1101 604 q 1340 521 1251 602 q 1429 302 1429 439 q 1341 85 1429 168 q 1103 0 1254 3 l 726 0 l 726 880 l 378 880 l 361 489 q 320 193 351 292 q 232 48 290 94 q 76 0 174 1 l 33 0 l 33 106 l 60 108 q 157 149 123 113 q 209 264 191 185 q 234 509 227 344 l 254 987 l 856 987 m 856 497 l 856 106 l 1094 106 q 1244 160 1189 106 q 1299 303 1299 214 q 1245 443 1299 390 q 1099 497 1192 496 l 856 497 z "},"Њ":{"ha":1500,"x_min":120,"x_max":1441,"o":"m 251 559 l 738 559 l 738 987 l 868 987 l 868 574 l 1114 574 q 1354 495 1267 572 q 1441 290 1441 418 q 1354 82 1441 161 q 1116 0 1267 3 l 738 0 l 738 453 l 251 453 l 251 0 l 120 0 l 120 987 l 251 987 l 251 559 m 868 467 l 868 113 l 1106 113 q 1257 161 1202 113 q 1311 292 1311 209 q 1259 418 1311 370 q 1114 467 1208 465 l 868 467 z "},"Ћ":{"ha":1130,"x_min":42,"x_max":1012,"o":"m 807 880 l 449 880 l 449 587 q 676 614 557 614 q 928 541 846 614 q 1012 317 1010 467 l 1012 0 l 881 0 l 881 313 q 834 462 880 416 q 676 507 787 507 q 449 479 562 507 l 449 0 l 319 0 l 319 880 l 42 880 l 42 987 l 807 987 l 807 880 z "},"Џ":{"ha":990,"x_min":119,"x_max":867,"o":"m 119 987 l 250 987 l 250 106 l 737 106 l 737 987 l 867 987 l 867 0 l 564 0 l 564 -243 l 433 -243 l 433 0 l 119 0 l 119 987 z "},"Б":{"ha":876,"x_min":110,"x_max":814,"o":"m 717 880 l 241 880 l 241 585 l 486 585 q 728 505 641 583 q 814 295 814 428 q 727 82 814 161 q 488 0 640 3 l 110 0 l 110 987 l 717 987 l 717 880 m 241 477 l 241 106 l 479 106 q 630 158 576 106 q 684 296 684 210 q 632 428 684 380 q 484 477 580 476 l 241 477 z "},"Д":{"ha":1044,"x_min":34,"x_max":1004,"o":"m 1003 -242 l 873 -242 l 873 0 l 165 0 l 165 -243 l 35 -243 l 34 106 l 115 106 q 216 299 178 178 q 263 565 254 420 l 285 987 l 876 987 l 876 106 l 1004 106 l 1003 -242 m 263 106 l 745 106 l 745 880 l 410 880 l 396 590 q 351 300 387 420 q 263 106 315 180 z "},"Ж":{"ha":1261,"x_min":18,"x_max":1251,"o":"m 808 450 l 703 450 l 703 0 l 572 0 l 572 450 l 460 450 l 181 0 l 18 0 l 351 521 l 44 987 l 198 987 l 460 559 l 572 559 l 572 987 l 703 987 l 703 559 l 810 559 l 1072 987 l 1225 987 l 919 522 l 1251 0 l 1089 0 l 808 450 z "},"З":{"ha":824,"x_min":54,"x_max":766,"o":"m 621 722 q 564 847 621 801 q 403 894 507 894 q 257 846 316 894 q 199 728 199 798 l 68 728 q 112 869 68 806 q 232 966 155 931 q 403 1001 309 1001 q 660 927 568 1001 q 751 720 751 852 q 709 595 751 652 q 592 507 667 539 q 766 275 766 448 q 667 64 766 142 q 403 -14 568 -14 q 224 21 304 -14 q 99 121 144 56 q 54 274 54 185 l 184 274 q 246 144 184 196 q 403 92 308 92 q 573 142 509 92 q 636 273 636 191 q 421 450 636 446 l 299 450 l 299 557 l 420 557 q 570 602 519 559 q 621 722 621 644 z "},"И":{"ha":990,"x_min":120,"x_max":867,"o":"m 737 987 l 867 987 l 867 0 l 737 0 l 737 761 l 251 0 l 120 0 l 120 987 l 251 987 l 251 227 l 737 987 z "},"Л":{"ha":983,"x_min":32,"x_max":861,"o":"m 861 987 l 861 0 l 731 0 l 731 880 l 377 880 l 359 489 q 319 193 349 292 q 231 48 289 94 q 75 0 172 1 l 32 0 l 32 106 l 59 108 q 156 149 122 113 q 208 264 190 185 q 233 509 225 344 l 253 987 l 861 987 z "},"У":{"ha":873,"x_min":52,"x_max":832,"o":"m 454 414 l 681 987 l 832 987 l 483 165 q 417 53 448 86 q 346 3 387 20 q 243 -14 304 -14 q 174 -8 189 -14 l 178 95 l 240 92 q 346 161 311 92 l 363 196 l 389 256 l 52 987 l 198 987 l 454 414 z "},"Ф":{"ha":1072,"x_min":56,"x_max":1022,"o":"m 602 888 l 623 888 q 827 836 735 888 q 971 694 920 785 q 1022 492 1022 604 q 970 288 1022 379 q 828 145 919 196 q 626 92 737 94 l 602 92 l 602 -41 l 476 -41 l 476 92 l 457 92 q 251 144 344 92 q 107 286 159 195 q 56 490 56 377 q 107 694 56 604 q 251 837 159 785 q 457 888 344 888 l 476 888 l 476 1028 l 602 1028 l 602 888 m 457 786 q 255 708 330 786 q 181 490 181 629 q 255 273 181 351 q 458 195 329 195 l 476 195 l 476 786 l 457 786 m 602 786 l 602 195 l 621 195 q 824 275 751 195 q 897 492 897 355 q 824 707 897 627 q 618 786 751 786 l 602 786 z "},"Ц":{"ha":1015,"x_min":119,"x_max":970,"o":"m 119 987 l 250 987 l 250 106 l 736 106 l 736 987 l 867 987 l 867 109 l 970 109 l 958 -238 l 841 -238 l 841 0 l 119 0 l 119 987 z "},"Ч":{"ha":951,"x_min":102,"x_max":830,"o":"m 830 987 l 830 0 l 699 0 l 699 409 q 570 381 628 389 q 437 373 511 373 q 186 446 268 373 q 102 671 104 519 l 102 987 l 233 987 l 233 674 q 280 526 233 571 q 437 480 326 480 q 699 517 566 480 l 699 987 l 830 987 z "},"Ш":{"ha":1307,"x_min":119,"x_max":1187,"o":"m 250 987 l 250 106 l 590 106 l 590 987 l 720 987 l 720 106 l 1057 106 l 1057 987 l 1187 987 l 1187 0 l 119 0 l 119 987 l 250 987 z "},"Щ":{"ha":1345,"x_min":119,"x_max":1287,"o":"m 250 987 l 250 106 l 590 106 l 590 987 l 720 987 l 720 106 l 1057 106 l 1057 987 l 1187 987 l 1187 102 l 1287 102 l 1275 -238 l 1163 -238 l 1163 0 l 119 0 l 119 987 l 250 987 z "},"Ъ":{"ha":1054,"x_min":11,"x_max":993,"o":"m 11 987 l 420 987 l 420 585 l 654 585 q 905 507 817 585 q 993 295 993 429 q 905 82 993 161 q 665 0 818 2 l 289 0 l 289 884 l 11 884 l 11 987 m 420 477 l 420 106 l 658 106 q 808 158 754 106 q 862 296 862 210 q 810 428 862 380 q 663 477 758 476 l 420 477 z "},"Ы":{"ha":1201,"x_min":121,"x_max":1074,"o":"m 251 585 l 496 585 q 738 505 651 583 q 825 295 825 428 q 737 82 825 161 q 498 0 650 3 l 121 0 l 121 987 l 251 987 l 251 585 m 251 477 l 251 106 l 489 106 q 640 158 586 106 q 694 296 694 210 q 642 428 694 380 q 494 477 590 476 l 251 477 m 1074 0 l 944 0 l 944 987 l 1074 987 l 1074 0 z "},"Ь":{"ha":871,"x_min":111,"x_max":814,"o":"m 241 585 l 486 585 q 728 505 641 583 q 814 295 814 428 q 727 82 814 161 q 488 0 640 3 l 111 0 l 111 987 l 241 987 l 241 585 m 241 477 l 241 106 l 479 106 q 630 158 576 106 q 684 296 684 210 q 632 428 684 380 q 484 477 580 476 l 241 477 z "},"Э":{"ha":936,"x_min":100,"x_max":860,"o":"m 231 313 q 308 142 250 191 q 474 93 366 93 q 660 184 591 93 q 729 439 728 276 l 340 439 l 340 546 l 729 546 q 659 800 729 707 q 463 894 589 894 q 304 841 361 894 q 231 670 248 788 l 100 670 q 210 913 115 825 q 463 1001 305 1001 q 672 944 582 1001 q 811 783 763 888 q 860 542 860 678 l 860 444 q 812 203 860 307 q 676 42 764 98 q 474 -14 588 -14 q 215 72 313 -14 q 100 313 118 157 l 231 313 z "},"Ю":{"ha":1242,"x_min":124,"x_max":1190,"o":"m 1190 462 q 1141 209 1190 317 q 1002 43 1092 100 q 793 -14 913 -14 q 592 41 681 -14 q 452 196 503 95 q 396 432 401 297 l 254 432 l 254 0 l 124 0 l 124 987 l 254 987 l 254 534 l 395 534 q 446 780 397 674 q 585 943 495 885 q 792 1001 675 1001 q 1001 944 911 1001 q 1141 778 1092 886 q 1190 524 1190 669 l 1190 462 m 1060 526 q 989 795 1060 701 q 792 889 919 889 q 598 795 669 889 q 525 534 527 701 l 525 462 q 596 194 525 292 q 793 97 668 97 q 989 189 920 97 q 1060 452 1058 281 l 1060 526 z "},"Я":{"ha":884,"x_min":60,"x_max":762,"o":"m 631 0 l 631 385 l 404 385 l 199 0 l 60 0 l 290 420 q 98 690 98 496 q 191 909 98 831 q 448 987 283 987 l 762 987 l 762 0 l 631 0 m 229 690 q 284 546 229 600 q 440 491 340 492 l 631 491 l 631 880 l 446 880 q 284 830 340 880 q 229 690 229 780 z "},"б":{"ha":768,"x_min":66,"x_max":722,"o":"m 417 692 q 638 599 555 692 q 722 355 722 507 l 722 344 q 682 158 722 240 q 567 32 642 77 q 394 -14 492 -14 q 156 85 246 -14 q 66 350 66 184 l 66 411 q 152 779 66 642 q 405 945 237 915 q 533 986 500 962 q 566 1053 566 1010 l 669 1053 q 631 921 669 968 q 509 854 593 873 l 415 833 q 247 744 303 806 q 174 576 191 681 q 417 692 274 692 m 393 589 q 246 527 300 589 q 192 355 192 465 l 192 344 q 247 157 192 226 q 394 88 301 88 q 542 157 488 88 q 596 359 596 227 q 542 526 596 463 q 393 589 487 589 z "},"в":{"ha":793,"x_min":106,"x_max":722,"o":"m 106 0 l 106 734 l 393 734 q 617 683 539 734 q 696 532 696 631 q 665 440 696 481 q 575 378 635 399 q 682 317 642 362 q 722 208 722 271 q 648 54 722 107 q 438 0 574 0 l 106 0 m 232 322 l 232 101 l 439 101 q 557 130 518 101 q 596 212 596 159 q 435 322 596 322 l 232 322 m 232 422 l 394 422 q 570 526 570 422 q 404 632 570 629 l 232 632 l 232 422 z "},"г":{"ha":583,"x_min":104,"x_max":569,"o":"m 569 630 l 231 630 l 231 0 l 104 0 l 104 734 l 569 734 l 569 630 z "},"д":{"ha":838,"x_min":31,"x_max":794,"o":"m 89 102 l 132 156 q 216 441 205 251 l 227 734 l 700 734 l 700 102 l 794 102 l 794 -216 l 669 -216 l 669 0 l 157 0 l 157 -216 l 31 -216 l 32 102 l 89 102 m 237 102 l 574 102 l 574 618 l 349 618 l 341 443 q 237 102 330 224 z "},"ж":{"ha":1063,"x_min":14,"x_max":1044,"o":"m 680 319 l 592 319 l 592 0 l 467 0 l 467 319 l 378 319 l 173 0 l 14 0 l 277 380 l 39 734 l 191 734 l 380 430 l 467 430 l 467 734 l 592 734 l 592 430 l 677 430 l 868 734 l 1020 734 l 782 379 l 1044 0 l 886 0 l 680 319 z "},"з":{"ha":705,"x_min":60,"x_max":637,"o":"m 498 533 q 459 615 498 585 q 351 645 420 645 q 240 610 285 645 q 196 529 196 576 l 71 529 q 151 686 71 625 q 351 747 231 747 q 552 691 480 747 q 624 534 624 636 q 594 443 624 484 q 509 377 564 401 q 637 206 637 334 q 559 46 637 105 q 351 -13 481 -13 q 142 49 224 -13 q 60 217 60 111 l 184 217 q 232 125 184 163 q 351 87 280 87 q 467 120 423 87 q 511 206 511 153 q 474 295 511 268 q 359 321 437 321 l 234 321 l 234 427 l 370 427 q 498 533 498 431 z "},"и":{"ha":802,"x_min":106,"x_max":695,"o":"m 570 734 l 695 734 l 695 0 l 570 0 l 570 535 l 231 0 l 106 0 l 106 734 l 231 734 l 231 198 l 570 734 z "},"к":{"ha":750,"x_min":106,"x_max":737,"o":"m 323 313 l 232 313 l 232 0 l 106 0 l 106 734 l 232 734 l 232 423 l 314 423 l 561 734 l 713 734 l 422 381 l 737 0 l 578 0 l 323 313 z "},"л":{"ha":803,"x_min":30,"x_max":696,"o":"m 696 734 l 696 0 l 570 0 l 570 630 l 321 630 l 306 355 q 242 85 294 166 q 80 0 191 3 l 30 0 l 30 111 l 66 113 q 153 184 127 120 q 187 420 180 248 l 201 734 l 696 734 z "},"м":{"ha":1030,"x_min":106,"x_max":924,"o":"m 517 166 l 767 734 l 924 734 l 924 0 l 798 0 l 798 534 l 561 0 l 474 0 l 232 545 l 232 0 l 106 0 l 106 734 l 269 734 l 517 166 z "},"н":{"ha":801,"x_min":106,"x_max":694,"o":"m 694 0 l 569 0 l 569 313 l 232 313 l 232 0 l 106 0 l 106 734 l 232 734 l 232 416 l 569 416 l 569 734 l 694 734 l 694 0 z "},"п":{"ha":802,"x_min":106,"x_max":695,"o":"m 695 0 l 570 0 l 570 630 l 232 630 l 232 0 l 106 0 l 106 734 l 695 734 l 695 0 z "},"т":{"ha":667,"x_min":27,"x_max":640,"o":"m 640 632 l 394 632 l 394 0 l 269 0 l 269 632 l 27 632 l 27 734 l 640 734 l 640 632 z "},"ф":{"ha":1007,"x_min":68,"x_max":939,"o":"m 68 353 q 139 642 68 537 q 334 747 210 747 q 435 728 392 747 l 435 1042 l 561 1042 l 561 724 q 672 747 608 747 q 868 642 797 747 q 939 339 939 537 q 868 81 939 177 q 673 -14 798 -14 q 561 7 608 -14 l 561 -282 l 435 -282 l 435 5 q 333 -14 391 -14 q 139 81 210 -14 q 68 343 68 177 l 68 353 m 814 353 q 766 568 814 492 q 635 644 719 644 q 561 631 593 644 l 561 100 q 637 88 591 88 q 767 153 721 88 q 814 353 814 218 m 193 339 q 237 152 193 216 q 364 88 281 88 q 435 100 404 88 l 435 633 q 366 644 407 644 q 238 570 283 644 q 193 339 193 496 z "},"ц":{"ha":823,"x_min":106,"x_max":783,"o":"m 106 734 l 232 734 l 232 102 l 570 102 l 570 734 l 695 734 l 695 102 l 783 102 l 770 -218 l 658 -218 l 658 0 l 106 0 l 106 734 z "},"ч":{"ha":755,"x_min":70,"x_max":649,"o":"m 649 0 l 523 0 l 523 266 q 353 244 440 244 q 143 315 216 244 q 70 515 71 385 l 70 734 l 195 734 l 195 511 q 353 347 199 347 q 523 369 440 347 l 523 734 l 649 734 l 649 0 z "},"ш":{"ha":1123,"x_min":106,"x_max":1020,"o":"m 232 734 l 232 102 l 500 102 l 500 734 l 626 734 l 626 102 l 894 102 l 894 734 l 1020 734 l 1020 0 l 106 0 l 106 734 l 232 734 z "},"щ":{"ha":1149,"x_min":98,"x_max":1116,"o":"m 224 734 l 224 102 l 493 102 l 493 734 l 618 734 l 618 102 l 886 102 l 886 734 l 1013 734 l 1013 102 l 1116 102 l 1103 -218 l 991 -218 l 991 0 l 98 0 l 98 734 l 224 734 z "},"ъ":{"ha":862,"x_min":20,"x_max":824,"o":"m 20 734 l 363 734 l 363 481 l 554 481 q 751 416 679 479 q 824 243 824 352 q 749 66 824 133 q 549 0 675 0 l 238 0 l 238 631 l 20 631 l 20 734 m 363 378 l 363 102 l 550 102 q 659 139 621 102 q 698 238 698 175 q 660 338 698 299 q 555 378 623 377 l 363 378 z "},"ы":{"ha":1078,"x_min":106,"x_max":954,"o":"m 232 481 l 422 481 q 620 416 547 479 q 692 243 692 352 q 618 66 692 133 q 417 0 543 0 l 106 0 l 106 734 l 232 734 l 232 481 m 954 0 l 828 0 l 828 734 l 954 734 l 954 0 m 232 378 l 232 102 l 418 102 q 528 139 489 102 q 566 238 566 175 q 529 338 566 299 q 423 378 491 377 l 232 378 z "},"ь":{"ha":754,"x_min":106,"x_max":692,"o":"m 232 481 l 422 481 q 620 416 547 479 q 692 243 692 352 q 618 66 692 133 q 417 0 543 0 l 106 0 l 106 734 l 232 734 l 232 481 m 232 378 l 232 102 l 418 102 q 528 139 489 102 q 566 238 566 175 q 529 338 566 299 q 423 378 491 377 l 232 378 z "},"э":{"ha":747,"x_min":68,"x_max":673,"o":"m 353 644 q 236 602 286 644 q 187 500 187 559 l 68 500 q 108 621 68 564 q 214 713 148 679 q 353 747 281 747 q 584 644 496 747 q 673 374 673 541 l 673 353 q 632 164 673 250 q 519 33 592 79 q 353 -14 446 -14 q 149 62 231 -14 q 68 252 68 138 l 187 252 q 235 135 187 182 q 353 88 283 88 q 486 151 433 88 q 546 322 538 213 l 271 322 l 271 425 l 545 425 q 484 584 535 524 q 353 644 433 644 z "},"ю":{"ha":1133,"x_min":106,"x_max":1074,"o":"m 232 422 l 408 422 q 512 658 422 569 q 739 747 602 747 q 975 650 883 747 q 1074 398 1066 553 l 1074 359 q 1032 165 1074 252 q 914 33 990 79 q 741 -14 838 -14 q 509 79 599 -14 q 408 319 418 172 l 232 319 l 232 0 l 106 0 l 106 734 l 232 734 l 232 422 m 532 359 q 588 163 532 237 q 741 89 645 89 q 892 164 836 89 q 948 374 948 239 q 891 569 948 494 q 739 644 834 644 q 589 570 646 644 q 532 359 532 496 z "},"я":{"ha":762,"x_min":32,"x_max":656,"o":"m 656 734 l 656 0 l 530 0 l 530 286 l 340 286 l 168 0 l 32 0 l 216 304 q 108 384 146 330 q 71 510 71 438 q 146 672 71 610 q 347 734 221 733 l 656 734 m 197 509 q 233 422 197 455 q 330 389 270 389 l 530 389 l 530 632 l 349 632 q 238 598 279 632 q 197 509 197 564 z "},"ђ":{"ha":765,"x_min":-16,"x_max":672,"o":"m 414 820 l 220 820 l 220 645 q 437 747 304 747 q 672 485 670 747 l 672 -60 q 614 -236 672 -176 q 454 -296 557 -296 q 376 -284 412 -296 l 386 -184 q 454 -193 410 -193 q 522 -158 498 -193 q 547 -60 547 -123 l 547 482 q 511 602 547 564 q 399 641 475 641 q 292 608 338 641 q 220 523 246 576 l 220 0 l 95 0 l 95 820 l -16 820 l -16 923 l 95 923 l 95 1042 l 220 1042 l 220 923 l 414 923 l 414 820 z "},"є":{"ha":747,"x_min":70,"x_max":688,"o":"m 396 89 q 513 130 463 89 q 569 231 564 170 l 688 231 q 644 111 685 168 q 537 20 604 54 q 396 -14 471 -14 q 158 87 245 -14 q 70 361 70 187 l 70 381 q 110 573 70 489 q 222 702 149 656 q 396 747 296 747 q 601 673 519 747 q 688 481 683 600 l 569 481 q 515 598 564 553 q 396 644 467 644 q 256 584 308 644 q 197 418 203 524 l 471 418 l 471 315 l 197 315 q 255 148 203 206 q 396 89 307 89 z "},"љ":{"ha":1178,"x_min":26,"x_max":1133,"o":"m 672 734 l 672 454 l 866 454 q 1061 391 989 452 q 1133 229 1133 330 q 1061 66 1133 130 q 865 0 989 2 l 546 0 l 546 630 l 317 630 l 302 344 q 235 79 288 156 q 71 0 182 1 l 26 0 l 26 111 l 63 113 q 147 177 121 120 q 182 376 173 233 l 197 734 l 672 734 m 672 351 l 672 101 l 859 101 q 967 137 927 101 q 1006 231 1006 172 q 968 318 1006 286 q 862 351 929 351 l 672 351 z "},"њ":{"ha":1196,"x_min":106,"x_max":1155,"o":"m 232 456 l 569 456 l 569 734 l 694 734 l 694 454 l 891 454 q 1084 391 1013 451 q 1155 229 1155 331 q 1081 63 1155 127 q 880 0 1008 0 l 569 0 l 569 354 l 232 354 l 232 0 l 106 0 l 106 734 l 232 734 l 232 456 m 694 351 l 694 101 l 881 101 q 989 137 949 101 q 1029 231 1029 172 q 990 318 1029 286 q 884 351 951 351 l 694 351 z "},"ћ":{"ha":787,"x_min":-2,"x_max":672,"o":"m 429 823 l 220 823 l 220 645 q 437 747 304 747 q 672 485 670 747 l 672 0 l 547 0 l 547 486 q 510 603 546 565 q 399 641 475 641 q 292 608 338 641 q 220 523 246 576 l 220 0 l 95 0 l 95 823 l -2 823 l -2 926 l 95 926 l 95 1042 l 220 1042 l 220 926 l 429 926 l 429 823 z "},"џ":{"ha":802,"x_min":106,"x_max":695,"o":"m 232 734 l 232 102 l 570 102 l 570 734 l 695 734 l 695 0 l 465 0 l 465 -241 l 340 -241 l 340 0 l 106 0 l 106 734 l 232 734 z "},"Ѡ":{"ha":1221,"x_min":106,"x_max":1121,"o":"m 1121 987 l 1121 270 q 1045 61 1121 136 q 836 -14 968 -14 q 704 16 762 -14 q 613 106 646 45 q 517 16 578 45 q 380 -14 457 -14 q 179 61 252 -14 q 106 267 106 135 l 106 987 l 237 987 l 237 269 q 275 139 237 186 q 380 92 314 92 q 502 139 458 92 q 546 269 546 185 l 546 987 l 681 987 l 681 269 q 723 138 681 184 q 836 92 765 92 q 949 139 908 92 q 991 270 991 185 l 991 987 l 1121 987 z "},"ѡ":{"ha":1071,"x_min":87,"x_max":985,"o":"m 985 734 l 985 239 q 917 53 985 120 q 730 -14 848 -14 q 536 86 596 -14 q 332 -14 471 -14 q 153 52 218 -14 q 87 237 88 118 l 87 734 l 213 734 l 213 237 q 244 128 214 168 q 332 88 275 88 q 436 129 398 88 q 473 239 473 170 l 473 734 l 600 734 l 600 239 q 634 129 600 170 q 730 88 668 88 q 825 128 791 88 q 860 237 859 168 l 860 734 l 985 734 z "},"ѣ":{"ha":753,"x_min":-24,"x_max":692,"o":"m 449 734 l 231 734 l 231 506 l 421 506 q 620 436 548 505 q 692 256 692 368 q 620 73 692 144 q 424 0 548 2 l 105 0 l 105 734 l -24 734 l -24 836 l 105 836 l 105 1057 l 231 1057 l 231 836 l 449 836 l 449 734 m 231 403 l 231 102 l 417 102 q 527 143 488 102 q 565 251 565 183 q 527 359 565 317 q 422 403 490 401 l 231 403 z "},"Ѥ":{"ha":1244,"x_min":124,"x_max":1150,"o":"m 255 564 l 390 564 q 443 795 393 695 q 582 948 493 895 q 787 1002 671 1002 q 1039 915 943 1002 q 1150 671 1134 828 l 1020 671 q 946 841 1003 787 q 787 895 890 895 q 595 806 665 895 q 521 564 525 718 l 888 564 l 888 462 l 521 462 l 521 444 q 588 189 521 283 q 776 94 655 94 q 944 143 886 94 q 1020 314 1001 193 l 1150 314 q 1035 72 1132 157 q 776 -13 937 -13 q 495 113 601 -13 q 390 448 390 238 l 390 462 l 255 462 l 255 0 l 124 0 l 124 987 l 255 987 l 255 564 z "},"ѥ":{"ha":1036,"x_min":104,"x_max":977,"o":"m 230 417 l 359 417 q 457 658 370 568 q 685 747 543 747 q 890 673 808 747 q 977 481 972 600 l 858 481 q 804 598 852 553 q 685 644 755 644 q 544 584 595 644 q 486 417 492 524 l 782 417 l 782 315 l 486 315 q 544 148 492 206 q 685 89 596 89 q 802 130 752 89 q 858 231 852 170 l 977 231 q 933 111 974 168 q 826 20 892 54 q 685 -14 760 -14 q 457 75 543 -14 q 360 315 371 164 l 230 315 l 230 0 l 104 0 l 104 734 l 230 734 l 230 417 z "},"Ѧ":{"ha":837,"x_min":27,"x_max":849,"o":"m 614 297 l 498 297 l 498 0 l 371 0 l 371 297 l 264 297 l 161 0 l 27 0 l 383 987 l 499 987 l 849 0 l 715 0 l 614 297 m 302 408 l 576 408 l 441 805 l 302 408 z "},"ѧ":{"ha":742,"x_min":10,"x_max":720,"o":"m 508 201 l 429 201 l 429 0 l 303 0 l 303 201 l 219 201 l 138 0 l 10 0 l 310 734 l 418 734 l 720 0 l 591 0 l 508 201 m 260 304 l 466 304 l 379 518 l 363 578 l 347 518 l 260 304 z "},"Ѩ":{"ha":1223,"x_min":136,"x_max":1208,"o":"m 267 408 l 532 408 l 742 987 l 858 987 l 1208 0 l 1074 0 l 972 297 l 857 297 l 857 0 l 730 0 l 730 297 l 623 297 l 519 0 l 386 0 l 493 298 l 267 298 l 267 0 l 136 0 l 136 987 l 267 987 l 267 408 m 661 408 l 935 408 l 800 805 l 661 408 z "},"ѩ":{"ha":1049,"x_min":127,"x_max":1023,"o":"m 254 304 l 437 304 l 613 734 l 721 734 l 1023 0 l 894 0 l 811 201 l 732 201 l 732 0 l 606 0 l 606 201 l 522 201 l 441 0 l 313 0 l 395 201 l 254 201 l 254 0 l 127 0 l 127 734 l 254 734 l 254 304 m 564 304 l 769 304 l 682 518 l 666 578 l 650 518 l 564 304 z "},"Ѫ":{"ha":1183,"x_min":100,"x_max":1084,"o":"m 739 549 l 757 549 q 1002 477 922 549 q 1084 259 1082 406 l 1084 0 l 954 0 l 954 255 q 911 397 953 353 q 764 442 869 441 l 674 442 l 660 418 l 660 0 l 529 0 l 529 427 l 520 442 l 428 442 q 277 400 321 442 q 230 263 233 359 l 230 0 l 100 0 l 100 259 q 182 477 102 406 q 427 549 262 549 l 455 549 l 189 987 l 1004 987 l 739 549 m 591 549 l 602 549 l 793 880 l 399 880 l 591 549 z "},"ѫ":{"ha":1021,"x_min":102,"x_max":919,"o":"m 102 0 l 102 123 q 173 334 104 262 q 384 409 241 405 l 189 734 l 840 734 l 644 409 q 851 330 784 401 q 919 117 918 258 l 919 0 l 793 0 l 793 120 q 752 263 791 219 q 618 307 713 307 l 583 307 l 575 294 l 575 0 l 450 0 l 450 300 l 446 307 l 404 307 q 269 264 309 307 q 228 120 229 221 l 228 0 l 102 0 m 511 410 l 517 410 l 641 631 l 388 631 l 511 410 z "},"Ѭ":{"ha":1565,"x_min":123,"x_max":1466,"o":"m 481 0 l 481 255 q 535 448 481 376 l 254 448 l 254 0 l 123 0 l 123 987 l 254 987 l 254 551 l 836 551 l 570 987 l 1386 987 l 1120 549 l 1139 549 q 1384 477 1304 549 q 1466 259 1464 406 l 1466 0 l 1335 0 l 1335 255 q 1293 397 1335 353 q 1146 442 1251 441 l 1056 442 l 1041 417 l 1041 0 l 911 0 l 911 427 l 901 442 l 810 442 q 659 400 703 442 q 612 263 614 359 l 612 0 l 481 0 m 973 549 l 984 549 l 1175 880 l 781 880 l 973 549 z "},"ѭ":{"ha":1357,"x_min":105,"x_max":1255,"o":"m 438 0 l 438 119 q 487 307 439 236 l 231 307 l 231 0 l 105 0 l 105 734 l 231 734 l 231 410 l 720 410 l 526 734 l 1176 734 l 981 409 q 1187 330 1120 401 q 1255 117 1254 258 l 1255 0 l 1129 0 l 1129 120 q 1089 263 1128 219 q 955 307 1050 307 l 919 307 l 911 294 l 911 0 l 786 0 l 786 300 l 782 307 l 731 307 q 603 262 641 305 q 564 119 566 218 l 564 0 l 438 0 m 848 410 l 853 410 l 977 631 l 724 631 l 848 410 z "},"Ѯ":{"ha":718,"x_min":54,"x_max":636,"o":"m 495 723 q 442 841 495 798 q 297 884 389 884 l 90 884 l 90 987 l 292 987 q 532 914 443 987 q 621 720 621 841 q 577 595 621 650 q 455 509 533 539 q 590 422 543 481 q 636 275 636 363 q 546 65 636 142 q 304 -13 456 -13 l 269 -13 q 174 -89 174 -15 q 262 -205 174 -160 l 283 -215 l 233 -300 q 102 -207 150 -264 q 54 -83 54 -150 q 110 44 54 0 q 276 90 166 89 l 311 90 q 456 140 402 90 q 510 273 510 191 q 292 455 510 452 l 188 455 l 188 558 l 279 558 q 495 723 495 558 m 368 1191 l 470 1306 l 578 1306 l 578 1299 l 406 1114 l 329 1114 l 159 1299 l 159 1306 l 266 1306 l 368 1191 z "},"ѯ":{"ha":669,"x_min":52,"x_max":601,"o":"m 460 527 q 417 601 460 572 q 298 630 374 629 l 87 630 l 87 734 l 288 734 q 505 676 425 734 q 586 524 586 618 q 551 434 586 475 q 455 370 517 394 q 601 206 601 325 q 518 46 601 106 q 300 -13 436 -13 l 267 -13 q 171 -89 171 -15 q 259 -205 171 -160 l 280 -215 l 229 -300 q 98 -205 145 -262 q 52 -83 52 -149 q 107 44 52 0 q 273 90 163 89 l 310 90 q 433 123 387 91 q 475 203 475 155 q 286 315 475 313 l 182 315 l 182 418 l 274 418 q 460 527 460 418 m 313 959 l 415 1074 l 524 1074 l 524 1067 l 351 882 l 274 882 l 104 1067 l 104 1074 l 211 1074 l 313 959 z "},"Ѳ":{"ha":945,"x_min":70,"x_max":864,"o":"m 864 462 q 815 210 864 317 q 677 44 767 102 q 468 -14 588 -14 q 261 44 351 -14 q 121 207 171 101 q 70 453 71 313 l 70 524 q 119 776 70 667 q 259 943 169 885 q 467 1001 350 1001 q 675 944 585 1001 q 813 780 764 887 q 864 533 863 673 l 864 462 m 467 889 q 273 796 343 889 q 199 538 202 703 l 734 538 q 661 798 731 707 q 467 889 591 889 m 468 97 q 660 184 591 97 q 734 436 728 271 l 199 436 q 276 186 205 276 q 468 97 348 97 z "},"ѳ":{"ha":789,"x_min":62,"x_max":730,"o":"m 62 374 q 103 567 62 481 q 221 700 145 653 q 395 747 298 747 q 630 650 538 747 q 729 398 722 553 l 730 359 q 688 165 730 252 q 570 33 646 79 q 396 -14 494 -14 q 154 91 245 -14 q 62 365 62 195 l 62 374 m 602 319 l 189 319 q 253 151 197 214 q 396 89 309 89 q 538 152 484 89 q 602 319 593 215 m 395 644 q 255 583 310 644 q 190 422 200 522 l 601 422 q 533 584 589 524 q 395 644 478 644 z "},"Ѵ":{"ha":875,"x_min":15,"x_max":844,"o":"m 393 254 l 415 165 l 439 253 l 618 817 q 698 960 652 919 q 813 1000 743 1000 l 844 1000 l 844 884 q 779 863 800 884 q 736 786 757 843 l 473 0 l 357 0 l 15 987 l 156 987 l 393 254 z "},"ѵ":{"ha":696,"x_min":31,"x_max":702,"o":"m 322 214 l 338 146 l 355 214 l 461 583 q 630 747 513 747 q 702 730 678 747 l 688 630 q 659 635 679 635 q 618 619 638 635 q 587 572 597 603 l 385 0 l 290 0 l 31 734 l 159 734 l 322 214 z "},"Ѻ":{"ha":945,"x_min":70,"x_max":864,"o":"m 864 462 q 777 140 864 264 q 535 -8 689 16 l 535 -96 l 410 -96 l 410 -9 q 162 137 254 12 q 70 459 71 262 l 70 524 q 161 849 70 722 q 410 997 253 976 l 410 1077 l 535 1077 l 535 996 q 776 846 688 970 q 864 521 864 721 l 864 462 m 734 526 q 683 767 734 677 q 535 881 631 857 l 535 815 l 410 815 l 410 883 q 255 769 310 862 q 199 525 199 676 l 199 462 q 255 218 199 311 q 410 103 311 124 l 410 172 l 535 172 l 535 104 q 683 218 632 127 q 734 462 734 309 l 734 526 z "},"ѻ":{"ha":787,"x_min":62,"x_max":730,"o":"m 62 374 q 134 617 62 516 q 331 741 205 718 l 331 817 l 456 817 l 456 742 q 656 620 583 720 q 730 370 730 519 l 730 359 q 655 112 730 212 q 456 -8 580 12 l 456 -81 l 331 -81 l 331 -7 q 135 114 209 14 q 62 363 62 214 l 62 374 m 456 98 q 564 188 524 119 q 604 374 604 258 q 564 543 604 472 q 456 635 525 613 l 456 568 l 331 568 l 331 634 q 226 541 264 612 q 187 359 187 471 q 225 191 187 260 q 331 99 264 122 l 331 168 l 456 168 l 456 98 z "},"Ѽ":{"ha":1216,"x_min":106,"x_max":1117,"o":"m 843 987 q 1043 905 970 987 q 1117 679 1117 824 l 1117 292 q 1043 67 1117 149 q 843 -14 970 -14 q 707 15 767 -14 q 611 103 646 43 q 516 15 576 43 q 380 -14 456 -14 q 182 64 255 -14 q 106 282 109 143 l 106 680 q 179 905 106 823 q 380 987 252 987 l 380 880 q 275 826 313 880 q 237 680 237 773 l 237 292 q 275 145 237 197 q 380 92 314 92 q 502 139 458 92 q 546 269 546 185 l 546 559 l 677 559 l 677 269 q 721 139 677 186 q 843 92 765 92 q 948 145 910 92 q 986 293 986 198 l 986 680 q 948 826 986 772 q 843 880 911 880 l 843 987 m 913 1185 l 913 1099 l 884 1099 q 786 1110 830 1099 q 680 1149 742 1122 q 600 1180 617 1176 q 566 1184 582 1184 q 489 1108 489 1184 l 489 1098 l 402 1098 l 402 1122 q 445 1234 402 1197 q 563 1270 488 1270 q 614 1264 590 1270 q 704 1231 639 1259 q 804 1194 768 1203 q 913 1185 840 1185 m 536 935 q 583 1030 581 989 l 583 1101 l 690 1101 l 690 1032 q 659 959 690 998 q 588 897 628 919 l 536 935 z "},"ѽ":{"ha":1066,"x_min":85,"x_max":983,"o":"m 739 741 q 918 666 853 741 q 983 460 983 592 l 983 264 q 918 60 983 134 q 739 -14 853 -14 q 534 87 598 -14 q 449 11 502 36 q 330 -14 396 -14 q 154 56 219 -14 q 85 254 88 127 l 85 461 q 151 666 85 592 q 330 741 216 741 l 330 637 q 242 591 274 637 q 211 461 211 545 l 211 264 q 242 135 211 181 q 330 88 273 88 q 434 129 396 88 q 471 239 471 170 l 471 399 l 597 399 l 597 237 q 635 128 597 168 q 739 88 673 88 q 826 134 794 88 q 857 265 857 180 l 857 461 q 826 591 857 545 q 739 637 794 637 l 739 741 m 854 946 l 854 860 l 825 860 q 728 871 771 860 q 621 909 686 882 q 539 941 555 937 q 507 945 523 945 q 429 869 429 945 l 429 859 l 342 859 l 342 884 q 386 995 342 958 q 504 1031 429 1031 q 557 1025 532 1031 q 644 992 582 1019 q 743 956 706 965 q 854 946 780 946 m 477 690 q 523 785 521 743 l 523 856 l 630 856 l 630 787 q 599 713 630 753 q 528 652 568 673 l 477 690 z "},"Ѿ":{"ha":1221,"x_min":106,"x_max":1121,"o":"m 1121 987 l 1121 270 q 1045 61 1121 136 q 836 -14 968 -14 q 704 16 762 -14 q 613 106 646 45 q 517 16 578 45 q 380 -14 457 -14 q 179 61 252 -14 q 106 267 106 135 l 106 987 l 237 987 l 237 269 q 275 139 237 186 q 380 92 314 92 q 502 139 458 92 q 546 269 546 185 l 546 987 l 681 987 l 681 269 q 723 138 681 184 q 836 92 765 92 q 949 139 908 92 q 991 270 991 185 l 991 987 l 1121 987 m 341 1145 l 341 1217 l 892 1217 l 892 1145 l 668 1145 l 668 1060 l 554 1060 l 554 1145 l 341 1145 z "},"ѿ":{"ha":1071,"x_min":87,"x_max":985,"o":"m 985 734 l 985 239 q 917 53 985 120 q 730 -14 848 -14 q 536 86 596 -14 q 332 -14 471 -14 q 153 52 218 -14 q 87 237 88 118 l 87 734 l 213 734 l 213 237 q 244 128 214 168 q 332 88 275 88 q 436 129 398 88 q 473 239 473 170 l 473 734 l 600 734 l 600 239 q 634 129 600 170 q 730 88 668 88 q 825 128 791 88 q 860 237 859 168 l 860 734 l 985 734 m 265 915 l 265 987 l 816 987 l 818 915 l 592 915 l 592 828 l 477 828 l 477 915 l 265 915 z "},"Ҁ":{"ha":902,"x_min":79,"x_max":822,"o":"m 534 -258 l 405 -258 l 405 -11 q 169 124 258 8 q 79 413 79 240 l 79 578 q 127 796 79 699 q 262 948 176 894 q 458 1002 349 1002 q 723 912 625 1002 q 822 671 821 823 l 691 671 q 628 836 690 778 q 458 895 567 895 q 280 806 349 895 q 210 574 210 718 l 210 409 q 277 183 210 272 q 450 92 344 95 l 534 92 l 534 -258 z "},"ҁ":{"ha":743,"x_min":68,"x_max":673,"o":"m 457 -259 l 332 -259 l 332 -9 q 140 111 212 11 q 68 357 68 210 l 68 381 q 108 569 68 485 q 221 701 149 654 q 389 747 294 747 q 591 671 510 747 q 673 481 673 595 l 554 481 q 506 597 554 549 q 389 644 457 644 q 246 570 299 644 q 193 374 193 496 l 193 353 q 244 164 193 239 q 383 88 295 90 l 457 88 l 457 -259 z "},"҂":{"ha":866,"x_min":79,"x_max":792,"o":"m 407 302 l 603 186 l 557 102 l 359 218 l 236 0 l 122 0 l 275 270 l 79 386 l 125 469 l 323 353 l 463 601 l 266 717 l 313 802 l 511 686 l 638 910 l 750 910 l 593 633 l 792 517 l 743 435 l 548 550 l 407 302 z "},"҃":{"ha":0,"x_min":-625,"x_max":-147,"o":"m -512 892 l -512 807 l -625 808 l -624 966 l -258 966 l -259 1039 l -147 1038 l -147 892 l -512 892 z "},"҄":{"ha":0,"x_min":-618,"x_max":-106,"o":"m -267 1056 q -149 1019 -192 1056 q -106 908 -106 983 l -106 884 l -193 884 l -193 893 q -270 969 -193 969 q -329 957 -298 969 l -404 925 q -577 884 -497 886 l -618 884 l -618 970 q -509 979 -545 970 q -407 1016 -473 988 q -318 1050 -342 1044 q -267 1056 -294 1056 z "},"҅":{"ha":0,"x_min":-452,"x_max":-290,"o":"m -452 1017 l -452 1101 l -330 1101 l -330 1006 l -290 927 l -342 883 l -452 1017 z "},"҆":{"ha":0,"x_min":-410,"x_max":-248,"o":"m -357 883 l -410 927 l -370 1006 l -370 1101 l -248 1101 l -248 1017 l -357 883 z "},"҈":{"ha":0,"x_min":-1023,"x_max":297,"o":"m -515 859 q -476 951 -515 916 q -373 987 -437 987 q -269 951 -309 987 q -230 859 -230 916 l -306 859 q -323 909 -306 890 q -373 928 -340 928 q -421 910 -404 928 q -439 859 -439 892 l -515 859 m -115 671 q -75 764 -115 728 q 27 799 -36 799 q 131 764 92 799 q 171 671 171 729 l 94 671 q 76 722 94 705 q 27 740 58 740 q -20 722 -3 740 q -37 671 -37 704 l -115 671 m 12 330 q 51 423 12 388 q 154 458 91 458 q 258 422 218 458 q 297 330 297 387 l 221 330 q 203 381 221 363 q 154 399 185 399 q 105 380 123 399 q 88 330 88 361 l 12 330 m -121 -22 q -82 71 -121 35 q 20 106 -43 106 q 124 71 85 106 q 163 -22 163 35 l 87 -22 q 70 29 87 12 q 20 47 52 47 q -27 28 -10 47 q -45 -22 -45 9 l -121 -22 m -512 -214 q -473 -122 -512 -157 q -370 -87 -434 -87 q -266 -122 -305 -87 q -227 -214 -227 -157 l -302 -214 q -320 -164 -302 -183 q -370 -146 -337 -146 q -418 -164 -401 -146 q -435 -214 -435 -183 l -512 -214 m -904 671 q -865 764 -904 728 q -761 799 -825 799 q -657 764 -696 799 q -618 671 -618 728 l -694 671 q -711 721 -694 703 q -761 740 -728 740 q -809 722 -792 740 q -827 671 -827 704 l -904 671 m -1023 330 q -984 423 -1023 388 q -881 458 -944 458 q -777 422 -817 458 q -738 330 -738 387 l -814 330 q -832 381 -814 363 q -881 399 -850 399 q -929 380 -912 399 q -947 330 -947 361 l -1023 330 m -911 -22 q -871 71 -911 36 q -768 106 -831 106 q -664 71 -704 106 q -625 -22 -625 36 l -701 -22 q -719 29 -701 12 q -768 47 -737 47 q -816 29 -799 47 q -833 -22 -833 11 l -911 -22 z "},"҉":{"ha":0,"x_min":-1012,"x_max":246,"o":"m -315 -41 l -308 -50 l -391 -280 l -456 -280 l -408 -41 l -315 -41 m -448 764 l -456 773 l -373 1002 l -308 1002 l -355 764 l -448 764 m 12 428 l 20 436 l 246 352 l 246 286 l 12 334 l 12 428 m -777 294 l -786 286 l -1012 370 l -1012 436 l -777 388 l -777 294 m -151 680 l -149 690 l 68 794 l 114 748 l -85 612 l -151 680 m -614 14 l -616 3 l -833 -101 l -880 -54 l -680 81 l -614 14 m -709 583 l -721 585 l -821 806 l -777 852 l -643 650 l -709 583 m -57 109 l -45 108 l 55 -113 l 10 -161 l -123 42 l -57 109 z "},"ҍ":{"ha":753,"x_min":-24,"x_max":692,"o":"m 449 884 l 231 884 l 231 506 l 421 506 q 620 436 548 505 q 692 256 692 368 q 620 73 692 144 q 424 0 548 2 l 105 0 l 105 884 l -24 884 l -24 987 l 105 987 l 105 1118 l 231 1118 l 231 987 l 449 987 l 449 884 m 231 403 l 231 102 l 417 102 q 527 143 488 102 q 565 251 565 183 q 527 359 565 317 q 422 403 490 401 l 231 403 z "},"Ҏ":{"ha":886,"x_min":114,"x_max":840,"o":"m 245 387 l 245 0 l 114 0 l 114 987 l 478 987 q 731 905 638 987 q 825 686 825 823 q 755 484 825 559 l 840 390 l 766 320 l 672 424 q 478 387 592 387 l 245 387 m 669 578 q 694 684 694 623 q 638 826 694 772 q 484 880 582 879 l 245 880 l 245 493 l 478 493 q 591 513 545 493 l 517 595 l 591 664 l 669 578 z "},"ҏ":{"ha":787,"x_min":95,"x_max":718,"o":"m 715 359 q 643 95 715 197 l 718 10 l 644 -59 l 569 24 q 431 -14 509 -14 q 220 71 297 -14 l 220 -282 l 95 -282 l 95 734 l 210 734 l 216 652 q 429 747 292 747 q 638 648 561 747 q 715 370 715 548 l 715 359 m 589 373 q 536 569 589 497 q 391 641 484 641 q 220 540 277 641 l 220 189 q 393 89 277 89 q 489 115 448 89 l 420 193 l 494 263 l 555 193 q 589 373 589 260 z "},"Ґ":{"ha":762,"x_min":110,"x_max":718,"o":"m 718 884 l 716 884 l 716 880 l 240 880 l 240 0 l 110 0 l 110 987 l 593 987 l 593 1215 l 718 1215 l 718 884 z "},"ґ":{"ha":618,"x_min":98,"x_max":566,"o":"m 566 630 l 224 630 l 224 0 l 98 0 l 98 734 l 440 734 l 440 948 l 566 948 l 566 630 z "},"Ҕ":{"ha":843,"x_min":120,"x_max":779,"o":"m 727 880 l 251 880 l 251 565 l 372 565 q 671 461 564 565 q 779 174 779 358 q 695 -101 779 -5 q 458 -196 612 -196 l 456 -96 q 604 -30 555 -96 q 652 174 652 36 q 583 383 652 311 q 374 455 513 455 l 251 455 l 251 0 l 120 0 l 120 987 l 727 987 l 727 880 z "},"ҕ":{"ha":698,"x_min":98,"x_max":650,"o":"m 563 630 l 224 630 l 224 437 l 298 437 q 555 349 460 437 q 650 115 650 261 q 616 -19 650 49 q 526 -132 583 -87 q 389 -192 468 -178 l 356 -93 q 484 -19 443 -71 q 524 115 524 33 q 464 271 524 214 q 300 328 404 328 l 224 328 l 224 0 l 98 0 l 98 734 l 563 734 l 563 630 z "},"Ҝ":{"ha":874,"x_min":111,"x_max":867,"o":"m 837 987 l 566 519 l 867 0 l 704 0 l 467 444 l 412 444 l 412 278 l 312 278 l 312 444 l 241 444 l 241 0 l 111 0 l 111 987 l 241 987 l 241 553 l 312 553 l 312 726 l 412 726 l 412 553 l 465 553 l 684 987 l 837 987 z "},"ҝ":{"ha":780,"x_min":104,"x_max":781,"o":"m 755 734 l 526 385 l 781 0 l 621 0 l 433 313 l 399 313 l 399 181 l 299 181 l 299 313 l 231 313 l 231 0 l 104 0 l 104 734 l 231 734 l 231 423 l 299 423 l 299 568 l 399 568 l 399 423 l 428 423 l 604 734 l 755 734 z "},"Ҡ":{"ha":1137,"x_min":46,"x_max":1136,"o":"m 618 444 l 499 444 l 499 0 l 368 0 l 368 884 l 46 884 l 46 987 l 499 987 l 499 552 l 601 552 l 945 987 l 1107 987 l 730 509 l 1136 0 l 976 0 l 618 444 z "},"ҡ":{"ha":957,"x_min":42,"x_max":953,"o":"m 539 313 l 447 313 l 447 0 l 321 0 l 321 630 l 42 630 l 42 734 l 447 734 l 447 423 l 530 423 l 776 734 l 928 734 l 637 381 l 953 0 l 793 0 l 539 313 z "},"Ҥ":{"ha":1356,"x_min":114,"x_max":1305,"o":"m 245 563 l 743 563 l 743 987 l 1305 987 l 1305 884 l 873 884 l 873 0 l 743 0 l 743 456 l 245 456 l 245 0 l 114 0 l 114 987 l 245 987 l 245 563 z "},"ҥ":{"ha":990,"x_min":98,"x_max":939,"o":"m 224 416 l 562 416 l 562 734 l 939 734 l 939 630 l 687 630 l 687 0 l 562 0 l 562 313 l 224 313 l 224 0 l 98 0 l 98 734 l 224 734 l 224 416 z "},"Ҧ":{"ha":1422,"x_min":119,"x_max":1354,"o":"m 867 565 l 947 565 q 1247 461 1140 565 q 1354 174 1354 358 q 1271 -101 1354 -5 q 1034 -196 1188 -196 l 1032 -96 q 1179 -30 1131 -96 q 1228 174 1228 36 q 1158 383 1227 311 q 949 455 1089 455 l 867 455 l 867 0 l 736 0 l 736 880 l 250 880 l 250 0 l 119 0 l 119 987 l 867 987 l 867 565 z "},"ҧ":{"ha":1207,"x_min":98,"x_max":1161,"o":"m 688 437 l 796 437 q 1063 349 964 437 q 1161 115 1161 261 l 1159 90 q 1075 -97 1145 -21 q 900 -192 1004 -174 l 867 -93 q 993 -20 951 -71 q 1035 115 1035 31 q 971 271 1035 214 q 799 328 907 328 l 688 328 l 688 0 l 562 0 l 562 630 l 224 630 l 224 0 l 98 0 l 98 734 l 688 734 l 688 437 z "},"Ҩ":{"ha":1029,"x_min":77,"x_max":978,"o":"m 978 -19 q 711 31 832 -19 q 498 -14 614 -14 q 281 46 377 -14 q 131 216 184 106 q 77 458 77 325 l 77 574 q 116 793 77 694 q 227 946 156 891 q 388 1002 298 1002 l 389 890 q 258 804 309 890 q 208 570 208 718 l 208 458 q 288 197 208 298 q 498 96 368 96 q 583 105 545 96 q 456 265 501 171 q 412 474 412 359 l 412 628 q 447 818 412 732 q 546 952 482 904 q 690 1000 610 1000 q 892 895 814 1000 q 970 619 970 791 l 970 460 q 932 262 970 353 q 825 108 895 172 q 978 90 896 90 l 978 -19 m 542 473 q 583 289 542 370 q 703 159 623 209 q 804 286 769 208 q 840 460 840 364 l 840 629 q 799 819 840 749 q 690 888 758 888 q 583 817 625 888 q 542 625 542 746 l 542 473 z "},"ҩ":{"ha":838,"x_min":74,"x_max":800,"o":"m 800 -8 q 585 31 680 -8 q 408 -14 505 -14 q 236 36 313 -14 q 117 180 160 87 q 74 386 74 273 l 74 425 q 141 656 74 564 q 313 747 208 747 l 313 640 q 232 582 263 640 q 200 424 200 523 l 200 386 q 257 174 200 255 q 408 92 315 92 q 469 100 439 92 q 338 395 338 210 l 338 458 q 396 668 338 589 q 552 748 455 748 q 707 664 647 748 q 768 439 768 579 l 768 373 q 681 113 768 219 q 800 98 734 98 l 800 -8 m 463 387 q 571 163 463 241 q 642 367 640 241 l 642 446 q 617 588 642 534 q 552 642 593 642 q 488 594 511 642 q 463 463 464 546 l 463 387 z "},"Ҵ":{"ha":1245,"x_min":35,"x_max":1141,"o":"m 290 884 l 35 884 l 35 987 l 290 987 l 290 987 l 420 987 l 420 987 l 682 987 l 682 884 l 420 884 l 420 106 l 907 106 l 907 987 l 1038 987 l 1038 109 l 1141 109 l 1129 -238 l 1013 -238 l 1013 0 l 290 0 l 290 884 z "},"ҵ":{"ha":930,"x_min":21,"x_max":883,"o":"m 207 631 l 21 631 l 21 734 l 501 734 l 501 631 l 332 631 l 332 102 l 670 102 l 670 734 l 796 734 l 796 102 l 883 102 l 871 -218 l 759 -218 l 759 0 l 207 0 l 207 631 z "},"Ҹ":{"ha":943,"x_min":102,"x_max":830,"o":"m 233 987 l 233 674 q 280 525 233 570 q 435 480 326 480 l 435 690 l 536 690 l 536 486 q 699 517 618 494 l 699 987 l 830 987 l 830 0 l 699 0 l 699 409 q 536 377 622 386 l 536 216 l 435 216 l 435 373 q 185 447 267 373 q 102 668 104 520 l 102 987 l 233 987 z "},"ҹ":{"ha":766,"x_min":89,"x_max":668,"o":"m 668 0 l 542 0 l 542 266 q 438 247 494 253 l 438 155 l 336 155 l 336 245 q 154 323 217 254 q 89 515 90 393 l 89 734 l 214 734 l 214 510 q 336 349 218 367 l 336 539 l 438 539 l 438 351 q 542 369 495 357 l 542 734 l 668 734 l 668 0 z "},"Һ":{"ha":944,"x_min":94,"x_max":822,"o":"m 94 0 l 94 987 l 224 987 l 224 578 q 487 614 350 614 q 738 541 656 614 q 822 317 820 468 l 822 0 l 691 0 l 691 313 q 644 462 690 416 q 487 507 597 507 q 224 470 360 507 l 224 0 l 94 0 z "},"Ҽ":{"ha":1074,"x_min":43,"x_max":996,"o":"m 679 -15 q 372 99 485 -15 q 259 415 259 214 l 259 477 q 99 556 155 490 q 43 733 43 623 l 146 733 q 173 630 146 672 q 259 574 200 587 q 307 793 259 696 q 441 945 355 890 q 629 1000 527 1000 q 900 882 804 1000 q 996 545 996 764 l 996 472 l 390 472 l 390 409 q 465 176 390 260 q 679 92 541 92 q 913 149 800 92 l 945 52 q 830 3 901 21 q 679 -15 759 -15 m 390 567 l 866 567 l 866 589 q 805 814 866 736 q 629 892 745 892 q 456 804 522 892 q 390 567 390 716 z "},"ҽ":{"ha":823,"x_min":-23,"x_max":762,"o":"m 475 -14 q 233 84 326 -14 q 139 352 139 182 q 17 431 58 372 q -23 581 -23 490 l 77 581 q 145 448 77 481 q 203 605 159 536 q 316 710 248 673 q 460 747 384 747 q 682 653 603 747 q 762 383 762 559 l 762 331 l 264 331 q 328 156 267 222 q 482 89 389 89 q 675 188 600 89 l 752 128 q 475 -14 660 -14 m 460 644 q 332 589 384 644 q 269 434 281 534 l 636 434 l 636 444 q 585 592 631 539 q 460 644 538 644 z "},"Ӄ":{"ha":874,"x_min":111,"x_max":833,"o":"m 241 0 l 111 0 l 111 987 l 241 987 l 241 564 l 332 564 l 680 987 l 833 987 l 480 559 q 740 441 648 544 q 831 170 831 339 q 746 -106 831 -9 q 506 -202 662 -202 l 505 -99 q 651 -34 602 -99 q 700 168 700 32 q 631 376 699 305 q 429 448 564 448 l 241 448 l 241 0 z "},"ӄ":{"ha":755,"x_min":104,"x_max":711,"o":"m 433 415 q 635 317 566 394 q 705 119 705 241 q 671 -11 705 56 q 579 -120 637 -78 q 445 -175 521 -162 l 412 -76 q 581 119 581 -37 q 522 262 581 212 q 351 313 463 311 l 231 313 l 231 0 l 104 0 l 104 734 l 231 734 l 231 423 l 292 423 l 559 734 l 711 734 l 433 415 z "},"Ӈ":{"ha":989,"x_min":120,"x_max":867,"o":"m 251 987 l 251 541 l 736 541 l 736 987 l 867 987 l 867 -56 q 809 -233 867 -170 q 645 -296 751 -296 q 568 -284 604 -296 l 577 -180 q 644 -189 602 -189 q 712 -154 688 -189 q 736 -57 736 -119 l 736 435 l 251 435 l 251 0 l 120 0 l 120 987 l 251 987 z "},"ӈ":{"ha":787,"x_min":98,"x_max":687,"o":"m 224 734 l 224 416 l 562 416 l 562 734 l 687 734 l 687 -60 q 629 -236 687 -176 q 468 -296 571 -296 q 392 -284 427 -296 l 402 -184 q 454 -193 414 -189 l 468 -193 q 537 -158 513 -193 q 562 -60 562 -123 l 562 313 l 224 313 l 224 0 l 98 0 l 98 734 l 224 734 z "},"Ә":{"ha":960,"x_min":63,"x_max":880,"o":"m 434 1001 q 760 873 639 1001 q 880 518 880 745 l 880 461 q 827 219 880 328 q 680 48 774 110 q 473 -14 586 -14 q 171 103 279 -14 q 63 441 63 220 l 63 520 l 749 520 l 749 525 q 667 796 749 700 q 434 892 584 892 q 228 853 322 892 l 186 836 l 155 932 l 170 941 q 434 1001 277 1001 m 473 94 q 663 182 587 94 q 748 419 738 271 l 194 419 l 194 396 q 266 171 194 248 q 473 94 337 94 z "},"Ӡ":{"ha":808,"x_min":71,"x_max":724,"o":"m 541 880 l 100 880 l 100 987 l 693 987 l 694 903 l 419 576 q 645 488 566 566 q 724 275 724 410 q 633 64 724 143 q 390 -14 542 -14 q 225 21 299 -14 q 111 121 151 57 q 71 274 71 186 l 201 274 q 254 144 201 197 q 390 92 307 92 q 538 142 483 92 q 593 273 593 191 q 537 427 593 379 q 374 475 481 475 l 278 475 l 278 578 l 541 880 z "},"ӡ":{"ha":808,"x_min":71,"x_max":722,"o":"m 529 630 l 100 630 l 100 734 l 690 734 l 690 654 l 420 318 q 643 231 564 307 q 722 21 722 155 q 631 -190 722 -111 q 389 -268 540 -268 q 227 -233 300 -268 q 113 -134 154 -199 q 71 20 71 -69 l 197 20 q 251 -111 197 -57 q 389 -165 304 -165 q 541 -114 485 -165 q 596 18 596 -64 q 385 220 596 215 l 277 220 l 277 323 l 529 630 z "},"Ӻ":{"ha":819,"x_min":39,"x_max":773,"o":"m 773 880 l 297 880 l 297 0 l 166 0 l 166 987 l 773 987 l 773 880 m 471 485 l 39 485 l 39 587 l 471 587 l 471 485 m 406 103 l 406 -63 q 348 -237 406 -177 q 188 -296 290 -296 q 113 -284 148 -296 l 122 -178 q 188 -186 142 -186 q 281 -55 281 -186 l 281 103 l 406 103 z "},"ӻ":{"ha":570,"x_min":40,"x_max":623,"o":"m 623 630 l 284 630 l 284 0 l 158 0 l 158 734 l 623 734 l 623 630 m 471 364 l 40 364 l 40 467 l 471 467 l 471 364 m 396 103 l 396 -63 q 338 -237 395 -177 q 178 -296 280 -296 q 102 -284 138 -296 l 112 -178 q 178 -186 132 -186 q 271 -55 271 -186 l 271 103 l 396 103 z "},"Ԁ":{"ha":861,"x_min":59,"x_max":763,"o":"m 631 599 l 631 987 l 763 987 l 763 0 l 393 0 q 149 82 239 0 q 59 302 59 164 q 145 516 59 437 q 384 599 232 596 l 631 599 m 631 106 l 631 492 l 393 492 q 244 441 298 492 q 189 303 189 390 q 243 161 189 215 q 391 106 297 107 l 631 106 z "},"Ԃ":{"ha":1142,"x_min":60,"x_max":1112,"o":"m 395 0 q 150 83 240 0 q 60 302 60 165 q 148 516 60 436 q 389 599 235 597 l 634 599 l 634 987 l 765 987 l 765 105 l 825 106 q 939 157 900 107 q 979 290 977 206 q 939 513 982 399 l 1065 513 l 1080 467 q 1109 290 1112 364 q 1029 79 1107 157 q 819 0 951 0 l 395 0 m 634 106 l 634 492 l 395 492 q 245 440 299 492 q 192 303 192 389 q 243 163 192 217 q 385 106 295 109 l 634 106 z "},"ԃ":{"ha":1196,"x_min":68,"x_max":1116,"o":"m 68 353 q 144 640 68 532 q 354 747 221 747 q 550 659 478 747 l 550 1058 l 675 1058 l 675 234 q 706 129 674 170 q 791 88 739 88 q 936 160 884 90 q 989 359 987 231 q 948 631 992 485 l 1069 632 q 1102 495 1088 563 q 1115 359 1116 428 q 1073 160 1114 244 q 958 31 1031 75 q 791 -14 884 -14 q 574 109 627 -17 q 353 -14 501 -14 q 145 82 222 -14 q 68 343 68 178 l 68 353 m 550 550 q 385 641 494 641 q 243 565 294 641 q 193 339 193 490 q 242 157 193 222 q 384 92 292 92 q 553 192 497 92 l 550 234 l 550 550 z "},"Ԅ":{"ha":1100,"x_min":37,"x_max":1013,"o":"m 172 429 l 172 536 l 277 536 q 435 579 385 538 q 485 710 485 621 q 275 880 485 880 l 37 880 l 37 987 l 283 987 q 530 916 445 987 q 616 709 616 845 q 455 485 616 551 q 607 262 604 438 l 607 208 q 635 123 607 154 q 707 92 663 92 q 831 163 786 94 q 880 359 877 233 q 838 632 882 486 l 964 632 l 980 572 q 1010 359 1013 446 q 924 86 1008 187 q 706 -14 841 -14 q 477 206 487 -20 l 477 250 q 431 380 477 331 q 306 429 385 429 l 172 429 z "},"ԅ":{"ha":897,"x_min":33,"x_max":852,"o":"m 504 144 q 567 85 503 85 q 683 139 643 86 q 725 284 723 191 q 683 500 728 388 l 805 500 q 844 366 836 410 q 851 284 852 323 q 770 64 848 145 q 567 -18 692 -18 q 429 18 475 -20 q 378 145 382 56 l 378 193 q 231 300 378 300 l 92 300 l 91 401 l 221 401 q 341 432 304 402 q 378 511 378 461 q 336 601 378 569 q 214 632 294 632 l 37 632 l 33 734 l 223 734 q 431 675 356 732 q 505 515 505 618 q 378 359 505 409 q 504 203 501 323 l 504 144 z "},"Ԇ":{"ha":744,"x_min":56,"x_max":687,"o":"m 119 429 l 119 532 l 233 532 q 397 575 345 532 q 450 707 450 617 q 239 884 450 884 l 56 884 l 56 987 l 252 987 q 492 913 409 985 q 574 706 574 842 q 419 485 574 553 q 572 258 570 437 l 572 144 l 687 144 l 687 43 q 654 -90 687 -22 q 569 -201 621 -158 l 497 -153 q 562 0 552 -75 l 489 0 q 446 151 448 35 l 446 248 q 397 381 446 334 q 267 429 347 429 l 119 429 z "},"ԇ":{"ha":699,"x_min":82,"x_max":668,"o":"m 132 298 l 131 401 l 279 401 q 437 511 437 402 q 271 632 437 632 l 82 632 l 82 734 l 282 734 q 505 662 432 732 q 564 516 564 606 q 435 357 564 407 q 564 184 563 321 l 564 133 l 668 133 l 668 33 q 635 -102 668 -33 q 549 -212 602 -170 l 478 -163 q 544 0 535 -85 l 474 0 q 438 113 439 22 l 438 176 q 290 298 438 298 l 132 298 z "},"Ԉ":{"ha":1346,"x_min":46,"x_max":1291,"o":"m 721 880 l 391 880 l 374 489 q 333 193 363 292 q 245 48 303 94 q 89 0 186 1 l 46 0 l 46 106 l 73 108 q 170 149 136 113 q 222 264 204 185 q 247 509 239 344 l 267 987 l 852 987 l 852 236 q 883 132 852 171 q 966 92 913 92 q 1106 162 1055 92 q 1160 359 1157 231 q 1118 631 1161 489 l 1244 632 q 1277 495 1263 563 q 1290 359 1291 428 q 1209 99 1288 199 q 998 -13 1130 -1 l 966 -14 q 783 49 845 -14 q 721 234 721 112 l 721 880 z "},"ԉ":{"ha":1121,"x_min":43,"x_max":1081,"o":"m 554 630 l 334 630 l 318 344 q 252 79 304 156 q 87 0 199 1 l 43 0 l 43 111 l 79 113 q 163 177 137 120 q 198 376 189 233 l 214 734 l 680 734 l 680 235 q 710 129 680 170 q 794 88 741 88 q 909 150 867 88 q 954 328 951 212 q 912 587 956 449 l 1034 587 l 1048 532 q 1079 328 1081 412 q 1041 146 1078 224 q 940 27 1004 68 q 794 -14 876 -14 q 615 48 676 -14 q 554 231 555 111 l 554 630 z "},"Ԋ":{"ha":1385,"x_min":115,"x_max":1292,"o":"m 852 987 l 852 236 q 884 130 852 168 q 966 92 916 92 q 1107 163 1057 94 q 1160 359 1157 233 q 1118 631 1162 483 l 1244 632 q 1277 497 1263 566 q 1291 359 1292 429 q 1247 160 1289 245 q 1133 30 1206 75 q 966 -14 1059 -14 q 788 45 850 -17 q 722 235 727 108 l 722 435 l 245 435 l 245 0 l 115 0 l 115 987 l 245 987 l 245 541 l 722 541 l 722 987 l 852 987 z "},"ԋ":{"ha":1151,"x_min":98,"x_max":1094,"o":"m 566 313 l 223 313 l 223 0 l 98 0 l 98 734 l 223 734 l 223 415 l 566 415 l 566 734 l 692 734 l 692 235 q 723 128 692 168 q 806 88 754 88 q 922 151 880 90 q 966 328 964 212 q 925 587 969 445 l 1046 587 l 1061 530 q 1092 328 1094 410 q 1011 78 1089 170 q 806 -14 933 -14 q 632 45 693 -17 q 566 234 572 107 l 566 313 z "},"Ԍ":{"ha":861,"x_min":80,"x_max":803,"o":"m 473 -14 q 272 38 361 -14 q 132 186 182 91 q 80 398 81 281 l 80 583 q 130 798 80 701 q 271 948 180 895 q 473 1002 361 1002 q 713 942 622 1002 l 673 848 q 473 895 583 895 q 283 807 356 895 q 210 577 210 720 l 210 405 q 243 244 210 316 q 336 132 277 172 q 473 92 396 92 q 619 145 568 94 q 672 288 670 197 q 638 533 674 393 l 764 533 l 790 412 q 802 288 803 350 q 759 128 801 196 q 642 23 718 60 q 473 -14 567 -14 z "},"ԍ":{"ha":714,"x_min":68,"x_max":656,"o":"m 402 88 q 498 117 467 90 q 530 204 528 144 q 516 364 530 287 l 637 364 q 655 204 656 262 q 586 43 652 100 q 402 -14 519 -14 q 161 90 253 -14 q 68 361 68 193 l 68 381 q 109 568 68 484 q 221 700 149 652 q 388 747 294 747 q 578 703 513 747 l 549 605 q 388 644 481 644 q 247 570 299 644 q 194 374 194 495 l 194 353 q 250 162 194 237 q 402 88 307 88 z "},"Ԏ":{"ha":985,"x_min":24,"x_max":916,"o":"m 346 880 l 24 880 l 24 987 l 805 987 l 805 880 l 477 880 l 477 235 q 508 131 477 170 q 591 92 539 92 q 732 164 682 94 q 785 359 782 235 q 743 631 787 483 l 869 632 q 902 497 887 566 q 914 359 916 429 q 872 160 913 244 q 757 31 831 75 q 591 -14 684 -14 q 413 45 475 -17 q 346 235 351 107 l 346 880 z "},"ԏ":{"ha":890,"x_min":47,"x_max":819,"o":"m 290 632 l 47 632 l 47 734 l 663 734 l 663 632 l 416 632 l 416 234 q 448 127 416 167 q 532 88 480 88 q 649 143 609 90 q 692 289 690 196 q 651 509 694 391 l 772 509 q 809 377 800 425 q 818 289 819 330 q 736 67 815 148 q 532 -14 658 -14 q 356 46 417 -17 q 290 234 296 109 l 290 632 z "},"Ԑ":{"ha":936,"x_min":102,"x_max":867,"o":"m 233 273 q 303 142 233 191 q 493 92 374 92 q 667 144 598 92 q 736 274 736 195 l 867 274 q 820 121 867 185 q 686 21 772 56 q 493 -14 600 -14 q 209 64 316 -14 q 102 275 102 142 q 289 507 102 448 q 162 595 208 539 q 117 720 117 652 q 216 927 117 853 q 493 1002 315 1002 q 676 967 593 1002 q 806 870 759 933 q 854 728 854 807 l 723 728 q 657 846 723 798 q 493 895 592 895 q 314 848 380 895 q 248 722 248 802 q 307 601 248 643 q 476 557 366 558 l 609 557 l 609 450 l 476 450 q 295 406 356 448 q 233 273 233 363 z "}," ":{"ha":708,"x_min":0,"x_max":0,"o":""}," ":{"ha":1417,"x_min":0,"x_max":0,"o":""}," ":{"ha":708,"x_min":0,"x_max":0,"o":""}," ":{"ha":1417,"x_min":0,"x_max":0,"o":""}," ":{"ha":473,"x_min":0,"x_max":0,"o":""}," ":{"ha":354,"x_min":0,"x_max":0,"o":""}," ":{"ha":236,"x_min":0,"x_max":0,"o":""}," ":{"ha":781,"x_min":0,"x_max":0,"o":""}," ":{"ha":380,"x_min":0,"x_max":0,"o":""}," ":{"ha":283,"x_min":0,"x_max":0,"o":""}," ":{"ha":142,"x_min":0,"x_max":0,"o":""},"​":{"ha":0,"x_min":0,"x_max":0,"o":""},"‐":{"ha":382,"x_min":25,"x_max":356,"o":"m 356 368 l 25 368 l 25 471 l 356 471 l 356 368 z "},"‑":{"ha":382,"x_min":25,"x_max":356,"o":"m 356 368 l 25 368 l 25 471 l 356 471 l 356 368 z "},"–":{"ha":911,"x_min":110,"x_max":790,"o":"m 790 441 l 110 441 l 110 544 l 790 544 l 790 441 z "},"—":{"ha":1084,"x_min":98,"x_max":1004,"o":"m 1004 441 l 98 441 l 98 544 l 1004 544 l 1004 441 z "},"‗":{"ha":633,"x_min":9,"x_max":630,"o":"m 630 -274 l 9 -274 l 9 -172 l 630 -172 l 630 -274 m 630 -102 l 9 -102 l 9 0 l 630 0 l 630 -102 z "},"‘":{"ha":277,"x_min":65,"x_max":255,"o":"m 183 1055 l 255 1006 q 190 820 192 920 l 190 728 l 65 728 l 65 806 q 98 943 65 876 q 183 1055 131 1011 z "},"’":{"ha":277,"x_min":33,"x_max":222,"o":"m 104 709 l 33 758 q 98 944 96 846 l 98 1042 l 222 1042 l 222 954 q 188 818 221 886 q 104 709 155 751 z "},"‚":{"ha":276,"x_min":24,"x_max":214,"o":"m 96 -192 l 24 -142 q 88 43 86 -56 l 88 123 l 214 123 l 214 55 q 180 -82 214 -14 q 96 -192 146 -151 z "},"‛":{"ha":277,"x_min":54,"x_max":243,"o":"m 178 1042 l 178 942 q 243 758 180 844 l 172 709 q 87 819 119 753 q 54 950 55 884 l 54 1042 l 178 1042 z "},"“":{"ha":491,"x_min":71,"x_max":474,"o":"m 189 1055 l 260 1006 q 195 820 197 920 l 195 728 l 71 728 l 71 806 q 103 943 71 876 q 189 1055 136 1011 m 402 1055 l 474 1006 q 409 820 411 920 l 409 728 l 284 728 l 284 806 q 317 943 284 876 q 402 1055 350 1011 z "},"”":{"ha":496,"x_min":41,"x_max":438,"o":"m 112 709 l 41 758 q 106 944 104 846 l 106 1042 l 230 1042 l 230 954 q 196 818 229 886 q 112 709 163 751 m 320 709 l 249 758 q 314 944 312 846 l 314 1042 l 438 1042 l 438 954 q 405 818 437 886 q 320 709 372 751 z "},"„":{"ha":478,"x_min":24,"x_max":415,"o":"m 96 -204 l 24 -155 q 88 41 86 -62 l 88 167 l 214 167 l 214 56 q 180 -89 214 -18 q 96 -204 146 -161 m 296 -204 l 225 -155 q 289 41 287 -62 l 289 167 l 415 167 l 415 56 q 382 -88 415 -17 q 296 -204 349 -159 z "},"†":{"ha":766,"x_min":47,"x_max":719,"o":"m 719 630 l 445 630 l 445 0 l 319 0 l 319 630 l 47 630 l 47 734 l 319 734 l 319 987 l 445 987 l 445 734 l 719 734 l 719 630 z "},"‡":{"ha":791,"x_min":59,"x_max":730,"o":"m 730 0 l 454 0 l 454 -282 l 328 -282 l 328 0 l 59 0 l 59 102 l 328 102 l 328 630 l 59 630 l 59 734 l 328 734 l 328 987 l 454 987 l 454 734 l 730 734 l 730 630 l 454 630 l 454 102 l 730 102 l 730 0 z "},"•":{"ha":468,"x_min":94,"x_max":370,"o":"m 94 524 q 131 621 94 583 q 231 659 169 659 q 332 622 293 659 q 370 522 370 585 l 370 496 q 333 400 370 437 q 232 363 296 363 q 131 400 169 363 q 94 498 94 438 l 94 524 z "},"‥":{"ha":654,"x_min":100,"x_max":553,"o":"m 100 66 q 120 120 100 98 q 178 142 139 142 q 236 120 216 142 q 256 66 256 98 q 236 14 256 35 q 178 -7 216 -7 q 120 14 139 -7 q 100 66 100 35 m 397 66 q 416 120 397 98 q 474 142 435 142 q 533 120 513 142 q 553 66 553 98 q 533 14 553 35 q 474 -7 513 -7 q 416 14 435 -7 q 397 66 397 35 z "},"…":{"ha":929,"x_min":100,"x_max":834,"o":"m 100 66 q 120 120 100 98 q 178 142 139 142 q 236 120 216 142 q 256 66 256 98 q 236 14 256 35 q 178 -7 216 -7 q 120 14 139 -7 q 100 66 100 35 m 397 66 q 416 120 397 98 q 474 142 435 142 q 533 120 513 142 q 553 66 553 98 q 533 14 553 35 q 474 -7 513 -7 q 416 14 435 -7 q 397 66 397 35 m 678 66 q 697 120 678 98 q 755 142 717 142 q 814 120 794 142 q 834 66 834 98 q 814 14 834 35 q 755 -7 794 -7 q 697 14 717 -7 q 678 66 678 35 z "},"‧":{"ha":167,"x_min":26,"x_max":140,"o":"m 140 368 l 26 368 l 26 471 l 140 471 l 140 368 z "},"‰":{"ha":1331,"x_min":46,"x_max":1274,"o":"m 558 242 q 615 388 558 331 q 760 446 671 446 q 916 363 863 446 q 1072 446 969 446 q 1217 389 1160 446 q 1274 237 1274 332 l 1274 189 q 1218 43 1274 100 q 1073 -14 1161 -14 q 916 67 969 -14 q 762 -14 864 -14 q 616 42 673 -14 q 558 193 558 99 l 558 242 m 46 798 q 103 944 46 886 q 248 1002 159 1002 q 394 944 338 1002 q 451 794 451 886 l 451 745 q 395 600 451 658 q 250 543 339 543 q 104 599 161 543 q 46 750 46 656 l 46 798 m 291 75 l 220 119 l 703 891 l 773 846 l 291 75 m 652 189 q 682 101 652 136 q 762 67 711 67 q 840 101 810 67 q 869 192 869 134 l 869 242 q 839 330 869 296 q 760 363 810 363 q 682 330 712 363 q 652 239 652 296 l 652 189 m 963 189 q 993 101 963 136 q 1072 67 1023 67 q 1150 102 1121 67 q 1179 192 1179 136 l 1179 242 q 1150 330 1179 296 q 1071 363 1120 363 q 992 330 1022 363 q 963 239 963 296 l 963 189 m 140 745 q 170 658 140 692 q 250 624 199 624 q 327 657 298 624 q 357 748 357 690 l 357 798 q 328 885 357 850 q 248 920 298 920 q 170 885 199 920 q 140 795 140 851 l 140 745 z "},"‹":{"ha":416,"x_min":73,"x_max":369,"o":"m 194 373 l 369 104 l 273 104 l 73 367 l 73 380 l 273 644 l 369 644 l 194 373 z "},"›":{"ha":416,"x_min":60,"x_max":357,"o":"m 157 644 l 357 380 l 357 367 l 157 103 l 60 103 l 235 373 l 60 644 l 157 644 z "},"⁄":{"ha":631,"x_min":40,"x_max":593,"o":"m 111 75 l 40 119 l 522 891 l 593 846 l 111 75 z "},"⁴":{"ha":509,"x_min":37,"x_max":474,"o":"m 401 648 l 474 648 l 474 559 l 401 559 l 401 445 l 295 445 l 295 559 l 41 559 l 37 629 l 292 980 l 401 980 l 401 648 m 144 648 l 295 648 l 295 844 l 283 825 l 144 648 z "},"ⁿ":{"ha":586,"x_min":83,"x_max":515,"o":"m 170 984 l 190 901 q 339 994 240 994 q 515 781 515 994 l 515 441 l 400 441 l 400 771 q 302 897 398 897 q 198 823 228 897 l 198 441 l 83 441 l 83 984 l 170 984 z "},"₤":{"ha":807,"x_min":62,"x_max":765,"o":"m 535 319 l 308 319 l 310 273 q 268 106 310 168 l 765 106 l 764 0 l 64 0 l 64 106 l 117 106 q 161 157 144 113 q 179 267 178 201 l 179 272 l 177 319 l 62 319 l 62 404 l 174 404 l 172 496 l 62 496 l 62 581 l 168 581 l 164 705 q 247 920 164 840 q 466 1001 330 1001 q 670 929 595 1001 q 745 737 745 857 l 616 737 q 573 852 616 810 q 454 894 530 894 q 339 842 383 894 q 295 705 295 789 l 299 581 l 535 581 l 535 496 l 302 496 l 305 404 l 535 404 l 535 319 z "},"₦":{"ha":1099,"x_min":21,"x_max":1078,"o":"m 927 637 l 1078 637 l 1078 534 l 927 534 l 927 434 l 1078 434 l 1078 331 l 927 331 l 927 0 l 795 0 l 579 331 l 298 331 l 298 0 l 168 0 l 168 331 l 21 331 l 21 434 l 168 434 l 168 534 l 21 534 l 21 637 l 168 637 l 168 987 l 298 987 l 527 637 l 798 637 l 798 987 l 927 987 l 927 637 m 298 434 l 512 434 l 446 534 l 298 534 l 298 434 m 659 434 l 798 434 l 798 534 l 594 534 l 659 434 m 298 637 l 379 637 l 298 761 l 298 637 m 798 223 l 798 331 l 727 331 l 798 223 z "},"₧":{"ha":1139,"x_min":113,"x_max":1044,"o":"m 1040 637 l 903 637 l 903 182 q 922 116 903 138 q 984 94 940 94 q 1043 102 1008 94 l 1044 0 q 947 -14 994 -14 q 820 37 863 -14 q 777 182 777 88 l 777 637 l 680 637 q 588 449 667 513 q 375 383 510 385 l 239 383 l 239 0 l 113 0 l 113 987 l 369 987 q 586 922 506 987 q 680 734 667 857 l 777 734 l 777 911 l 903 911 l 903 734 l 1040 734 l 1040 637 m 239 486 l 369 486 q 510 533 463 486 q 557 684 557 581 q 512 835 557 787 q 376 884 466 883 l 239 884 l 239 486 z "},"₨":{"ha":1469,"x_min":114,"x_max":1400,"o":"m 477 399 l 245 399 l 245 0 l 114 0 l 114 987 l 441 987 q 697 911 608 987 q 787 690 787 836 q 738 530 787 598 q 599 427 688 461 l 831 8 l 831 0 l 691 0 l 477 399 m 245 506 l 445 506 q 599 556 542 506 q 656 690 656 606 q 602 831 656 782 q 444 880 547 880 l 245 880 l 245 506 m 1274 195 q 1236 274 1274 245 q 1102 322 1198 302 q 951 371 1007 342 q 868 439 895 399 q 842 532 842 478 q 918 685 842 623 q 1113 747 994 747 q 1315 683 1238 747 q 1393 518 1393 618 l 1267 518 q 1223 607 1267 570 q 1113 644 1179 644 q 1006 614 1044 644 q 967 536 967 585 q 1003 468 967 491 q 1133 424 1039 445 q 1285 374 1227 403 q 1372 303 1343 345 q 1400 203 1400 262 q 1321 46 1400 105 q 1117 -14 1242 -14 q 961 18 1029 -14 q 855 105 893 49 q 817 226 817 161 l 942 226 q 992 126 945 163 q 1117 89 1040 89 q 1231 118 1188 89 q 1274 195 1274 146 z "},"₩":{"ha":1282,"x_min":39,"x_max":1243,"o":"m 786 665 l 1016 665 l 1089 987 l 1220 987 l 1142 665 l 1243 665 l 1243 562 l 1117 562 l 1085 430 l 1243 430 l 1243 327 l 1060 327 l 981 0 l 863 0 l 770 327 l 513 327 l 417 0 l 298 0 l 219 327 l 39 327 l 39 430 l 194 430 l 162 562 l 39 562 l 39 665 l 137 665 l 59 987 l 189 987 l 264 665 l 496 665 l 588 987 l 697 987 l 786 665 m 543 430 l 741 430 l 704 562 l 582 562 l 543 430 m 317 430 l 429 430 l 467 562 l 288 562 l 317 430 m 851 430 l 963 430 l 993 562 l 814 562 l 851 430 m 940 327 l 880 327 l 888 298 l 916 178 l 937 312 l 940 327 m 400 327 l 341 327 l 345 311 l 365 181 l 392 298 l 400 327 m 612 665 l 675 665 l 659 720 l 644 795 l 628 720 l 612 665 z "},"₪":{"ha":1071,"x_min":95,"x_max":975,"o":"m 473 734 q 649 668 592 734 q 709 473 706 603 l 709 237 l 583 237 l 583 462 q 549 589 583 548 q 439 630 515 629 l 220 630 l 220 0 l 95 0 l 95 734 l 473 734 m 361 0 l 361 497 l 487 497 l 487 103 l 703 103 q 814 143 779 103 q 850 268 849 182 l 850 734 l 975 734 l 975 266 q 918 68 974 134 q 745 0 862 1 l 361 0 z "},"€":{"ha":780,"x_min":64,"x_max":713,"o":"m 576 367 l 315 367 q 379 163 318 235 q 552 92 440 92 q 700 115 631 92 l 713 7 q 551 -14 632 -14 q 286 86 382 -14 q 185 367 189 185 l 64 367 l 64 451 l 185 451 l 185 544 l 64 544 l 64 629 l 185 629 q 289 904 192 806 q 550 1001 385 1001 q 713 980 622 1001 l 700 870 q 551 894 626 894 q 380 825 440 894 q 316 629 320 756 l 576 629 l 576 544 l 315 544 l 315 451 l 576 451 l 576 367 z "},"₱":{"ha":1016,"x_min":21,"x_max":996,"o":"m 286 387 l 286 0 l 155 0 l 155 553 l 21 553 l 21 656 l 155 656 l 155 720 l 21 720 l 21 822 l 155 822 l 155 987 l 519 987 q 719 943 640 987 q 836 822 799 898 l 996 822 l 996 720 l 863 720 l 865 686 l 864 656 l 996 656 l 996 553 l 840 553 q 515 387 768 387 l 286 387 m 735 684 l 732 720 l 286 720 l 286 656 l 734 656 l 735 684 m 691 553 l 286 553 l 286 493 l 519 493 q 691 553 636 493 m 286 822 l 683 822 q 519 880 626 880 l 286 880 l 286 822 z "},"₹":{"ha":718,"x_min":28,"x_max":689,"o":"m 658 880 l 498 880 q 553 746 541 825 l 689 746 l 658 639 l 555 639 q 459 457 543 518 q 227 396 376 396 l 562 8 l 562 0 l 408 0 l 48 418 l 47 503 l 216 503 q 354 540 301 504 q 421 639 407 576 l 28 639 l 60 746 l 420 746 q 220 880 387 875 l 30 880 l 62 987 l 689 987 l 658 880 z "},"₺":{"ha":773,"x_min":22,"x_max":712,"o":"m 712 523 l 712 455 q 662 207 711 313 q 523 44 613 100 q 315 -12 433 -12 q 187 0 260 -12 l 187 408 l 22 333 l 22 454 l 187 529 l 187 633 l 22 557 l 22 678 l 187 753 l 187 987 l 317 987 l 317 813 l 488 891 l 488 770 l 317 692 l 317 589 l 488 667 l 488 546 l 317 468 l 317 98 q 514 191 446 99 q 583 463 583 283 l 583 523 l 712 523 z "},"₼":{"ha":917,"x_min":63,"x_max":854,"o":"m 520 597 q 765 449 677 575 q 854 124 854 323 l 854 0 l 728 0 l 728 136 q 673 375 727 287 q 520 486 620 464 l 520 0 l 395 0 l 395 484 q 244 371 298 462 q 189 134 190 281 l 189 0 l 63 0 l 63 134 q 154 451 65 327 q 395 597 243 574 l 395 734 l 520 734 l 520 597 z "},"₽":{"ha":922,"x_min":21,"x_max":870,"o":"m 518 186 l 291 186 l 291 0 l 161 0 l 161 186 l 21 186 l 21 294 l 161 294 l 161 387 l 21 387 l 21 493 l 161 493 l 161 987 l 526 987 q 777 907 684 987 q 870 688 870 826 q 781 466 870 544 q 528 387 692 387 l 291 387 l 291 294 l 518 294 l 518 186 m 291 493 l 526 493 q 686 543 631 493 q 741 687 741 592 q 684 826 741 773 q 530 880 627 880 l 291 880 l 291 493 z "},"℅":{"ha":1025,"x_min":83,"x_max":957,"o":"m 461 715 q 410 591 461 640 q 275 543 358 543 q 137 600 192 543 q 83 749 83 656 l 83 798 q 136 944 83 886 q 273 1002 190 1002 q 408 952 355 1002 q 461 828 461 903 l 368 828 q 343 893 368 867 q 273 920 318 920 q 203 885 229 920 q 177 795 177 850 l 177 745 q 204 658 177 692 q 275 624 231 624 q 342 650 316 624 q 368 715 368 675 l 461 715 m 552 242 q 609 388 552 331 q 754 446 665 446 q 900 389 843 446 q 957 237 957 332 l 957 189 q 900 43 957 100 q 755 -14 844 -14 q 610 42 667 -14 q 552 193 552 99 l 552 242 m 646 189 q 675 101 646 136 q 755 67 705 67 q 833 101 804 67 q 863 192 863 134 l 863 242 q 833 330 863 296 q 754 363 804 363 q 676 330 706 363 q 646 239 646 296 l 646 189 m 302 75 l 231 119 l 713 891 l 785 846 l 302 75 z "},"ℓ":{"ha":661,"x_min":71,"x_max":593,"o":"m 486 -14 q 283 65 354 -14 q 212 304 212 144 q 71 285 145 285 l 71 404 q 212 428 147 404 l 212 800 q 266 987 212 920 q 409 1055 319 1055 q 542 996 490 1055 q 593 838 593 937 l 593 812 q 523 556 593 682 q 337 359 453 431 l 337 292 q 373 140 337 188 q 486 92 410 92 l 486 -14 m 337 507 q 432 647 397 564 q 467 814 467 730 l 467 840 q 451 922 467 896 q 409 947 435 947 q 337 806 339 947 l 337 507 z "},"№":{"ha":1428,"x_min":110,"x_max":1350,"o":"m 1326 279 l 909 279 l 909 376 l 1326 376 l 1326 279 m 885 764 q 948 934 885 869 q 1117 998 1011 998 q 1286 935 1223 998 q 1350 761 1350 871 l 1350 698 q 1287 528 1350 591 q 1118 465 1224 465 q 948 529 1011 465 q 885 701 885 592 l 885 764 m 996 698 q 1028 595 996 631 q 1118 559 1060 559 q 1207 595 1175 559 q 1239 696 1238 631 l 1239 764 q 1207 866 1239 830 q 1117 903 1175 903 q 1028 866 1060 903 q 996 763 996 830 l 996 698 m 776 0 l 637 0 l 235 769 l 235 0 l 110 0 l 110 987 l 248 987 l 652 216 l 652 987 l 776 987 l 776 0 z "},"™":{"ha":869,"x_min":70,"x_max":732,"o":"m 671 890 l 576 623 l 541 623 l 446 890 l 446 623 l 385 623 l 385 987 l 461 987 l 559 717 l 656 987 l 732 987 l 732 623 l 671 623 l 671 890 m 332 932 l 232 932 l 232 623 l 170 623 l 170 932 l 70 932 l 70 987 l 332 987 l 332 932 z "},"℮":{"ha":884,"x_min":103,"x_max":794,"o":"m 709 64 q 458 -14 585 -14 q 277 40 360 -14 q 149 180 195 93 q 103 367 103 267 q 152 552 103 464 q 285 693 201 640 q 458 747 369 747 q 626 700 549 747 q 747 571 703 653 q 794 391 792 488 l 794 349 l 273 349 l 273 126 q 458 52 354 52 q 708 134 591 52 l 709 64 m 458 684 q 273 601 356 684 l 273 413 l 640 413 l 640 607 q 458 684 562 684 z "},"⅛":{"ha":1067,"x_min":57,"x_max":989,"o":"m 310 438 l 203 438 l 203 846 l 57 807 l 57 894 l 298 973 l 310 973 l 310 438 m 267 75 l 196 119 l 678 891 l 749 846 l 267 75 m 976 393 q 895 275 976 313 q 989 146 989 235 q 935 34 989 75 q 789 -7 881 -7 q 642 34 696 -7 q 588 146 588 75 q 613 224 588 191 q 682 275 638 257 q 601 393 601 313 q 652 503 601 463 q 788 543 703 543 q 925 503 873 543 q 976 393 976 463 m 883 155 q 857 210 883 190 q 788 229 830 229 q 720 210 745 229 q 694 155 694 190 q 720 99 694 119 q 789 79 746 79 q 857 99 831 79 q 883 155 883 119 m 788 455 q 729 437 751 455 q 708 387 708 419 q 729 336 708 355 q 789 317 751 317 q 848 336 827 317 q 869 387 869 355 q 848 436 869 418 q 788 455 826 455 z "},"⅜":{"ha":1187,"x_min":68,"x_max":1098,"o":"m 205 759 l 262 759 q 337 780 313 759 q 361 833 361 800 q 340 883 361 863 q 271 903 319 903 q 207 885 233 903 q 182 840 182 868 l 75 840 q 131 948 75 907 q 270 990 186 990 q 416 949 363 990 q 469 838 469 908 q 445 769 469 800 q 376 722 421 739 q 477 597 477 694 q 420 483 477 525 q 270 440 362 440 q 124 483 180 440 q 68 598 68 526 l 175 598 q 202 547 175 568 q 274 527 229 527 q 346 547 321 527 q 371 602 371 568 q 265 680 371 679 l 205 680 l 205 759 m 396 75 l 326 119 l 808 891 l 878 846 l 396 75 m 1084 393 q 1004 275 1084 313 q 1098 146 1098 235 q 1044 34 1098 75 q 897 -7 989 -7 q 751 34 805 -7 q 696 146 696 75 q 722 224 696 191 q 790 275 747 257 q 709 393 709 313 q 761 503 709 463 q 897 543 812 543 q 1033 503 982 543 q 1084 393 1084 463 m 991 155 q 965 210 991 190 q 897 229 939 229 q 828 210 854 229 q 803 155 803 190 q 829 99 803 119 q 897 79 854 79 q 966 99 940 79 q 991 155 991 119 m 897 455 q 838 437 859 455 q 817 387 817 419 q 838 336 817 355 q 897 317 859 317 q 957 336 935 317 q 978 387 978 355 q 956 436 978 418 q 897 455 935 455 z "},"⅝":{"ha":1182,"x_min":67,"x_max":1091,"o":"m 81 707 l 115 979 l 439 979 l 439 890 l 203 890 l 188 774 q 282 794 232 794 q 417 748 369 794 q 466 619 466 701 q 412 486 466 535 q 267 437 357 437 q 128 479 184 437 q 67 591 71 522 l 172 591 q 267 524 179 524 q 335 549 311 524 q 359 621 359 574 q 333 689 359 663 q 256 715 307 715 q 167 686 207 715 l 81 707 m 373 75 l 302 119 l 785 891 l 855 846 l 373 75 m 1078 393 q 997 275 1078 313 q 1091 146 1091 235 q 1037 34 1091 75 q 890 -7 983 -7 q 744 34 798 -7 q 690 146 690 75 q 715 224 690 191 q 783 275 740 257 q 703 393 703 313 q 754 503 703 463 q 890 543 805 543 q 1026 503 975 543 q 1078 393 1078 463 m 985 155 q 958 210 985 190 q 890 229 932 229 q 822 210 847 229 q 796 155 796 190 q 822 99 796 119 q 890 79 848 79 q 959 99 933 79 q 985 155 985 119 m 890 455 q 831 437 852 455 q 810 387 810 419 q 831 336 810 355 q 890 317 852 317 q 950 336 928 317 q 971 387 971 355 q 949 436 971 418 q 890 455 928 455 z "},"⅞":{"ha":1114,"x_min":60,"x_max":1040,"o":"m 480 918 l 243 444 l 131 444 l 368 891 l 60 891 l 60 979 l 480 979 l 480 918 m 306 75 l 235 119 l 718 891 l 788 846 l 306 75 m 1026 393 q 945 275 1026 313 q 1040 146 1040 235 q 985 34 1040 75 q 839 -7 931 -7 q 692 34 747 -7 q 638 146 638 75 q 663 224 638 191 q 732 275 688 257 q 651 393 651 313 q 702 503 651 463 q 838 543 753 543 q 975 503 924 543 q 1026 393 1026 463 m 933 155 q 907 210 933 190 q 838 229 880 229 q 770 210 795 229 q 745 155 745 190 q 770 99 745 119 q 839 79 796 79 q 907 99 882 79 q 933 155 933 119 m 838 455 q 780 437 801 455 q 758 387 758 419 q 780 336 758 355 q 839 317 801 317 q 898 336 877 317 q 920 387 920 355 q 898 436 920 418 q 838 455 876 455 z "},"∂":{"ha":791,"x_min":72,"x_max":728,"o":"m 388 693 q 507 667 451 693 q 603 595 564 641 q 558 763 593 690 q 466 878 522 837 q 345 919 410 919 q 152 879 257 919 l 141 981 l 174 996 q 355 1028 253 1028 q 631 881 534 1028 q 728 461 728 734 l 728 427 q 688 199 728 300 q 572 42 647 98 q 399 -14 496 -14 q 161 84 251 -14 q 72 350 72 183 l 72 359 q 159 601 72 509 q 388 693 245 693 m 400 590 q 251 527 305 590 q 197 355 197 463 l 197 344 q 251 158 197 229 q 399 88 305 88 q 549 173 495 88 q 603 406 603 257 l 603 447 l 600 457 q 527 554 581 518 q 400 590 473 590 z "},"∏":{"ha":964,"x_min":115,"x_max":850,"o":"m 850 -144 l 724 -144 l 724 884 l 240 884 l 240 -144 l 115 -144 l 115 987 l 850 987 l 850 -144 z "},"∑":{"ha":813,"x_min":47,"x_max":810,"o":"m 593 391 l 199 -79 l 810 -79 l 810 -182 l 47 -182 l 47 -85 l 460 400 l 47 890 l 47 987 l 758 987 l 758 884 l 199 884 l 593 408 l 593 391 z "},"−":{"ha":793,"x_min":114,"x_max":680,"o":"m 680 441 l 114 441 l 114 544 l 680 544 l 680 441 z "},"√":{"ha":828,"x_min":43,"x_max":798,"o":"m 380 193 l 669 987 l 798 987 l 430 0 l 334 0 l 168 426 l 43 426 l 43 530 l 256 530 l 380 193 z "},"∞":{"ha":1428,"x_min":66,"x_max":1353,"o":"m 1353 357 q 1310 171 1353 258 q 1192 35 1267 84 q 1023 -14 1116 -14 q 844 48 925 -14 q 709 231 764 111 q 574 47 654 109 q 397 -14 494 -14 q 229 34 304 -14 q 110 170 153 83 q 66 359 66 256 l 66 375 q 109 562 66 475 q 228 698 152 648 q 395 747 303 747 q 574 685 494 747 q 709 502 654 623 q 845 685 764 622 q 1025 747 926 747 q 1259 639 1164 747 q 1353 366 1353 531 l 1353 357 m 192 357 q 248 163 192 237 q 397 88 304 88 q 537 152 474 88 q 635 326 600 216 l 642 353 l 642 381 q 587 513 626 448 q 499 611 549 578 q 395 644 450 644 q 248 570 304 644 q 192 370 192 495 l 192 357 m 1227 375 q 1171 569 1227 493 q 1025 644 1115 644 q 883 580 947 644 q 783 402 819 516 l 777 381 l 777 353 q 832 220 792 287 q 920 121 871 153 q 1023 88 969 88 q 1172 163 1116 88 q 1227 363 1227 239 l 1227 375 z "},"∫":{"ha":355,"x_min":-54,"x_max":444,"o":"m 242 -73 q 186 -239 242 -182 q 24 -296 131 -296 q -54 -283 -15 -296 l -42 -184 q 12 -193 -11 -193 q 117 -73 117 -193 l 117 812 q 177 991 117 927 q 346 1056 237 1056 q 444 1042 387 1056 l 427 945 q 366 953 402 953 q 242 804 242 953 l 242 -73 z "},"≈":{"ha":783,"x_min":68,"x_max":702,"o":"m 69 611 q 146 665 102 646 q 235 685 191 685 q 341 663 291 686 l 444 610 q 542 589 489 589 q 702 675 633 589 l 702 547 q 542 473 632 473 q 444 494 489 473 l 335 550 q 235 570 289 571 q 146 547 191 570 q 69 483 102 524 l 69 611 m 68 328 q 145 382 101 362 q 234 402 189 402 q 340 380 290 404 l 441 328 q 541 305 487 305 q 701 392 631 305 l 701 264 q 541 190 631 190 q 444 211 488 190 l 340 264 q 235 286 290 288 q 145 263 190 286 q 68 199 101 240 l 68 328 z "},"≠":{"ha":762,"x_min":103,"x_max":669,"o":"m 669 271 l 309 271 l 212 105 l 148 145 l 221 271 l 103 271 l 103 379 l 284 379 l 385 552 l 103 552 l 103 661 l 449 661 l 553 839 l 617 799 l 536 661 l 669 661 l 669 552 l 473 552 l 372 379 l 669 379 l 669 271 z "},"≤":{"ha":706,"x_min":42,"x_max":608,"o":"m 179 459 l 604 304 l 604 185 l 49 416 l 49 505 l 604 736 l 604 616 l 179 459 m 608 1 l 42 1 l 42 104 l 608 104 l 608 1 z "},"≥":{"ha":726,"x_min":90,"x_max":670,"o":"m 539 475 l 91 633 l 91 749 l 670 518 l 670 429 l 91 198 l 91 315 l 539 475 m 656 1 l 90 1 l 90 103 l 656 103 l 656 1 z "},"◊":{"ha":700,"x_min":29,"x_max":670,"o":"m 301 987 l 396 987 l 670 493 l 399 0 l 303 0 l 29 493 l 301 987 m 348 850 l 159 493 l 351 136 l 541 493 l 348 850 z "},"":{"ha":399,"x_min":123,"x_max":279,"o":"m 123 186 q 142 241 123 219 q 200 262 161 262 q 259 241 239 262 q 279 186 279 219 q 259 134 279 155 q 200 113 239 113 q 142 134 161 113 q 123 186 123 155 m 123 785 q 142 839 123 817 q 200 861 161 861 q 259 839 239 861 q 279 785 279 817 q 259 732 279 753 q 200 711 239 711 q 142 732 161 711 q 123 785 123 753 z "},"":{"ha":444,"x_min":75,"x_max":382,"o":"m 170 429 l 75 429 l 75 734 l 170 734 l 170 429 m 382 429 l 286 429 l 286 734 l 382 734 l 382 429 z "},"":{"ha":349,"x_min":62,"x_max":233,"o":"m 134 -109 l 62 -60 q 113 100 111 14 l 113 162 l 233 162 l 233 111 q 206 -12 233 49 q 134 -109 179 -73 z "},"ﬁ":{"ha":769,"x_min":21,"x_max":660,"o":"m 137 0 l 137 637 l 21 637 l 21 734 l 137 734 l 137 796 q 207 987 137 919 q 406 1056 277 1056 q 597 1015 481 1056 l 576 909 q 415 943 492 943 q 299 906 334 943 q 263 798 263 870 l 263 734 l 413 734 l 413 637 l 263 637 l 263 0 l 137 0 m 660 0 l 534 0 l 534 734 l 660 734 l 660 0 z "},"ﬂ":{"ha":789,"x_min":41,"x_max":679,"o":"m 553 935 q 418 949 469 949 q 282 806 282 949 l 282 734 l 439 734 l 439 637 l 282 637 l 282 0 l 157 0 l 157 637 l 41 637 l 41 734 l 157 734 l 157 814 q 222 994 157 931 q 408 1056 288 1056 q 679 1015 476 1056 l 679 0 l 553 0 l 553 935 z "},"ﬃ":{"ha":1185,"x_min":41,"x_max":1076,"o":"m 157 0 l 157 637 l 41 637 l 41 734 l 157 734 l 157 809 q 220 991 157 927 q 398 1056 283 1056 q 484 1044 441 1056 l 477 943 q 410 949 446 949 q 315 913 349 949 q 282 811 282 878 l 282 734 l 553 734 l 553 796 q 624 987 553 919 q 822 1056 694 1056 q 1014 1015 898 1056 l 993 909 q 831 943 908 943 q 714 907 750 943 q 679 798 679 871 l 679 734 l 829 734 l 829 637 l 679 637 l 679 0 l 553 0 l 553 637 l 282 637 l 282 0 l 157 0 m 1076 0 l 950 0 l 950 734 l 1076 734 l 1076 0 z "},"ﬄ":{"ha":1185,"x_min":41,"x_max":1076,"o":"m 157 0 l 157 637 l 41 637 l 41 734 l 157 734 l 157 809 q 220 991 157 927 q 398 1056 283 1056 q 484 1044 441 1056 l 477 943 q 410 949 446 949 q 315 913 349 949 q 282 811 282 878 l 282 734 l 553 734 l 553 814 q 619 994 554 931 q 804 1056 684 1056 q 1076 1015 873 1056 l 1076 0 l 950 0 l 950 935 q 814 949 866 949 q 679 806 679 949 l 679 734 l 836 734 l 836 637 l 679 637 l 679 0 l 553 0 l 553 637 l 282 637 l 282 0 l 157 0 z "},"﻿":{"ha":0,"x_min":0,"x_max":0,"o":""},"￼":{"ha":1423,"x_min":62,"x_max":1377,"o":"m 559 317 q 516 210 559 251 q 404 169 472 169 q 292 210 335 169 q 247 314 248 250 l 247 393 q 290 500 247 458 q 403 542 332 542 q 515 501 471 542 q 559 397 558 460 l 559 317 m 605 171 l 605 543 l 732 543 q 838 518 799 543 q 876 441 876 494 q 819 363 876 385 q 871 330 853 354 q 888 276 888 307 q 747 171 888 171 l 605 171 m 497 393 q 472 467 497 440 q 403 493 447 493 q 334 467 359 493 q 309 393 309 440 l 309 317 q 334 244 309 271 q 404 218 359 218 q 472 244 448 218 q 497 317 497 271 l 497 393 m 1144 545 l 1206 545 l 1206 288 q 1171 204 1206 235 q 1080 172 1135 172 q 983 200 1020 172 q 946 283 946 227 l 1009 283 q 1080 222 1009 222 q 1126 240 1107 222 q 1144 288 1144 258 l 1144 545 m 62 -270 l 62 -56 l 138 -56 l 138 -193 l 271 -193 l 271 -270 l 62 -270 m 1166 -270 l 1166 -193 l 1301 -193 l 1301 -56 l 1377 -56 l 1377 -270 l 1166 -270 m 62 793 l 62 986 l 271 986 l 271 907 l 138 907 l 138 793 l 62 793 m 1166 907 l 1166 986 l 1377 986 l 1377 793 l 1301 793 l 1301 907 l 1166 907 m 669 336 l 669 222 l 755 222 q 825 278 825 222 q 758 336 825 334 l 669 336 m 896 907 l 896 986 l 1084 986 l 1084 907 l 896 907 m 625 907 l 625 986 l 813 986 l 813 907 l 625 907 m 355 907 l 355 986 l 542 986 l 542 907 l 355 907 m 896 -270 l 896 -193 l 1084 -193 l 1084 -270 l 896 -270 m 625 -270 l 625 -193 l 813 -193 l 813 -270 l 625 -270 m 355 -270 l 355 -193 l 542 -193 l 542 -270 l 355 -270 m 669 384 l 732 384 q 812 438 812 384 q 793 476 812 466 q 732 486 773 486 l 669 486 l 669 384 m 138 282 l 62 282 l 62 453 l 138 453 l 138 282 m 138 538 l 62 538 l 62 708 l 138 708 l 138 538 m 138 28 l 62 28 l 62 197 l 138 197 l 138 28 m 1377 282 l 1301 282 l 1301 453 l 1377 453 l 1377 282 m 1377 538 l 1301 538 l 1301 708 l 1377 708 l 1377 538 m 1377 28 l 1301 28 l 1301 197 l 1377 197 l 1377 28 z "},"�":{"ha":1425,"x_min":62,"x_max":1361,"o":"m 711 1097 l 1361 436 l 711 -225 l 62 436 l 711 1097 m 767 273 q 777 332 767 312 q 812 368 787 351 q 893 440 862 394 q 924 536 924 486 q 868 674 924 623 q 710 725 811 725 q 558 678 612 725 q 503 545 504 631 l 640 545 q 661 597 642 579 q 710 614 681 614 q 768 593 749 614 q 787 536 787 571 q 724 431 787 471 q 646 355 662 387 q 630 273 630 324 l 767 273 m 767 211 l 630 211 l 630 96 l 767 96 l 767 211 m 716 -374 l 719 -374 l 719 -376 l 716 -376 l 716 -374 m 715 1467 l 718 1467 l 718 1464 l 715 1464 l 715 1467 z "}," ":{"ha":344,"x_min":0,"x_max":0,"o":""},"­":{"ha":383,"x_min":25,"x_max":356,"o":"m 356 368 l 25 368 l 25 471 l 356 471 l 356 368 z "},"Đ":{"ha":931,"x_min":25,"x_max":849,"o":"m 135 0 l 135 452 l 25 452 l 25 554 l 135 554 l 135 987 l 414 987 q 642 930 543 987 q 794 768 741 873 q 849 527 848 663 l 849 464 q 795 219 849 324 q 641 58 741 114 q 408 0 541 1 l 135 0 m 456 452 l 265 452 l 265 106 l 401 106 q 636 199 552 106 q 720 461 720 292 l 720 524 q 641 786 720 692 q 417 880 562 879 l 265 880 l 265 554 l 456 554 l 456 452 z "},"Ð":{"ha":931,"x_min":25,"x_max":849,"o":"m 135 0 l 135 452 l 25 452 l 25 554 l 135 554 l 135 987 l 414 987 q 642 930 543 987 q 794 768 741 873 q 849 527 848 663 l 849 464 q 795 219 849 324 q 641 58 741 114 q 408 0 541 1 l 135 0 m 456 452 l 265 452 l 265 106 l 401 106 q 636 199 552 106 q 720 461 720 292 l 720 524 q 641 786 720 692 q 417 880 562 879 l 265 880 l 265 554 l 456 554 l 456 452 z "},"ħ":{"ha":785,"x_min":0,"x_max":692,"o":"m 431 837 l 241 837 l 241 645 q 458 747 324 747 q 692 485 690 747 l 692 0 l 567 0 l 567 486 q 531 603 566 565 q 420 641 495 641 q 313 608 359 641 q 241 523 267 576 l 241 0 l 115 0 l 115 837 l 0 837 l 0 939 l 115 939 l 115 1042 l 241 1042 l 241 939 l 431 939 l 431 837 z "},"Ŧ":{"ha":829,"x_min":33,"x_max":797,"o":"m 636 558 l 479 558 l 479 0 l 350 0 l 350 558 l 205 558 l 205 661 l 350 661 l 350 880 l 33 880 l 33 987 l 797 987 l 797 880 l 479 880 l 479 661 l 636 661 l 636 558 z "},"ŧ":{"ha":454,"x_min":-8,"x_max":423,"o":"m 265 911 l 265 734 l 402 734 l 402 637 l 265 637 l 265 511 l 423 511 l 423 408 l 265 408 l 265 182 q 283 116 265 138 q 346 94 302 94 q 406 102 368 94 l 406 0 q 309 -14 356 -14 q 182 37 225 -14 q 140 182 140 88 l 140 408 l -8 408 l -8 511 l 140 511 l 140 637 l 6 637 l 6 734 l 140 734 l 140 911 l 265 911 z "},"À":{"ha":906,"x_min":19,"x_max":888,"o":"m 660 258 l 246 258 l 153 0 l 19 0 l 396 987 l 510 987 l 888 0 l 754 0 l 660 258 m 286 365 l 621 365 l 453 827 l 286 365 m 528 1051 l 420 1051 l 245 1251 l 396 1251 l 528 1051 z "},"Á":{"ha":906,"x_min":19,"x_max":888,"o":"m 660 258 l 246 258 l 153 0 l 19 0 l 396 987 l 510 987 l 888 0 l 754 0 l 660 258 m 286 365 l 621 365 l 453 827 l 286 365 m 517 1251 l 669 1251 l 488 1051 l 387 1051 l 517 1251 z "},"Â":{"ha":906,"x_min":19,"x_max":888,"o":"m 660 258 l 246 258 l 153 0 l 19 0 l 396 987 l 510 987 l 888 0 l 754 0 l 660 258 m 286 365 l 621 365 l 453 827 l 286 365 m 661 1066 l 661 1059 l 557 1059 l 456 1175 l 355 1059 l 251 1059 l 251 1067 l 418 1252 l 494 1252 l 661 1066 z "},"Ã":{"ha":906,"x_min":19,"x_max":888,"o":"m 660 258 l 246 258 l 153 0 l 19 0 l 396 987 l 510 987 l 888 0 l 754 0 l 660 258 m 286 365 l 621 365 l 453 827 l 286 365 m 696 1230 q 655 1112 696 1157 q 551 1066 613 1066 q 503 1073 523 1066 q 449 1101 482 1080 q 402 1126 416 1122 q 368 1131 387 1131 q 321 1109 340 1131 q 301 1055 301 1088 l 217 1059 q 258 1179 217 1132 q 362 1227 299 1227 q 405 1220 386 1227 q 456 1194 424 1213 q 506 1168 489 1174 q 545 1162 524 1162 q 593 1185 574 1162 q 612 1238 612 1208 l 696 1230 z "},"Ä":{"ha":906,"x_min":19,"x_max":888,"o":"m 660 258 l 246 258 l 153 0 l 19 0 l 396 987 l 510 987 l 888 0 l 754 0 l 660 258 m 286 365 l 621 365 l 453 827 l 286 365 m 238 1140 q 257 1191 238 1171 q 312 1212 275 1212 q 368 1191 349 1212 q 387 1140 387 1171 q 368 1089 387 1109 q 312 1069 349 1069 q 257 1089 275 1069 q 238 1140 238 1109 m 530 1139 q 548 1190 530 1169 q 604 1211 567 1211 q 659 1190 640 1211 q 678 1139 678 1169 q 659 1088 678 1108 q 604 1067 640 1067 q 548 1088 567 1067 q 530 1139 530 1108 z "},"Å":{"ha":906,"x_min":19,"x_max":888,"o":"m 660 258 l 246 258 l 153 0 l 19 0 l 396 987 l 510 987 l 888 0 l 754 0 l 660 258 m 286 365 l 621 365 l 453 827 l 286 365 m 602 1173 q 559 1074 602 1114 q 456 1034 517 1034 q 352 1074 393 1034 q 310 1173 310 1114 q 352 1272 310 1231 q 456 1314 393 1314 q 560 1272 518 1314 q 602 1173 602 1231 m 377 1173 q 400 1118 377 1141 q 456 1095 422 1095 q 511 1117 488 1095 q 534 1173 534 1139 q 512 1229 534 1206 q 456 1253 489 1253 q 399 1229 422 1253 q 377 1173 377 1205 z "},"Ǻ":{"ha":906,"x_min":19,"x_max":888,"o":"m 660 258 l 246 258 l 153 0 l 19 0 l 396 987 l 510 987 l 888 0 l 754 0 l 660 258 m 286 365 l 621 365 l 453 827 l 286 365 m 528 1316 l 656 1316 l 507 1191 l 430 1191 l 528 1316 m 342 1045 q 376 1125 342 1093 q 458 1158 410 1158 q 538 1126 505 1158 q 572 1045 572 1095 q 539 966 572 997 q 458 935 506 935 q 376 966 410 935 q 342 1045 342 998 m 399 1045 q 417 1004 399 1021 q 458 987 434 987 q 498 1004 482 987 q 515 1045 515 1021 q 498 1088 515 1071 q 458 1105 482 1105 q 416 1087 433 1105 q 399 1045 399 1069 z "},"Ç":{"ha":904,"x_min":81,"x_max":841,"o":"m 841 313 q 725 72 823 157 q 467 -14 628 -14 q 186 112 292 -14 q 81 448 81 237 l 81 543 q 130 785 81 680 q 269 945 179 889 q 478 1001 359 1001 q 730 913 635 1001 q 841 670 825 825 l 710 670 q 636 841 693 788 q 478 894 580 894 q 282 802 353 894 q 212 539 212 709 l 212 444 q 279 188 212 283 q 467 93 346 93 q 633 142 575 93 q 710 313 691 191 l 841 313 m 509 -6 l 501 -41 q 605 -159 605 -60 q 551 -263 605 -224 q 399 -301 496 -301 l 395 -229 q 478 -211 448 -229 q 507 -161 507 -193 q 486 -117 507 -132 q 397 -97 464 -103 l 419 -6 l 509 -6 z "},"È":{"ha":789,"x_min":115,"x_max":742,"o":"m 673 456 l 245 456 l 245 106 l 742 106 l 742 0 l 115 0 l 115 987 l 735 987 l 735 880 l 245 880 l 245 563 l 673 563 l 673 456 m 492 1059 l 384 1059 l 209 1259 l 360 1259 l 492 1059 z "},"É":{"ha":789,"x_min":115,"x_max":742,"o":"m 673 456 l 245 456 l 245 106 l 742 106 l 742 0 l 115 0 l 115 987 l 735 987 l 735 880 l 245 880 l 245 563 l 673 563 l 673 456 m 481 1259 l 633 1259 l 452 1059 l 351 1059 l 481 1259 z "},"Ê":{"ha":789,"x_min":115,"x_max":742,"o":"m 673 456 l 245 456 l 245 106 l 742 106 l 742 0 l 115 0 l 115 987 l 735 987 l 735 880 l 245 880 l 245 563 l 673 563 l 673 456 m 625 1074 l 625 1067 l 522 1067 l 420 1183 l 319 1067 l 215 1067 l 215 1076 l 382 1260 l 458 1260 l 625 1074 z "},"Ë":{"ha":789,"x_min":115,"x_max":742,"o":"m 673 456 l 245 456 l 245 106 l 742 106 l 742 0 l 115 0 l 115 987 l 735 987 l 735 880 l 245 880 l 245 563 l 673 563 l 673 456 m 202 1148 q 221 1199 202 1179 q 276 1220 239 1220 q 332 1199 313 1220 q 351 1148 351 1179 q 332 1097 351 1118 q 276 1077 313 1077 q 221 1097 239 1077 q 202 1148 202 1118 m 494 1147 q 512 1198 494 1177 q 568 1219 531 1219 q 623 1198 604 1219 q 642 1147 642 1177 q 623 1096 642 1116 q 568 1076 604 1076 q 512 1096 531 1076 q 494 1147 494 1116 z "},"Ì":{"ha":378,"x_min":-22,"x_max":261,"o":"m 254 0 l 124 0 l 124 987 l 254 987 l 254 0 m 261 1059 l 153 1059 l -22 1259 l 130 1259 l 261 1059 z "},"Í":{"ha":378,"x_min":119,"x_max":402,"o":"m 254 0 l 124 0 l 124 987 l 254 987 l 254 0 m 250 1259 l 402 1259 l 220 1059 l 119 1059 l 250 1259 z "},"Î":{"ha":378,"x_min":-16,"x_max":395,"o":"m 254 0 l 124 0 l 124 987 l 254 987 l 254 0 m 395 1074 l 395 1067 l 291 1067 l 189 1183 l 88 1067 l -16 1067 l -16 1076 l 151 1260 l 227 1260 l 395 1074 z "},"Ï":{"ha":378,"x_min":-28,"x_max":412,"o":"m 254 0 l 124 0 l 124 987 l 254 987 l 254 0 m -28 1148 q -10 1199 -28 1179 q 45 1220 9 1220 q 101 1199 82 1220 q 120 1148 120 1179 q 101 1097 120 1118 q 45 1077 82 1077 q -10 1097 9 1077 q -28 1148 -28 1118 m 263 1147 q 282 1198 263 1177 q 337 1219 300 1219 q 393 1198 374 1219 q 412 1147 412 1177 q 393 1096 412 1116 q 337 1076 374 1076 q 282 1096 300 1076 q 263 1147 263 1116 z "},"Ñ":{"ha":990,"x_min":115,"x_max":873,"o":"m 873 0 l 743 0 l 245 761 l 245 0 l 115 0 l 115 987 l 245 987 l 744 223 l 744 987 l 873 987 l 873 0 m 733 1230 q 691 1112 733 1157 q 587 1066 650 1066 q 539 1073 559 1066 q 486 1101 519 1080 q 438 1126 453 1122 q 405 1131 424 1131 q 357 1109 377 1131 q 338 1055 338 1088 l 254 1059 q 295 1179 254 1132 q 399 1227 336 1227 q 441 1220 422 1227 q 493 1194 460 1213 q 543 1168 526 1174 q 581 1162 560 1162 q 630 1185 610 1162 q 649 1238 649 1208 l 733 1230 z "},"Ò":{"ha":955,"x_min":80,"x_max":874,"o":"m 874 462 q 825 209 874 317 q 687 43 777 100 q 478 -14 597 -14 q 271 44 361 -14 q 131 207 181 101 q 80 453 81 313 l 80 524 q 130 776 80 667 q 270 943 179 885 q 477 1001 360 1001 q 686 944 595 1001 q 825 778 777 886 q 874 524 874 669 l 874 462 m 745 526 q 674 795 745 701 q 477 889 604 889 q 282 795 353 889 q 210 534 212 701 l 210 462 q 281 194 210 292 q 478 97 353 97 q 673 189 604 97 q 745 452 743 281 l 745 526 m 551 1053 l 443 1053 l 268 1252 l 419 1252 l 551 1053 z "},"Ó":{"ha":955,"x_min":80,"x_max":874,"o":"m 874 462 q 825 209 874 317 q 687 43 777 100 q 478 -14 597 -14 q 271 44 361 -14 q 131 207 181 101 q 80 453 81 313 l 80 524 q 130 776 80 667 q 270 943 179 885 q 477 1001 360 1001 q 686 944 595 1001 q 825 778 777 886 q 874 524 874 669 l 874 462 m 745 526 q 674 795 745 701 q 477 889 604 889 q 282 795 353 889 q 210 534 212 701 l 210 462 q 281 194 210 292 q 478 97 353 97 q 673 189 604 97 q 745 452 743 281 l 745 526 m 541 1252 l 692 1252 l 511 1053 l 410 1053 l 541 1252 z "},"Ô":{"ha":955,"x_min":80,"x_max":874,"o":"m 874 462 q 825 209 874 317 q 687 43 777 100 q 478 -14 597 -14 q 271 44 361 -14 q 131 207 181 101 q 80 453 81 313 l 80 524 q 130 776 80 667 q 270 943 179 885 q 477 1001 360 1001 q 686 944 595 1001 q 825 778 777 886 q 874 524 874 669 l 874 462 m 745 526 q 674 795 745 701 q 477 889 604 889 q 282 795 353 889 q 210 534 212 701 l 210 462 q 281 194 210 292 q 478 97 353 97 q 673 189 604 97 q 745 452 743 281 l 745 526 m 684 1067 l 684 1061 l 581 1061 l 479 1176 l 378 1061 l 274 1061 l 274 1069 l 441 1253 l 517 1253 l 684 1067 z "},"Õ":{"ha":955,"x_min":80,"x_max":874,"o":"m 874 462 q 825 209 874 317 q 687 43 777 100 q 478 -14 597 -14 q 271 44 361 -14 q 131 207 181 101 q 80 453 81 313 l 80 524 q 130 776 80 667 q 270 943 179 885 q 477 1001 360 1001 q 686 944 595 1001 q 825 778 777 886 q 874 524 874 669 l 874 462 m 745 526 q 674 795 745 701 q 477 889 604 889 q 282 795 353 889 q 210 534 212 701 l 210 462 q 281 194 210 292 q 478 97 353 97 q 673 189 604 97 q 745 452 743 281 l 745 526 m 720 1232 q 678 1113 720 1158 q 574 1067 636 1067 q 526 1074 546 1067 q 472 1102 505 1081 q 425 1127 439 1123 q 391 1132 410 1132 q 344 1111 363 1132 q 324 1056 324 1089 l 240 1061 q 281 1181 240 1133 q 385 1228 322 1228 q 428 1221 409 1228 q 479 1195 447 1215 q 529 1169 512 1175 q 568 1163 547 1163 q 616 1186 597 1163 q 635 1240 635 1209 l 720 1232 z "},"Ö":{"ha":955,"x_min":80,"x_max":874,"o":"m 874 462 q 825 209 874 317 q 687 43 777 100 q 478 -14 597 -14 q 271 44 361 -14 q 131 207 181 101 q 80 453 81 313 l 80 524 q 130 776 80 667 q 270 943 179 885 q 477 1001 360 1001 q 686 944 595 1001 q 825 778 777 886 q 874 524 874 669 l 874 462 m 745 526 q 674 795 745 701 q 477 889 604 889 q 282 795 353 889 q 210 534 212 701 l 210 462 q 281 194 210 292 q 478 97 353 97 q 673 189 604 97 q 745 452 743 281 l 745 526 m 261 1141 q 280 1193 261 1172 q 335 1213 298 1213 q 391 1193 372 1213 q 410 1141 410 1172 q 391 1090 410 1111 q 335 1070 372 1070 q 280 1090 298 1070 q 261 1141 261 1111 m 553 1140 q 571 1192 553 1171 q 627 1213 590 1213 q 682 1192 663 1213 q 701 1140 701 1171 q 682 1089 701 1109 q 627 1069 663 1069 q 571 1089 590 1069 q 553 1140 553 1109 z "},"Ù":{"ha":901,"x_min":95,"x_max":810,"o":"m 810 987 l 810 316 q 722 87 809 176 q 486 -12 635 -1 l 451 -14 q 193 74 289 -14 q 95 315 96 161 l 95 987 l 224 987 l 224 319 q 283 152 224 212 q 451 93 342 93 q 620 152 562 93 q 679 318 679 211 l 679 987 l 810 987 m 524 1051 l 416 1051 l 241 1251 l 393 1251 l 524 1051 z "},"Ú":{"ha":901,"x_min":95,"x_max":810,"o":"m 810 987 l 810 316 q 722 87 809 176 q 486 -12 635 -1 l 451 -14 q 193 74 289 -14 q 95 315 96 161 l 95 987 l 224 987 l 224 319 q 283 152 224 212 q 451 93 342 93 q 620 152 562 93 q 679 318 679 211 l 679 987 l 810 987 m 514 1251 l 666 1251 l 484 1051 l 383 1051 l 514 1251 z "},"Û":{"ha":901,"x_min":95,"x_max":810,"o":"m 810 987 l 810 316 q 722 87 809 176 q 486 -12 635 -1 l 451 -14 q 193 74 289 -14 q 95 315 96 161 l 95 987 l 224 987 l 224 319 q 283 152 224 212 q 451 93 342 93 q 620 152 562 93 q 679 318 679 211 l 679 987 l 810 987 m 658 1066 l 658 1059 l 554 1059 l 452 1175 l 351 1059 l 248 1059 l 248 1067 l 414 1252 l 490 1252 l 658 1066 z "},"Ü":{"ha":901,"x_min":95,"x_max":810,"o":"m 810 987 l 810 316 q 722 87 809 176 q 486 -12 635 -1 l 451 -14 q 193 74 289 -14 q 95 315 96 161 l 95 987 l 224 987 l 224 319 q 283 152 224 212 q 451 93 342 93 q 620 152 562 93 q 679 318 679 211 l 679 987 l 810 987 m 235 1140 q 253 1191 235 1171 q 309 1212 272 1212 q 364 1191 345 1212 q 383 1140 383 1171 q 364 1089 383 1109 q 309 1069 345 1069 q 253 1089 272 1069 q 235 1140 235 1109 m 526 1139 q 545 1190 526 1169 q 600 1211 564 1211 q 656 1190 637 1211 q 675 1139 675 1169 q 656 1088 675 1108 q 600 1067 637 1067 q 545 1088 564 1067 q 526 1139 526 1108 z "},"Ý":{"ha":834,"x_min":10,"x_max":821,"o":"m 416 492 l 673 987 l 821 987 l 481 368 l 481 0 l 351 0 l 351 368 l 10 987 l 159 987 l 416 492 m 480 1251 l 632 1251 l 450 1051 l 349 1051 l 480 1251 z "},"à":{"ha":755,"x_min":74,"x_max":680,"o":"m 548 0 q 530 77 537 22 q 321 -14 443 -14 q 143 48 213 -14 q 74 203 74 109 q 161 381 74 318 q 406 445 248 445 l 528 445 l 528 503 q 489 607 528 568 q 373 646 450 646 q 260 612 306 646 q 215 530 215 578 l 89 530 q 128 636 89 585 q 234 718 167 688 q 380 747 300 747 q 579 684 507 747 q 654 509 651 621 l 654 172 q 680 11 654 71 l 680 0 l 548 0 m 340 96 q 452 126 399 96 q 528 205 505 157 l 528 356 l 430 356 q 199 221 199 356 q 239 129 199 162 q 340 96 278 96 m 466 841 l 358 841 l 183 1040 l 334 1040 l 466 841 z "},"á":{"ha":755,"x_min":74,"x_max":680,"o":"m 548 0 q 530 77 537 22 q 321 -14 443 -14 q 143 48 213 -14 q 74 203 74 109 q 161 381 74 318 q 406 445 248 445 l 528 445 l 528 503 q 489 607 528 568 q 373 646 450 646 q 260 612 306 646 q 215 530 215 578 l 89 530 q 128 636 89 585 q 234 718 167 688 q 380 747 300 747 q 579 684 507 747 q 654 509 651 621 l 654 172 q 680 11 654 71 l 680 0 l 548 0 m 340 96 q 452 126 399 96 q 528 205 505 157 l 528 356 l 430 356 q 199 221 199 356 q 239 129 199 162 q 340 96 278 96 m 456 1040 l 608 1040 l 426 841 l 325 841 l 456 1040 z "},"â":{"ha":755,"x_min":74,"x_max":680,"o":"m 548 0 q 530 77 537 22 q 321 -14 443 -14 q 143 48 213 -14 q 74 203 74 109 q 161 381 74 318 q 406 445 248 445 l 528 445 l 528 503 q 489 607 528 568 q 373 646 450 646 q 260 612 306 646 q 215 530 215 578 l 89 530 q 128 636 89 585 q 234 718 167 688 q 380 747 300 747 q 579 684 507 747 q 654 509 651 621 l 654 172 q 680 11 654 71 l 680 0 l 548 0 m 340 96 q 452 126 399 96 q 528 205 505 157 l 528 356 l 430 356 q 199 221 199 356 q 239 129 199 162 q 340 96 278 96 m 600 856 l 600 849 l 496 849 l 394 964 l 293 849 l 189 849 l 189 857 l 356 1042 l 432 1042 l 600 856 z "},"ã":{"ha":755,"x_min":74,"x_max":680,"o":"m 548 0 q 530 77 537 22 q 321 -14 443 -14 q 143 48 213 -14 q 74 203 74 109 q 161 381 74 318 q 406 445 248 445 l 528 445 l 528 503 q 489 607 528 568 q 373 646 450 646 q 260 612 306 646 q 215 530 215 578 l 89 530 q 128 636 89 585 q 234 718 167 688 q 380 747 300 747 q 579 684 507 747 q 654 509 651 621 l 654 172 q 680 11 654 71 l 680 0 l 548 0 m 340 96 q 452 126 399 96 q 528 205 505 157 l 528 356 l 430 356 q 199 221 199 356 q 239 129 199 162 q 340 96 278 96 m 635 1020 q 593 901 635 947 q 489 856 551 856 q 441 863 461 856 q 388 890 420 869 q 340 916 355 911 q 307 920 326 920 q 259 899 279 920 q 239 844 239 878 l 155 849 q 196 969 155 922 q 300 1017 237 1017 q 343 1010 324 1017 q 395 983 362 1003 q 445 958 427 964 q 483 951 462 951 q 531 975 512 951 q 551 1028 551 998 l 635 1020 z "},"ä":{"ha":755,"x_min":74,"x_max":680,"o":"m 548 0 q 530 77 537 22 q 321 -14 443 -14 q 143 48 213 -14 q 74 203 74 109 q 161 381 74 318 q 406 445 248 445 l 528 445 l 528 503 q 489 607 528 568 q 373 646 450 646 q 260 612 306 646 q 215 530 215 578 l 89 530 q 128 636 89 585 q 234 718 167 688 q 380 747 300 747 q 579 684 507 747 q 654 509 651 621 l 654 172 q 680 11 654 71 l 680 0 l 548 0 m 340 96 q 452 126 399 96 q 528 205 505 157 l 528 356 l 430 356 q 199 221 199 356 q 239 129 199 162 q 340 96 278 96 m 176 930 q 195 981 176 960 q 250 1002 214 1002 q 306 981 287 1002 q 325 930 325 960 q 306 879 325 899 q 250 859 287 859 q 195 879 214 859 q 176 930 176 899 m 468 928 q 487 980 468 959 q 542 1001 505 1001 q 597 980 578 1001 q 616 928 616 959 q 597 878 616 898 q 542 857 578 857 q 487 878 505 857 q 468 928 468 898 z "},"å":{"ha":755,"x_min":74,"x_max":680,"o":"m 548 0 q 530 77 537 22 q 321 -14 443 -14 q 143 48 213 -14 q 74 203 74 109 q 161 381 74 318 q 406 445 248 445 l 528 445 l 528 503 q 489 607 528 568 q 373 646 450 646 q 260 612 306 646 q 215 530 215 578 l 89 530 q 128 636 89 585 q 234 718 167 688 q 380 747 300 747 q 579 684 507 747 q 654 509 651 621 l 654 172 q 680 11 654 71 l 680 0 l 548 0 m 340 96 q 452 126 399 96 q 528 205 505 157 l 528 356 l 430 356 q 199 221 199 356 q 239 129 199 162 q 340 96 278 96 m 540 962 q 498 864 540 903 q 394 824 456 824 q 290 864 332 824 q 248 962 248 904 q 290 1062 248 1021 q 394 1103 332 1103 q 498 1062 456 1103 q 540 962 540 1021 m 315 962 q 338 907 315 930 q 394 884 361 884 q 450 907 427 884 q 473 962 473 929 q 450 1019 473 996 q 394 1042 427 1042 q 338 1019 360 1042 q 315 962 315 995 z "},"ǻ":{"ha":755,"x_min":74,"x_max":680,"o":"m 548 0 q 530 77 537 22 q 321 -14 443 -14 q 143 48 213 -14 q 74 203 74 109 q 161 381 74 318 q 406 445 248 445 l 528 445 l 528 503 q 489 607 528 568 q 373 646 450 646 q 260 612 306 646 q 215 530 215 578 l 89 530 q 128 636 89 585 q 234 718 167 688 q 380 747 300 747 q 579 684 507 747 q 654 509 651 621 l 654 172 q 680 11 654 71 l 680 0 l 548 0 m 340 96 q 452 126 399 96 q 528 205 505 157 l 528 356 l 430 356 q 199 221 199 356 q 239 129 199 162 q 340 96 278 96 m 467 1106 l 595 1106 l 446 981 l 368 981 l 467 1106 m 280 836 q 314 916 280 883 q 397 949 348 949 q 476 917 443 949 q 510 836 510 885 q 477 756 510 787 q 397 725 444 725 q 314 757 348 725 q 280 836 280 789 m 338 836 q 355 795 338 812 q 397 778 372 778 q 437 794 420 778 q 453 836 453 811 q 437 878 453 861 q 397 895 420 895 q 355 878 372 895 q 338 836 338 860 z "},"ç":{"ha":727,"x_min":62,"x_max":681,"o":"m 389 89 q 507 130 456 89 q 562 231 557 170 l 681 231 q 637 111 677 168 q 531 20 597 54 q 389 -14 464 -14 q 151 86 239 -14 q 62 360 62 186 l 62 381 q 102 572 62 488 q 215 701 141 655 q 389 747 288 747 q 594 673 512 747 q 681 481 675 600 l 562 481 q 508 598 557 553 q 389 644 460 644 q 240 575 293 644 q 188 376 188 507 l 188 353 q 240 157 188 226 q 389 89 292 89 m 410 -6 l 401 -41 q 505 -159 505 -60 q 451 -263 505 -224 q 300 -301 397 -301 l 295 -229 q 378 -211 349 -229 q 408 -161 408 -193 q 386 -117 408 -132 q 298 -97 364 -103 l 319 -6 l 410 -6 z "},"è":{"ha":736,"x_min":63,"x_max":686,"o":"m 399 -14 q 157 84 250 -14 q 63 347 63 182 l 63 370 q 105 565 63 479 q 221 699 146 650 q 384 747 296 747 q 606 653 527 747 q 686 383 686 559 l 686 331 l 189 331 q 252 156 191 222 q 406 89 313 89 q 519 116 473 89 q 600 188 565 143 l 676 128 q 399 -14 584 -14 m 384 644 q 256 589 308 644 q 193 434 205 534 l 560 434 l 560 444 q 509 592 555 539 q 384 644 463 644 m 455 841 l 347 841 l 172 1040 l 323 1040 l 455 841 z "},"é":{"ha":736,"x_min":63,"x_max":686,"o":"m 399 -14 q 157 84 250 -14 q 63 347 63 182 l 63 370 q 105 565 63 479 q 221 699 146 650 q 384 747 296 747 q 606 653 527 747 q 686 383 686 559 l 686 331 l 189 331 q 252 156 191 222 q 406 89 313 89 q 519 116 473 89 q 600 188 565 143 l 676 128 q 399 -14 584 -14 m 384 644 q 256 589 308 644 q 193 434 205 534 l 560 434 l 560 444 q 509 592 555 539 q 384 644 463 644 m 445 1040 l 597 1040 l 415 841 l 314 841 l 445 1040 z "},"ê":{"ha":736,"x_min":63,"x_max":686,"o":"m 399 -14 q 157 84 250 -14 q 63 347 63 182 l 63 370 q 105 565 63 479 q 221 699 146 650 q 384 747 296 747 q 606 653 527 747 q 686 383 686 559 l 686 331 l 189 331 q 252 156 191 222 q 406 89 313 89 q 519 116 473 89 q 600 188 565 143 l 676 128 q 399 -14 584 -14 m 384 644 q 256 589 308 644 q 193 434 205 534 l 560 434 l 560 444 q 509 592 555 539 q 384 644 463 644 m 589 856 l 589 849 l 485 849 l 383 964 l 282 849 l 178 849 l 178 857 l 345 1042 l 421 1042 l 589 856 z "},"ë":{"ha":736,"x_min":63,"x_max":686,"o":"m 399 -14 q 157 84 250 -14 q 63 347 63 182 l 63 370 q 105 565 63 479 q 221 699 146 650 q 384 747 296 747 q 606 653 527 747 q 686 383 686 559 l 686 331 l 189 331 q 252 156 191 222 q 406 89 313 89 q 519 116 473 89 q 600 188 565 143 l 676 128 q 399 -14 584 -14 m 384 644 q 256 589 308 644 q 193 434 205 534 l 560 434 l 560 444 q 509 592 555 539 q 384 644 463 644 m 165 930 q 184 981 165 960 q 239 1002 203 1002 q 295 981 276 1002 q 314 930 314 960 q 295 879 314 899 q 239 859 276 859 q 184 879 203 859 q 165 930 165 899 m 457 928 q 476 980 457 959 q 531 1001 494 1001 q 587 980 568 1001 q 606 928 606 959 q 587 878 606 898 q 531 857 568 857 q 476 878 494 857 q 457 928 457 898 z "},"ì":{"ha":343,"x_min":-39,"x_max":243,"o":"m 231 0 l 105 0 l 105 734 l 231 734 l 231 0 m 243 840 l 136 840 l -39 1040 l 112 1040 l 243 840 z "},"í":{"ha":343,"x_min":102,"x_max":385,"o":"m 231 0 l 105 0 l 105 734 l 231 734 l 231 0 m 233 1040 l 385 1040 l 203 840 l 102 840 l 233 1040 z "},"î":{"ha":343,"x_min":-33,"x_max":377,"o":"m 231 0 l 105 0 l 105 734 l 231 734 l 231 0 m 377 855 l 377 848 l 273 848 l 172 964 l 71 848 l -33 848 l -33 857 l 134 1041 l 210 1041 l 377 855 z "},"ï":{"ha":343,"x_min":-46,"x_max":394,"o":"m 231 0 l 105 0 l 105 734 l 231 734 l 231 0 m -46 929 q -27 980 -46 960 q 28 1001 -9 1001 q 83 980 64 1001 q 102 929 102 960 q 83 878 102 899 q 28 858 64 858 q -27 878 -9 858 q -46 929 -46 899 m 245 928 q 264 979 245 958 q 319 1000 283 1000 q 375 979 356 1000 q 394 928 394 958 q 375 877 394 897 q 319 857 356 857 q 264 877 283 857 q 245 928 245 897 z "},"ñ":{"ha":766,"x_min":95,"x_max":672,"o":"m 214 734 l 218 642 q 437 747 302 747 q 672 485 670 747 l 672 0 l 547 0 l 547 486 q 510 603 546 565 q 399 641 475 641 q 292 608 338 641 q 220 523 246 576 l 220 0 l 95 0 l 95 734 l 214 734 m 629 1020 q 587 901 629 947 q 483 856 545 856 q 435 863 455 856 q 381 890 414 869 q 334 916 349 911 q 300 920 319 920 q 253 899 273 920 q 233 844 233 878 l 149 849 q 190 969 149 922 q 294 1017 231 1017 q 337 1010 318 1017 q 389 983 356 1003 q 438 958 421 964 q 477 951 456 951 q 525 975 506 951 q 545 1028 545 998 l 629 1020 z "},"ò":{"ha":792,"x_min":62,"x_max":730,"o":"m 62 374 q 104 568 62 481 q 222 701 146 654 q 395 747 298 747 q 637 644 545 747 q 730 368 730 540 l 730 359 q 689 166 730 252 q 571 34 648 81 q 396 -14 495 -14 q 154 90 247 -14 q 62 365 62 194 l 62 374 m 188 359 q 244 163 188 237 q 396 89 301 89 q 548 164 492 89 q 604 374 604 239 q 547 569 604 494 q 395 644 490 644 q 245 570 302 644 q 188 359 188 496 m 462 841 l 354 841 l 179 1040 l 330 1040 l 462 841 z "},"ó":{"ha":792,"x_min":62,"x_max":730,"o":"m 62 374 q 104 568 62 481 q 222 701 146 654 q 395 747 298 747 q 637 644 545 747 q 730 368 730 540 l 730 359 q 689 166 730 252 q 571 34 648 81 q 396 -14 495 -14 q 154 90 247 -14 q 62 365 62 194 l 62 374 m 188 359 q 244 163 188 237 q 396 89 301 89 q 548 164 492 89 q 604 374 604 239 q 547 569 604 494 q 395 644 490 644 q 245 570 302 644 q 188 359 188 496 m 452 1040 l 604 1040 l 422 841 l 321 841 l 452 1040 z "},"ô":{"ha":792,"x_min":62,"x_max":730,"o":"m 62 374 q 104 568 62 481 q 222 701 146 654 q 395 747 298 747 q 637 644 545 747 q 730 368 730 540 l 730 359 q 689 166 730 252 q 571 34 648 81 q 396 -14 495 -14 q 154 90 247 -14 q 62 365 62 194 l 62 374 m 188 359 q 244 163 188 237 q 396 89 301 89 q 548 164 492 89 q 604 374 604 239 q 547 569 604 494 q 395 644 490 644 q 245 570 302 644 q 188 359 188 496 m 595 856 l 595 849 l 492 849 l 390 964 l 289 849 l 185 849 l 185 857 l 352 1042 l 428 1042 l 595 856 z "},"õ":{"ha":792,"x_min":62,"x_max":730,"o":"m 62 374 q 104 568 62 481 q 222 701 146 654 q 395 747 298 747 q 637 644 545 747 q 730 368 730 540 l 730 359 q 689 166 730 252 q 571 34 648 81 q 396 -14 495 -14 q 154 90 247 -14 q 62 365 62 194 l 62 374 m 188 359 q 244 163 188 237 q 396 89 301 89 q 548 164 492 89 q 604 374 604 239 q 547 569 604 494 q 395 644 490 644 q 245 570 302 644 q 188 359 188 496 m 631 1020 q 589 901 631 947 q 485 856 547 856 q 437 863 457 856 q 384 890 416 869 q 336 916 351 911 q 302 920 321 920 q 255 899 275 920 q 235 844 235 878 l 151 849 q 192 969 151 922 q 296 1017 233 1017 q 339 1010 320 1017 q 391 983 358 1003 q 440 958 423 964 q 479 951 458 951 q 527 975 508 951 q 547 1028 547 998 l 631 1020 z "},"ö":{"ha":792,"x_min":62,"x_max":730,"o":"m 62 374 q 104 568 62 481 q 222 701 146 654 q 395 747 298 747 q 637 644 545 747 q 730 368 730 540 l 730 359 q 689 166 730 252 q 571 34 648 81 q 396 -14 495 -14 q 154 90 247 -14 q 62 365 62 194 l 62 374 m 188 359 q 244 163 188 237 q 396 89 301 89 q 548 164 492 89 q 604 374 604 239 q 547 569 604 494 q 395 644 490 644 q 245 570 302 644 q 188 359 188 496 m 172 930 q 191 981 172 960 q 246 1002 210 1002 q 302 981 283 1002 q 321 930 321 960 q 302 879 321 899 q 246 859 283 859 q 191 879 210 859 q 172 930 172 899 m 464 928 q 483 980 464 959 q 538 1001 501 1001 q 593 980 574 1001 q 612 928 612 959 q 593 878 612 898 q 538 857 574 857 q 483 878 501 857 q 464 928 464 898 z "},"ù":{"ha":766,"x_min":92,"x_max":670,"o":"m 548 73 q 333 -14 475 -14 q 154 55 216 -14 q 92 256 93 123 l 92 734 l 218 734 l 218 260 q 353 93 218 93 q 545 200 497 93 l 545 734 l 670 734 l 670 0 l 551 0 l 548 73 m 456 841 l 349 841 l 174 1040 l 325 1040 l 456 841 z "},"ú":{"ha":766,"x_min":92,"x_max":670,"o":"m 548 73 q 333 -14 475 -14 q 154 55 216 -14 q 92 256 93 123 l 92 734 l 218 734 l 218 260 q 353 93 218 93 q 545 200 497 93 l 545 734 l 670 734 l 670 0 l 551 0 l 548 73 m 446 1040 l 598 1040 l 416 841 l 315 841 l 446 1040 z "},"û":{"ha":766,"x_min":92,"x_max":670,"o":"m 548 73 q 333 -14 475 -14 q 154 55 216 -14 q 92 256 93 123 l 92 734 l 218 734 l 218 260 q 353 93 218 93 q 545 200 497 93 l 545 734 l 670 734 l 670 0 l 551 0 l 548 73 m 590 856 l 590 849 l 486 849 l 385 964 l 283 849 l 180 849 l 180 857 l 347 1042 l 422 1042 l 590 856 z "},"ü":{"ha":766,"x_min":92,"x_max":670,"o":"m 548 73 q 333 -14 475 -14 q 154 55 216 -14 q 92 256 93 123 l 92 734 l 218 734 l 218 260 q 353 93 218 93 q 545 200 497 93 l 545 734 l 670 734 l 670 0 l 551 0 l 548 73 m 167 930 q 185 981 167 960 q 241 1002 204 1002 q 296 981 277 1002 q 315 930 315 960 q 296 879 315 899 q 241 859 277 859 q 185 879 204 859 q 167 930 167 899 m 458 928 q 477 980 458 959 q 532 1001 496 1001 q 588 980 569 1001 q 607 928 607 959 q 588 878 607 898 q 532 857 569 857 q 477 878 496 857 q 458 928 458 898 z "},"ý":{"ha":657,"x_min":15,"x_max":640,"o":"m 335 184 l 506 734 l 640 734 l 345 -113 q 127 -296 277 -296 l 104 -294 l 57 -286 l 57 -184 l 91 -186 q 190 -161 155 -186 q 249 -66 226 -135 l 277 8 l 15 734 l 152 734 l 335 184 m 406 1040 l 558 1040 l 376 841 l 275 841 l 406 1040 z "},"ÿ":{"ha":657,"x_min":15,"x_max":640,"o":"m 335 184 l 506 734 l 640 734 l 345 -113 q 127 -296 277 -296 l 104 -294 l 57 -286 l 57 -184 l 91 -186 q 190 -161 155 -186 q 249 -66 226 -135 l 277 8 l 15 734 l 152 734 l 335 184 m 127 930 q 145 981 127 960 q 201 1002 164 1002 q 256 981 237 1002 q 275 930 275 960 q 256 879 275 899 q 201 859 237 859 q 145 879 164 859 q 127 930 127 899 m 418 928 q 437 980 418 959 q 492 1001 456 1001 q 548 980 529 1001 q 567 928 567 959 q 548 878 567 898 q 492 857 529 857 q 437 878 456 857 q 418 928 418 898 z "},"Ā":{"ha":906,"x_min":19,"x_max":888,"o":"m 660 258 l 246 258 l 153 0 l 19 0 l 396 987 l 510 987 l 888 0 l 754 0 l 660 258 m 286 365 l 621 365 l 453 827 l 286 365 m 701 1106 l 216 1106 l 216 1203 l 701 1203 l 701 1106 z "},"ā":{"ha":755,"x_min":74,"x_max":680,"o":"m 548 0 q 530 77 537 22 q 321 -14 443 -14 q 143 48 213 -14 q 74 203 74 109 q 161 381 74 318 q 406 445 248 445 l 528 445 l 528 503 q 489 607 528 568 q 373 646 450 646 q 260 612 306 646 q 215 530 215 578 l 89 530 q 128 636 89 585 q 234 718 167 688 q 380 747 300 747 q 579 684 507 747 q 654 509 651 621 l 654 172 q 680 11 654 71 l 680 0 l 548 0 m 340 96 q 452 126 399 96 q 528 205 505 157 l 528 356 l 430 356 q 199 221 199 356 q 239 129 199 162 q 340 96 278 96 m 639 896 l 155 896 l 155 993 l 639 993 l 639 896 z "},"Ă":{"ha":906,"x_min":19,"x_max":888,"o":"m 660 258 l 246 258 l 153 0 l 19 0 l 396 987 l 510 987 l 888 0 l 754 0 l 660 258 m 286 365 l 621 365 l 453 827 l 286 365 m 659 1225 q 603 1093 659 1143 q 456 1043 547 1043 q 309 1093 366 1043 q 253 1225 253 1143 l 355 1225 q 381 1151 355 1177 q 456 1124 407 1124 q 531 1150 504 1124 q 557 1225 557 1177 l 659 1225 z "},"ă":{"ha":755,"x_min":74,"x_max":680,"o":"m 548 0 q 530 77 537 22 q 321 -14 443 -14 q 143 48 213 -14 q 74 203 74 109 q 161 381 74 318 q 406 445 248 445 l 528 445 l 528 503 q 489 607 528 568 q 373 646 450 646 q 260 612 306 646 q 215 530 215 578 l 89 530 q 128 636 89 585 q 234 718 167 688 q 380 747 300 747 q 579 684 507 747 q 654 509 651 621 l 654 172 q 680 11 654 71 l 680 0 l 548 0 m 340 96 q 452 126 399 96 q 528 205 505 157 l 528 356 l 430 356 q 199 221 199 356 q 239 129 199 162 q 340 96 278 96 m 597 1015 q 542 883 597 932 q 395 833 486 833 q 248 883 304 833 q 191 1015 191 933 l 294 1015 q 319 940 294 967 q 395 913 345 913 q 469 940 442 913 q 496 1015 496 966 l 597 1015 z "},"Ą":{"ha":906,"x_min":19,"x_max":888,"o":"m 510 987 l 888 0 l 862 0 l 823 -31 q 746 -151 746 -92 q 799 -199 746 -199 q 867 -182 831 -199 l 876 -264 q 767 -294 828 -294 q 672 -258 707 -294 q 637 -165 637 -223 q 751 6 637 -67 l 660 258 l 246 258 l 153 0 l 19 0 l 396 987 l 510 987 m 286 365 l 621 365 l 453 827 l 286 365 z "},"ą":{"ha":755,"x_min":74,"x_max":680,"o":"m 545 5 q 530 77 535 31 q 321 -14 443 -14 q 143 48 213 -14 q 74 203 74 109 q 161 381 74 318 q 406 445 248 445 l 528 445 l 528 503 q 489 607 528 568 q 373 646 450 646 q 260 612 306 646 q 215 530 215 578 l 89 530 q 128 636 89 585 q 234 718 167 688 q 380 747 300 747 q 579 684 507 747 q 654 509 651 621 l 654 172 q 680 11 654 71 l 680 0 l 657 0 l 618 -31 q 541 -151 541 -92 q 594 -199 541 -199 q 662 -182 627 -199 l 671 -264 q 562 -294 623 -294 q 467 -258 502 -294 q 432 -165 432 -223 q 545 5 432 -67 m 340 96 q 452 126 399 96 q 528 205 505 157 l 528 356 l 430 356 q 199 221 199 356 q 239 129 199 162 q 340 96 278 96 z "},"Ć":{"ha":904,"x_min":81,"x_max":841,"o":"m 841 313 q 725 72 823 157 q 467 -14 628 -14 q 186 112 292 -14 q 81 448 81 237 l 81 543 q 130 785 81 680 q 269 945 179 889 q 478 1001 359 1001 q 730 913 635 1001 q 841 670 825 825 l 710 670 q 636 841 693 788 q 478 894 580 894 q 282 802 353 894 q 212 539 212 709 l 212 444 q 279 188 212 283 q 467 93 346 93 q 633 142 575 93 q 710 313 691 191 l 841 313 m 522 1273 l 674 1273 l 492 1074 l 391 1074 l 522 1273 z "},"ć":{"ha":727,"x_min":62,"x_max":681,"o":"m 389 89 q 507 130 456 89 q 562 231 557 170 l 681 231 q 637 111 677 168 q 531 20 597 54 q 389 -14 464 -14 q 151 86 239 -14 q 62 360 62 186 l 62 381 q 102 572 62 488 q 215 701 141 655 q 389 747 288 747 q 594 673 512 747 q 681 481 675 600 l 562 481 q 508 598 557 553 q 389 644 460 644 q 240 575 293 644 q 188 376 188 507 l 188 353 q 240 157 188 226 q 389 89 292 89 m 422 1040 l 574 1040 l 393 841 l 292 841 l 422 1040 z "},"Ĉ":{"ha":904,"x_min":81,"x_max":841,"o":"m 841 313 q 725 72 823 157 q 467 -14 628 -14 q 186 112 292 -14 q 81 448 81 237 l 81 543 q 130 785 81 680 q 269 945 179 889 q 478 1001 359 1001 q 730 913 635 1001 q 841 670 825 825 l 710 670 q 636 841 693 788 q 478 894 580 894 q 282 802 353 894 q 212 539 212 709 l 212 444 q 279 188 212 283 q 467 93 346 93 q 633 142 575 93 q 710 313 691 191 l 841 313 m 666 1088 l 666 1082 l 562 1082 l 460 1197 l 359 1082 l 256 1082 l 256 1090 l 422 1274 l 498 1274 l 666 1088 z "},"ĉ":{"ha":727,"x_min":62,"x_max":681,"o":"m 389 89 q 507 130 456 89 q 562 231 557 170 l 681 231 q 637 111 677 168 q 531 20 597 54 q 389 -14 464 -14 q 151 86 239 -14 q 62 360 62 186 l 62 381 q 102 572 62 488 q 215 701 141 655 q 389 747 288 747 q 594 673 512 747 q 681 481 675 600 l 562 481 q 508 598 557 553 q 389 644 460 644 q 240 575 293 644 q 188 376 188 507 l 188 353 q 240 157 188 226 q 389 89 292 89 m 566 856 l 566 849 l 463 849 l 361 964 l 260 849 l 156 849 l 156 857 l 323 1042 l 399 1042 l 566 856 z "},"Ċ":{"ha":904,"x_min":81,"x_max":841,"o":"m 841 313 q 725 72 823 157 q 467 -14 628 -14 q 186 112 292 -14 q 81 448 81 237 l 81 543 q 130 785 81 680 q 269 945 179 889 q 478 1001 359 1001 q 730 913 635 1001 q 841 670 825 825 l 710 670 q 636 841 693 788 q 478 894 580 894 q 282 802 353 894 q 212 539 212 709 l 212 444 q 279 188 212 283 q 467 93 346 93 q 633 142 575 93 q 710 313 691 191 l 841 313 m 387 1160 q 406 1211 387 1190 q 461 1232 425 1232 q 517 1211 498 1232 q 536 1160 536 1190 q 517 1109 536 1129 q 461 1088 498 1088 q 406 1109 425 1088 q 387 1160 387 1129 z "},"ċ":{"ha":727,"x_min":62,"x_max":681,"o":"m 389 89 q 507 130 456 89 q 562 231 557 170 l 681 231 q 637 111 677 168 q 531 20 597 54 q 389 -14 464 -14 q 151 86 239 -14 q 62 360 62 186 l 62 381 q 102 572 62 488 q 215 701 141 655 q 389 747 288 747 q 594 673 512 747 q 681 481 675 600 l 562 481 q 508 598 557 553 q 389 644 460 644 q 240 575 293 644 q 188 376 188 507 l 188 353 q 240 157 188 226 q 389 89 292 89 m 288 927 q 306 979 288 958 q 361 1000 325 1000 q 417 979 398 1000 q 436 927 436 958 q 417 876 436 897 q 361 856 398 856 q 306 876 325 856 q 288 927 288 897 z "},"Č":{"ha":904,"x_min":81,"x_max":841,"o":"m 841 313 q 725 72 823 157 q 467 -14 628 -14 q 186 112 292 -14 q 81 448 81 237 l 81 543 q 130 785 81 680 q 269 945 179 889 q 478 1001 359 1001 q 730 913 635 1001 q 841 670 825 825 l 710 670 q 636 841 693 788 q 478 894 580 894 q 282 802 353 894 q 212 539 212 709 l 212 444 q 279 188 212 283 q 467 93 346 93 q 633 142 575 93 q 710 313 691 191 l 841 313 m 460 1159 l 562 1274 l 670 1274 l 670 1267 l 498 1082 l 421 1082 l 251 1267 l 251 1274 l 357 1274 l 460 1159 z "},"č":{"ha":727,"x_min":62,"x_max":681,"o":"m 389 89 q 507 130 456 89 q 562 231 557 170 l 681 231 q 637 111 677 168 q 531 20 597 54 q 389 -14 464 -14 q 151 86 239 -14 q 62 360 62 186 l 62 381 q 102 572 62 488 q 215 701 141 655 q 389 747 288 747 q 594 673 512 747 q 681 481 675 600 l 562 481 q 508 598 557 553 q 389 644 460 644 q 240 575 293 644 q 188 376 188 507 l 188 353 q 240 157 188 226 q 389 89 292 89 m 360 926 l 462 1042 l 570 1042 l 570 1035 l 398 849 l 321 849 l 151 1035 l 151 1042 l 258 1042 l 360 926 z "},"Ď":{"ha":911,"x_min":115,"x_max":829,"o":"m 115 0 l 115 987 l 393 987 q 621 930 522 987 q 774 768 720 873 q 829 527 828 663 l 829 464 q 775 219 829 324 q 621 58 721 114 q 388 0 521 1 l 115 0 m 245 880 l 245 106 l 382 106 q 616 200 532 106 q 700 467 700 294 l 700 524 q 621 786 700 692 q 397 880 542 879 l 245 880 m 412 1145 l 513 1260 l 622 1260 l 622 1253 l 450 1067 l 373 1067 l 203 1253 l 203 1260 l 309 1260 l 412 1145 z "},"ď":{"ha":885,"x_min":64,"x_max":897,"o":"m 64 373 q 144 645 64 542 q 354 747 224 747 q 558 659 483 747 l 558 1042 l 684 1042 l 684 0 l 568 0 l 562 79 q 353 -14 487 -14 q 145 91 225 -14 q 64 363 64 195 l 64 373 m 190 359 q 241 163 190 234 q 384 93 293 93 q 558 200 503 93 l 558 537 q 385 641 502 641 q 241 570 293 641 q 190 359 190 498 m 798 772 l 727 821 q 777 981 776 895 l 777 1043 l 897 1043 l 897 991 q 870 869 897 930 q 798 772 844 808 z "},"Ē":{"ha":789,"x_min":115,"x_max":742,"o":"m 673 456 l 245 456 l 245 106 l 742 106 l 742 0 l 115 0 l 115 987 l 735 987 l 735 880 l 245 880 l 245 563 l 673 563 l 673 456 m 665 1114 l 180 1114 l 180 1211 l 665 1211 l 665 1114 z "},"ē":{"ha":736,"x_min":63,"x_max":686,"o":"m 399 -14 q 157 84 250 -14 q 63 347 63 182 l 63 370 q 105 565 63 479 q 221 699 146 650 q 384 747 296 747 q 606 653 527 747 q 686 383 686 559 l 686 331 l 189 331 q 252 156 191 222 q 406 89 313 89 q 519 116 473 89 q 600 188 565 143 l 676 128 q 399 -14 584 -14 m 384 644 q 256 589 308 644 q 193 434 205 534 l 560 434 l 560 444 q 509 592 555 539 q 384 644 463 644 m 628 896 l 144 896 l 144 993 l 628 993 l 628 896 z "},"Ĕ":{"ha":789,"x_min":115,"x_max":742,"o":"m 673 456 l 245 456 l 245 106 l 742 106 l 742 0 l 115 0 l 115 987 l 735 987 l 735 880 l 245 880 l 245 563 l 673 563 l 673 456 m 623 1233 q 567 1101 623 1151 q 420 1051 511 1051 q 273 1101 330 1051 q 217 1233 217 1152 l 319 1233 q 345 1159 319 1185 q 420 1132 371 1132 q 495 1158 468 1132 q 522 1233 522 1185 l 623 1233 z "},"ĕ":{"ha":736,"x_min":63,"x_max":686,"o":"m 399 -14 q 157 84 250 -14 q 63 347 63 182 l 63 370 q 105 565 63 479 q 221 699 146 650 q 384 747 296 747 q 606 653 527 747 q 686 383 686 559 l 686 331 l 189 331 q 252 156 191 222 q 406 89 313 89 q 519 116 473 89 q 600 188 565 143 l 676 128 q 399 -14 584 -14 m 384 644 q 256 589 308 644 q 193 434 205 534 l 560 434 l 560 444 q 509 592 555 539 q 384 644 463 644 m 587 1015 q 531 883 587 932 q 384 833 475 833 q 237 883 293 833 q 180 1015 180 933 l 283 1015 q 309 940 283 967 q 384 913 334 913 q 458 940 431 913 q 485 1015 485 966 l 587 1015 z "},"Ė":{"ha":789,"x_min":115,"x_max":742,"o":"m 673 456 l 245 456 l 245 106 l 742 106 l 742 0 l 115 0 l 115 987 l 735 987 l 735 880 l 245 880 l 245 563 l 673 563 l 673 456 m 347 1145 q 365 1197 347 1176 q 420 1218 384 1218 q 476 1197 457 1218 q 495 1145 495 1176 q 476 1095 495 1115 q 420 1074 457 1074 q 365 1095 384 1074 q 347 1145 347 1115 z "},"ė":{"ha":736,"x_min":63,"x_max":686,"o":"m 399 -14 q 157 84 250 -14 q 63 347 63 182 l 63 370 q 105 565 63 479 q 221 699 146 650 q 384 747 296 747 q 606 653 527 747 q 686 383 686 559 l 686 331 l 189 331 q 252 156 191 222 q 406 89 313 89 q 519 116 473 89 q 600 188 565 143 l 676 128 q 399 -14 584 -14 m 384 644 q 256 589 308 644 q 193 434 205 534 l 560 434 l 560 444 q 509 592 555 539 q 384 644 463 644 m 310 927 q 329 979 310 958 q 384 1000 347 1000 q 439 979 420 1000 q 458 927 458 958 q 439 876 458 897 q 384 856 420 856 q 329 876 347 856 q 310 927 310 897 z "},"Ę":{"ha":789,"x_min":115,"x_max":742,"o":"m 673 456 l 245 456 l 245 106 l 742 106 l 742 0 l 692 0 l 653 -31 q 576 -151 576 -92 q 629 -199 576 -199 q 697 -182 662 -199 l 706 -264 q 597 -294 659 -294 q 502 -258 537 -294 q 467 -165 467 -223 q 572 0 467 -71 l 115 0 l 115 987 l 735 987 l 735 880 l 245 880 l 245 563 l 673 563 l 673 456 z "},"ę":{"ha":736,"x_min":63,"x_max":686,"o":"m 676 128 q 550 17 628 54 l 551 17 l 511 -14 q 435 -134 435 -75 q 488 -182 435 -182 q 555 -165 520 -182 l 564 -247 q 456 -277 517 -277 q 360 -241 395 -277 q 326 -148 326 -206 q 392 -14 326 -75 q 154 87 244 -11 q 63 347 63 185 l 63 370 q 105 565 63 479 q 221 699 146 650 q 384 747 296 747 q 606 653 527 747 q 686 383 686 559 l 686 331 l 189 331 q 252 156 191 222 q 406 89 313 89 q 519 116 473 89 q 600 188 565 143 l 676 128 m 384 644 q 256 589 308 644 q 193 434 205 534 l 560 434 l 560 444 q 509 592 555 539 q 384 644 463 644 z "},"Ě":{"ha":789,"x_min":115,"x_max":742,"o":"m 673 456 l 245 456 l 245 106 l 742 106 l 742 0 l 115 0 l 115 987 l 735 987 l 735 880 l 245 880 l 245 563 l 673 563 l 673 456 m 419 1145 l 521 1260 l 629 1260 l 629 1253 l 457 1067 l 380 1067 l 210 1253 l 210 1260 l 317 1260 l 419 1145 z "},"ě":{"ha":736,"x_min":63,"x_max":686,"o":"m 399 -14 q 157 84 250 -14 q 63 347 63 182 l 63 370 q 105 565 63 479 q 221 699 146 650 q 384 747 296 747 q 606 653 527 747 q 686 383 686 559 l 686 331 l 189 331 q 252 156 191 222 q 406 89 313 89 q 519 116 473 89 q 600 188 565 143 l 676 128 q 399 -14 584 -14 m 384 644 q 256 589 308 644 q 193 434 205 534 l 560 434 l 560 444 q 509 592 555 539 q 384 644 463 644 m 382 926 l 484 1042 l 593 1042 l 593 1035 l 420 849 l 344 849 l 174 1035 l 174 1042 l 280 1042 l 382 926 z "},"Ĝ":{"ha":946,"x_min":83,"x_max":844,"o":"m 844 130 q 704 22 793 58 q 494 -14 614 -14 q 280 43 374 -14 q 135 204 186 100 q 83 446 84 309 l 83 532 q 187 878 83 755 q 479 1001 291 1001 q 728 922 634 1001 q 844 698 823 843 l 713 698 q 480 894 677 894 q 282 802 349 894 q 214 536 214 710 l 214 455 q 290 191 214 289 q 495 93 366 93 q 623 109 568 93 q 714 164 678 125 l 714 386 l 486 386 l 486 492 l 844 492 l 844 130 m 661 1088 l 661 1082 l 557 1082 l 455 1197 l 354 1082 l 250 1082 l 250 1090 l 417 1274 l 493 1274 l 661 1088 z "},"ĝ":{"ha":779,"x_min":65,"x_max":685,"o":"m 65 373 q 144 646 65 545 q 355 747 224 747 q 564 652 489 747 l 570 734 l 685 734 l 685 18 q 601 -207 685 -125 q 374 -289 516 -289 q 218 -255 294 -289 q 102 -162 142 -221 l 168 -87 q 365 -186 248 -186 q 508 -135 456 -186 q 559 10 559 -83 l 559 73 q 353 -14 484 -14 q 145 90 224 -14 q 65 373 65 194 m 191 359 q 242 164 191 235 q 385 93 293 93 q 559 201 503 93 l 559 536 q 386 641 501 641 q 243 570 294 641 q 191 359 191 498 m 583 856 l 583 849 l 479 849 l 377 964 l 276 849 l 172 849 l 172 857 l 339 1042 l 415 1042 l 583 856 z "},"Ğ":{"ha":946,"x_min":83,"x_max":844,"o":"m 844 130 q 704 22 793 58 q 494 -14 614 -14 q 280 43 374 -14 q 135 204 186 100 q 83 446 84 309 l 83 532 q 187 878 83 755 q 479 1001 291 1001 q 728 922 634 1001 q 844 698 823 843 l 713 698 q 480 894 677 894 q 282 802 349 894 q 214 536 214 710 l 214 455 q 290 191 214 289 q 495 93 366 93 q 623 109 568 93 q 714 164 678 125 l 714 386 l 486 386 l 486 492 l 844 492 l 844 130 m 659 1247 q 603 1115 659 1165 q 456 1065 547 1065 q 309 1116 365 1065 q 252 1247 252 1166 l 355 1247 q 380 1173 355 1200 q 456 1146 406 1146 q 530 1173 503 1146 q 557 1247 557 1199 l 659 1247 z "},"ğ":{"ha":779,"x_min":65,"x_max":685,"o":"m 65 373 q 144 646 65 545 q 355 747 224 747 q 564 652 489 747 l 570 734 l 685 734 l 685 18 q 601 -207 685 -125 q 374 -289 516 -289 q 218 -255 294 -289 q 102 -162 142 -221 l 168 -87 q 365 -186 248 -186 q 508 -135 456 -186 q 559 10 559 -83 l 559 73 q 353 -14 484 -14 q 145 90 224 -14 q 65 373 65 194 m 191 359 q 242 164 191 235 q 385 93 293 93 q 559 201 503 93 l 559 536 q 386 641 501 641 q 243 570 294 641 q 191 359 191 498 m 581 1015 q 525 883 581 932 q 378 833 469 833 q 231 883 287 833 q 174 1015 174 933 l 277 1015 q 302 940 277 967 q 378 913 328 913 q 452 940 425 913 q 479 1015 479 966 l 581 1015 z "},"Ġ":{"ha":946,"x_min":83,"x_max":844,"o":"m 844 130 q 704 22 793 58 q 494 -14 614 -14 q 280 43 374 -14 q 135 204 186 100 q 83 446 84 309 l 83 532 q 187 878 83 755 q 479 1001 291 1001 q 728 922 634 1001 q 844 698 823 843 l 713 698 q 480 894 677 894 q 282 802 349 894 q 214 536 214 710 l 214 455 q 290 191 214 289 q 495 93 366 93 q 623 109 568 93 q 714 164 678 125 l 714 386 l 486 386 l 486 492 l 844 492 l 844 130 m 382 1160 q 400 1211 382 1190 q 456 1232 419 1232 q 511 1211 492 1232 q 530 1160 530 1190 q 511 1109 530 1129 q 456 1088 492 1088 q 400 1109 419 1088 q 382 1160 382 1129 z "},"ġ":{"ha":779,"x_min":65,"x_max":685,"o":"m 65 373 q 144 646 65 545 q 355 747 224 747 q 564 652 489 747 l 570 734 l 685 734 l 685 18 q 601 -207 685 -125 q 374 -289 516 -289 q 218 -255 294 -289 q 102 -162 142 -221 l 168 -87 q 365 -186 248 -186 q 508 -135 456 -186 q 559 10 559 -83 l 559 73 q 353 -14 484 -14 q 145 90 224 -14 q 65 373 65 194 m 191 359 q 242 164 191 235 q 385 93 293 93 q 559 201 503 93 l 559 536 q 386 641 501 641 q 243 570 294 641 q 191 359 191 498 m 304 927 q 322 979 304 958 q 378 1000 341 1000 q 433 979 414 1000 q 452 927 452 958 q 433 876 452 897 q 378 856 414 856 q 322 876 341 856 q 304 927 304 897 z "},"Ģ":{"ha":946,"x_min":83,"x_max":844,"o":"m 844 130 q 704 22 793 58 q 494 -14 614 -14 q 280 43 374 -14 q 135 204 186 100 q 83 446 84 309 l 83 532 q 187 878 83 755 q 479 1001 291 1001 q 728 922 634 1001 q 844 698 823 843 l 713 698 q 480 894 677 894 q 282 802 349 894 q 214 536 214 710 l 214 455 q 290 191 214 289 q 495 93 366 93 q 623 109 568 93 q 714 164 678 125 l 714 386 l 486 386 l 486 492 l 844 492 l 844 130 m 418 -348 l 347 -299 q 397 -139 395 -225 l 397 -77 l 517 -77 l 517 -128 q 490 -251 517 -190 q 418 -348 463 -311 z "},"ģ":{"ha":779,"x_min":65,"x_max":685,"o":"m 65 373 q 144 646 65 545 q 355 747 224 747 q 564 652 489 747 l 570 734 l 685 734 l 685 18 q 601 -207 685 -125 q 374 -289 516 -289 q 218 -255 294 -289 q 102 -162 142 -221 l 168 -87 q 365 -186 248 -186 q 508 -135 456 -186 q 559 10 559 -83 l 559 73 q 353 -14 484 -14 q 145 90 224 -14 q 65 373 65 194 m 191 359 q 242 164 191 235 q 385 93 293 93 q 559 201 503 93 l 559 536 q 386 641 501 641 q 243 570 294 641 q 191 359 191 498 m 406 1141 l 478 1085 q 436 943 438 1018 l 436 850 l 311 850 l 311 939 q 339 1049 311 991 q 406 1141 368 1108 z "},"Ĥ":{"ha":990,"x_min":115,"x_max":873,"o":"m 873 0 l 743 0 l 743 456 l 245 456 l 245 0 l 115 0 l 115 987 l 245 987 l 245 563 l 743 563 l 743 987 l 873 987 l 873 0 m 688 1074 l 688 1067 l 585 1067 l 483 1183 l 382 1067 l 278 1067 l 278 1076 l 445 1260 l 521 1260 l 688 1074 z "},"ĥ":{"ha":765,"x_min":95,"x_max":672,"o":"m 220 645 q 437 747 304 747 q 672 485 670 747 l 672 0 l 547 0 l 547 486 q 510 603 546 565 q 399 641 475 641 q 292 608 338 641 q 220 523 246 576 l 220 0 l 95 0 l 95 1042 l 220 1042 l 220 645 m 545 1074 l 545 1067 l 441 1067 l 339 1182 l 238 1067 l 134 1067 l 134 1075 l 301 1259 l 377 1259 l 545 1074 z "},"Ĩ":{"ha":378,"x_min":-50,"x_max":430,"o":"m 254 0 l 124 0 l 124 987 l 254 987 l 254 0 m 430 1238 q 388 1120 430 1165 q 284 1074 347 1074 q 236 1081 256 1074 q 183 1109 216 1088 q 135 1134 150 1130 q 102 1139 121 1139 q 54 1117 74 1139 q 35 1063 35 1096 l -50 1067 q -8 1187 -50 1140 q 96 1235 33 1235 q 138 1228 119 1235 q 190 1202 157 1221 q 240 1176 222 1182 q 278 1170 257 1170 q 327 1193 307 1170 q 346 1246 346 1216 l 430 1238 z "},"ĩ":{"ha":343,"x_min":-67,"x_max":412,"o":"m 231 0 l 105 0 l 105 734 l 231 734 l 231 0 m 412 1019 q 371 900 412 945 q 267 854 329 854 q 218 861 239 854 q 165 889 198 868 q 118 915 132 910 q 84 919 103 919 q 37 898 56 919 q 17 843 17 876 l -67 848 q -26 968 -67 920 q 78 1015 15 1015 q 121 1008 102 1015 q 172 982 140 1002 q 222 956 205 962 q 260 950 239 950 q 309 973 290 950 q 328 1027 328 996 l 412 1019 z "},"Ī":{"ha":378,"x_min":-50,"x_max":434,"o":"m 254 0 l 124 0 l 124 987 l 254 987 l 254 0 m 434 1114 l -50 1114 l -50 1211 l 434 1211 l 434 1114 z "},"ī":{"ha":343,"x_min":-68,"x_max":416,"o":"m 231 0 l 105 0 l 105 734 l 231 734 l 231 0 m 416 895 l -68 895 l -68 991 l 416 991 l 416 895 z "},"Ĭ":{"ha":378,"x_min":-14,"x_max":393,"o":"m 254 0 l 124 0 l 124 987 l 254 987 l 254 0 m 393 1233 q 337 1101 393 1151 q 190 1051 281 1051 q 43 1101 99 1051 q -14 1233 -14 1152 l 89 1233 q 115 1159 89 1185 q 190 1132 140 1132 q 264 1158 237 1132 q 291 1233 291 1185 l 393 1233 z "},"ĭ":{"ha":343,"x_min":-31,"x_max":375,"o":"m 231 0 l 105 0 l 105 734 l 231 734 l 231 0 m 375 1014 q 319 882 375 932 q 172 832 263 832 q 25 882 81 832 q -31 1014 -31 932 l 71 1014 q 97 940 71 966 q 172 913 123 913 q 247 939 220 913 q 273 1014 273 966 l 375 1014 z "},"Į":{"ha":378,"x_min":16,"x_max":255,"o":"m 254 0 l 124 0 l 124 987 l 254 987 l 254 0 m 241 6 l 202 -24 q 125 -144 125 -86 q 178 -193 125 -193 q 246 -176 211 -193 l 255 -258 q 146 -288 208 -288 q 51 -252 86 -288 q 16 -159 16 -217 q 62 -46 16 -98 q 191 44 107 6 l 241 6 z "},"į":{"ha":337,"x_min":-3,"x_max":244,"o":"m 231 0 l 106 0 l 106 734 l 231 734 l 231 0 m 96 928 q 114 980 96 959 q 170 1001 133 1001 q 225 980 206 1001 q 244 928 244 959 q 225 878 244 898 q 170 857 206 857 q 114 878 133 857 q 96 928 96 898 m 222 0 l 182 -31 q 106 -151 106 -92 q 159 -199 106 -199 q 227 -182 191 -199 l 235 -264 q 127 -294 188 -294 q 32 -258 66 -294 q -3 -165 -3 -223 q 42 -52 -3 -104 q 171 38 87 0 l 222 0 z "},"İ":{"ha":378,"x_min":115,"x_max":264,"o":"m 254 0 l 124 0 l 124 987 l 254 987 l 254 0 m 115 1145 q 134 1197 115 1176 q 189 1218 153 1218 q 245 1197 226 1218 q 264 1145 264 1176 q 245 1095 264 1115 q 189 1074 226 1074 q 134 1095 153 1074 q 115 1145 115 1115 z "},"Ĳ":{"ha":1144,"x_min":124,"x_max":1037,"o":"m 254 0 l 124 0 l 124 987 l 254 987 l 254 0 m 906 987 l 1037 987 l 1037 288 q 952 66 1037 146 q 725 -14 867 -14 q 496 62 578 -14 q 414 273 414 137 l 544 273 q 590 140 544 188 q 725 93 637 93 q 856 144 806 93 q 906 286 905 195 l 906 987 z "},"ĳ":{"ha":669,"x_min":96,"x_max":571,"o":"m 231 0 l 106 0 l 106 734 l 231 734 l 231 0 m 96 928 q 114 980 96 959 q 170 1001 133 1001 q 225 980 206 1001 q 244 928 244 959 q 225 878 244 898 q 170 857 206 857 q 114 878 133 857 q 96 928 96 898 m 562 734 l 562 -85 q 370 -296 562 -296 q 293 -284 328 -296 l 293 -184 q 350 -189 315 -189 q 414 -166 392 -189 q 436 -87 436 -144 l 436 734 l 562 734 m 423 928 q 442 980 423 958 q 496 1001 460 1001 q 552 980 533 1001 q 571 928 571 959 q 552 878 571 898 q 496 857 533 857 q 441 878 460 857 q 423 928 423 898 z "},"Ĵ":{"ha":766,"x_min":36,"x_max":783,"o":"m 528 987 l 659 987 l 659 288 q 574 66 659 146 q 347 -14 489 -14 q 118 62 200 -14 q 36 273 36 137 l 166 273 q 213 140 166 188 q 347 93 259 93 q 478 144 428 93 q 528 286 528 195 l 528 987 m 783 1065 l 783 1059 l 679 1059 l 577 1174 l 476 1059 l 372 1059 l 372 1067 l 539 1251 l 615 1251 l 783 1065 z "},"ĵ":{"ha":349,"x_min":-52,"x_max":386,"o":"m 242 734 l 242 -60 q 184 -236 242 -176 q 24 -296 127 -296 q -52 -284 -16 -296 l -42 -184 q 24 -193 -22 -193 q 92 -158 68 -193 q 117 -60 117 -123 l 117 734 l 242 734 m 386 829 l 386 822 l 282 822 l 180 937 l 79 822 l -24 822 l -24 830 l 142 1015 l 218 1015 l 386 829 z "},"Ķ":{"ha":871,"x_min":115,"x_max":871,"o":"m 366 459 l 245 334 l 245 0 l 115 0 l 115 987 l 245 987 l 245 499 l 684 987 l 841 987 l 452 551 l 871 0 l 715 0 l 366 459 m 408 -348 l 336 -299 q 387 -139 385 -225 l 387 -77 l 507 -77 l 507 -128 q 480 -251 507 -190 q 408 -348 453 -311 z "},"ķ":{"ha":704,"x_min":96,"x_max":703,"o":"m 300 340 l 221 258 l 221 0 l 96 0 l 96 1042 l 221 1042 l 221 412 l 288 492 l 517 734 l 669 734 l 384 427 l 703 0 l 555 0 l 300 340 m 319 -348 l 248 -299 q 298 -139 296 -225 l 298 -77 l 418 -77 l 418 -128 q 391 -251 418 -190 q 319 -348 364 -311 z "},"Ĺ":{"ha":747,"x_min":109,"x_max":713,"o":"m 245 106 l 713 106 l 713 0 l 115 0 l 115 987 l 245 987 l 245 106 m 240 1247 l 392 1247 l 210 1048 l 109 1048 l 240 1247 z "},"ĺ":{"ha":337,"x_min":100,"x_max":382,"o":"m 231 0 l 106 0 l 106 1042 l 231 1042 l 231 0 m 231 1316 l 382 1316 l 201 1116 l 100 1116 l 231 1316 z "},"Ļ":{"ha":747,"x_min":115,"x_max":713,"o":"m 245 106 l 713 106 l 713 0 l 115 0 l 115 987 l 245 987 l 245 106 m 380 -348 l 309 -299 q 359 -139 358 -225 l 359 -77 l 479 -77 l 479 -128 q 453 -251 479 -190 q 380 -348 426 -311 z "},"ļ":{"ha":337,"x_min":59,"x_max":231,"o":"m 231 0 l 106 0 l 106 1042 l 231 1042 l 231 0 m 130 -348 l 59 -299 q 109 -139 108 -225 l 109 -77 l 229 -77 l 229 -128 q 202 -251 229 -190 q 130 -348 176 -311 z "},"Ľ":{"ha":747,"x_min":115,"x_max":713,"o":"m 245 106 l 713 106 l 713 0 l 115 0 l 115 987 l 245 987 l 245 106 m 452 717 l 380 766 q 431 926 429 840 l 431 988 l 551 988 l 551 937 q 524 814 551 875 q 452 717 497 753 z "},"ľ":{"ha":439,"x_min":106,"x_max":465,"o":"m 231 0 l 106 0 l 106 1042 l 231 1042 l 231 0 m 366 772 l 294 821 q 345 981 343 895 l 345 1043 l 465 1043 l 465 991 q 438 869 465 930 q 366 772 411 808 z "},"Ŀ":{"ha":747,"x_min":115,"x_max":713,"o":"m 245 106 l 713 106 l 713 0 l 115 0 l 115 987 l 245 987 l 245 106 m 397 540 q 415 591 397 570 q 471 612 434 612 q 526 591 507 612 q 545 540 545 570 q 526 489 545 509 q 471 469 507 469 q 415 489 434 469 q 397 540 397 509 z "},"ŀ":{"ha":486,"x_min":106,"x_max":456,"o":"m 231 0 l 106 0 l 106 1042 l 231 1042 l 231 0 m 307 530 q 326 581 307 560 q 381 602 345 602 q 437 581 418 602 q 456 530 456 560 q 437 479 456 499 q 381 458 418 458 q 326 479 345 458 q 307 530 307 499 z "},"Ń":{"ha":990,"x_min":115,"x_max":873,"o":"m 873 0 l 743 0 l 245 761 l 245 0 l 115 0 l 115 987 l 245 987 l 744 223 l 744 987 l 873 987 l 873 0 m 554 1251 l 706 1251 l 524 1051 l 423 1051 l 554 1251 z "},"ń":{"ha":766,"x_min":95,"x_max":672,"o":"m 214 734 l 218 642 q 437 747 302 747 q 672 485 670 747 l 672 0 l 547 0 l 547 486 q 510 603 546 565 q 399 641 475 641 q 292 608 338 641 q 220 523 246 576 l 220 0 l 95 0 l 95 734 l 214 734 m 450 1040 l 602 1040 l 420 841 l 319 841 l 450 1040 z "},"Ņ":{"ha":990,"x_min":115,"x_max":873,"o":"m 873 0 l 743 0 l 245 761 l 245 0 l 115 0 l 115 987 l 245 987 l 744 223 l 744 987 l 873 987 l 873 0 m 448 -348 l 377 -299 q 427 -139 426 -225 l 427 -77 l 547 -77 l 547 -128 q 520 -251 547 -190 q 448 -348 494 -311 z "},"ņ":{"ha":766,"x_min":95,"x_max":672,"o":"m 214 734 l 218 642 q 437 747 302 747 q 672 485 670 747 l 672 0 l 547 0 l 547 486 q 510 603 546 565 q 399 641 475 641 q 292 608 338 641 q 220 523 246 576 l 220 0 l 95 0 l 95 734 l 214 734 m 342 -348 l 271 -299 q 321 -139 319 -225 l 321 -77 l 441 -77 l 441 -128 q 414 -251 441 -190 q 342 -348 387 -311 z "},"Ň":{"ha":990,"x_min":115,"x_max":873,"o":"m 873 0 l 743 0 l 245 761 l 245 0 l 115 0 l 115 987 l 245 987 l 744 223 l 744 987 l 873 987 l 873 0 m 492 1137 l 593 1252 l 702 1252 l 702 1245 l 530 1059 l 453 1059 l 283 1245 l 283 1252 l 389 1252 l 492 1137 z "},"ň":{"ha":766,"x_min":95,"x_max":672,"o":"m 214 734 l 218 642 q 437 747 302 747 q 672 485 670 747 l 672 0 l 547 0 l 547 486 q 510 603 546 565 q 399 641 475 641 q 292 608 338 641 q 220 523 246 576 l 220 0 l 95 0 l 95 734 l 214 734 m 387 926 l 489 1042 l 597 1042 l 597 1035 l 425 849 l 349 849 l 178 1035 l 178 1042 l 285 1042 l 387 926 z "},"ŉ":{"ha":766,"x_min":-46,"x_max":672,"o":"m 214 734 l 218 642 q 437 747 302 747 q 672 485 670 747 l 672 0 l 547 0 l 547 486 q 510 603 546 565 q 399 641 475 641 q 292 608 338 641 q 220 523 246 576 l 220 0 l 95 0 l 95 734 l 214 734 m 25 773 l -46 822 q 4 982 3 896 l 4 1044 l 124 1044 l 124 993 q 97 870 124 931 q 25 773 71 810 z "},"Ō":{"ha":955,"x_min":80,"x_max":874,"o":"m 874 462 q 825 209 874 317 q 687 43 777 100 q 478 -14 597 -14 q 271 44 361 -14 q 131 207 181 101 q 80 453 81 313 l 80 524 q 130 776 80 667 q 270 943 179 885 q 477 1001 360 1001 q 686 944 595 1001 q 825 778 777 886 q 874 524 874 669 l 874 462 m 745 526 q 674 795 745 701 q 477 889 604 889 q 282 795 353 889 q 210 534 212 701 l 210 462 q 281 194 210 292 q 478 97 353 97 q 673 189 604 97 q 745 452 743 281 l 745 526 m 724 1107 l 239 1107 l 239 1204 l 724 1204 l 724 1107 z "},"ō":{"ha":792,"x_min":62,"x_max":730,"o":"m 62 374 q 104 568 62 481 q 222 701 146 654 q 395 747 298 747 q 637 644 545 747 q 730 368 730 540 l 730 359 q 689 166 730 252 q 571 34 648 81 q 396 -14 495 -14 q 154 90 247 -14 q 62 365 62 194 l 62 374 m 188 359 q 244 163 188 237 q 396 89 301 89 q 548 164 492 89 q 604 374 604 239 q 547 569 604 494 q 395 644 490 644 q 245 570 302 644 q 188 359 188 496 m 635 896 l 151 896 l 151 993 l 635 993 l 635 896 z "},"Ŏ":{"ha":955,"x_min":80,"x_max":874,"o":"m 874 462 q 825 209 874 317 q 687 43 777 100 q 478 -14 597 -14 q 271 44 361 -14 q 131 207 181 101 q 80 453 81 313 l 80 524 q 130 776 80 667 q 270 943 179 885 q 477 1001 360 1001 q 686 944 595 1001 q 825 778 777 886 q 874 524 874 669 l 874 462 m 745 526 q 674 795 745 701 q 477 889 604 889 q 282 795 353 889 q 210 534 212 701 l 210 462 q 281 194 210 292 q 478 97 353 97 q 673 189 604 97 q 745 452 743 281 l 745 526 m 682 1226 q 626 1094 682 1144 q 479 1044 570 1044 q 332 1095 389 1044 q 276 1226 276 1145 l 378 1226 q 404 1152 378 1179 q 479 1125 430 1125 q 554 1152 527 1125 q 581 1226 581 1178 l 682 1226 z "},"ŏ":{"ha":792,"x_min":62,"x_max":730,"o":"m 62 374 q 104 568 62 481 q 222 701 146 654 q 395 747 298 747 q 637 644 545 747 q 730 368 730 540 l 730 359 q 689 166 730 252 q 571 34 648 81 q 396 -14 495 -14 q 154 90 247 -14 q 62 365 62 194 l 62 374 m 188 359 q 244 163 188 237 q 396 89 301 89 q 548 164 492 89 q 604 374 604 239 q 547 569 604 494 q 395 644 490 644 q 245 570 302 644 q 188 359 188 496 m 593 1015 q 537 883 593 932 q 391 833 481 833 q 243 883 300 833 q 187 1015 187 933 l 290 1015 q 315 940 290 967 q 391 913 341 913 q 465 940 438 913 q 492 1015 492 966 l 593 1015 z "},"Ő":{"ha":955,"x_min":80,"x_max":874,"o":"m 874 462 q 825 209 874 317 q 687 43 777 100 q 478 -14 597 -14 q 271 44 361 -14 q 131 207 181 101 q 80 453 81 313 l 80 524 q 130 776 80 667 q 270 943 179 885 q 477 1001 360 1001 q 686 944 595 1001 q 825 778 777 886 q 874 524 874 669 l 874 462 m 745 526 q 674 795 745 701 q 477 889 604 889 q 282 795 353 889 q 210 534 212 701 l 210 462 q 281 194 210 292 q 478 97 353 97 q 673 189 604 97 q 745 452 743 281 l 745 526 m 656 1253 l 797 1253 l 614 1047 l 500 1047 l 656 1253 m 426 1253 l 559 1253 l 412 1047 l 310 1047 l 426 1253 z "},"ő":{"ha":792,"x_min":62,"x_max":730,"o":"m 62 374 q 104 568 62 481 q 222 701 146 654 q 395 747 298 747 q 637 644 545 747 q 730 368 730 540 l 730 359 q 689 166 730 252 q 571 34 648 81 q 396 -14 495 -14 q 154 90 247 -14 q 62 365 62 194 l 62 374 m 188 359 q 244 163 188 237 q 396 89 301 89 q 548 164 492 89 q 604 374 604 239 q 547 569 604 494 q 395 644 490 644 q 245 570 302 644 q 188 359 188 496 m 568 1041 l 708 1041 l 526 836 l 411 836 l 568 1041 m 337 1041 l 471 1041 l 323 836 l 221 836 l 337 1041 z "},"Ŕ":{"ha":855,"x_min":114,"x_max":831,"o":"m 477 399 l 245 399 l 245 0 l 114 0 l 114 987 l 441 987 q 697 911 608 987 q 787 690 787 836 q 738 530 787 598 q 599 427 688 461 l 831 8 l 831 0 l 691 0 l 477 399 m 245 506 l 445 506 q 599 556 542 506 q 656 690 656 606 q 602 831 656 782 q 444 880 547 880 l 245 880 l 245 506 m 475 1251 l 627 1251 l 445 1051 l 344 1051 l 475 1251 z "},"ŕ":{"ha":470,"x_min":95,"x_max":490,"o":"m 450 621 q 388 626 421 626 q 220 521 264 626 l 220 0 l 95 0 l 95 734 l 217 734 l 219 649 q 394 747 281 747 q 450 738 431 747 l 450 621 m 338 1040 l 490 1040 l 308 841 l 207 841 l 338 1040 z "},"Ŗ":{"ha":855,"x_min":114,"x_max":831,"o":"m 477 399 l 245 399 l 245 0 l 114 0 l 114 987 l 441 987 q 697 911 608 987 q 787 690 787 836 q 738 530 787 598 q 599 427 688 461 l 831 8 l 831 0 l 691 0 l 477 399 m 245 506 l 445 506 q 599 556 542 506 q 656 690 656 606 q 602 831 656 782 q 444 880 547 880 l 245 880 l 245 506 m 374 -348 l 303 -299 q 353 -139 352 -225 l 353 -77 l 473 -77 l 473 -128 q 447 -251 473 -190 q 374 -348 420 -311 z "},"ŗ":{"ha":470,"x_min":56,"x_max":450,"o":"m 450 621 q 388 626 421 626 q 220 521 264 626 l 220 0 l 95 0 l 95 734 l 217 734 l 219 649 q 394 747 281 747 q 450 738 431 747 l 450 621 m 127 -348 l 56 -299 q 106 -139 105 -225 l 106 -77 l 227 -77 l 227 -128 q 200 -251 227 -190 q 127 -348 173 -311 z "},"Ř":{"ha":855,"x_min":114,"x_max":831,"o":"m 477 399 l 245 399 l 245 0 l 114 0 l 114 987 l 441 987 q 697 911 608 987 q 787 690 787 836 q 738 530 787 598 q 599 427 688 461 l 831 8 l 831 0 l 691 0 l 477 399 m 245 506 l 445 506 q 599 556 542 506 q 656 690 656 606 q 602 831 656 782 q 444 880 547 880 l 245 880 l 245 506 m 412 1137 l 514 1252 l 623 1252 l 623 1245 l 450 1059 l 374 1059 l 203 1245 l 203 1252 l 310 1252 l 412 1137 z "},"ř":{"ha":470,"x_min":67,"x_max":486,"o":"m 450 621 q 388 626 421 626 q 220 521 264 626 l 220 0 l 95 0 l 95 734 l 217 734 l 219 649 q 394 747 281 747 q 450 738 431 747 l 450 621 m 276 926 l 378 1042 l 486 1042 l 486 1035 l 314 849 l 237 849 l 67 1035 l 67 1042 l 174 1042 l 276 926 z "},"Ś":{"ha":824,"x_min":54,"x_max":772,"o":"m 406 440 q 162 558 238 488 q 85 732 85 629 q 179 925 85 848 q 421 1001 272 1001 q 603 962 523 1001 q 726 853 682 922 q 770 702 770 784 l 639 702 q 582 843 639 791 q 421 894 525 894 q 271 851 325 894 q 217 734 217 809 q 268 632 217 673 q 443 555 319 590 q 635 479 566 521 q 738 382 705 437 q 772 251 772 326 q 678 59 772 131 q 428 -14 585 -14 q 238 25 326 -14 q 102 132 150 64 q 54 286 54 200 l 185 286 q 251 145 185 197 q 428 93 317 93 q 586 135 531 93 q 641 250 641 177 q 590 362 641 322 q 406 440 539 401 m 484 1252 l 635 1252 l 454 1053 l 353 1053 l 484 1252 z "},"ś":{"ha":716,"x_min":64,"x_max":648,"o":"m 522 195 q 484 274 522 245 q 350 322 446 302 q 199 371 255 342 q 116 439 143 399 q 90 532 90 478 q 166 685 90 623 q 361 747 242 747 q 563 683 486 747 q 641 518 641 618 l 515 518 q 471 607 515 570 q 361 644 427 644 q 254 614 292 644 q 215 536 215 585 q 251 468 215 491 q 381 424 287 445 q 533 374 475 403 q 620 303 591 345 q 648 203 648 262 q 569 46 648 105 q 365 -14 490 -14 q 209 18 277 -14 q 103 105 141 49 q 64 226 64 161 l 190 226 q 240 126 193 163 q 365 89 288 89 q 479 118 436 89 q 522 195 522 146 m 443 1040 l 595 1040 l 413 841 l 312 841 l 443 1040 z "},"Ŝ":{"ha":824,"x_min":54,"x_max":772,"o":"m 406 440 q 162 558 238 488 q 85 732 85 629 q 179 925 85 848 q 421 1001 272 1001 q 603 962 523 1001 q 726 853 682 922 q 770 702 770 784 l 639 702 q 582 843 639 791 q 421 894 525 894 q 271 851 325 894 q 217 734 217 809 q 268 632 217 673 q 443 555 319 590 q 635 479 566 521 q 738 382 705 437 q 772 251 772 326 q 678 59 772 131 q 428 -14 585 -14 q 238 25 326 -14 q 102 132 150 64 q 54 286 54 200 l 185 286 q 251 145 185 197 q 428 93 317 93 q 586 135 531 93 q 641 250 641 177 q 590 362 641 322 q 406 440 539 401 m 627 1067 l 627 1061 l 524 1061 l 422 1176 l 321 1061 l 217 1061 l 217 1069 l 384 1253 l 460 1253 l 627 1067 z "},"ŝ":{"ha":716,"x_min":64,"x_max":648,"o":"m 522 195 q 484 274 522 245 q 350 322 446 302 q 199 371 255 342 q 116 439 143 399 q 90 532 90 478 q 166 685 90 623 q 361 747 242 747 q 563 683 486 747 q 641 518 641 618 l 515 518 q 471 607 515 570 q 361 644 427 644 q 254 614 292 644 q 215 536 215 585 q 251 468 215 491 q 381 424 287 445 q 533 374 475 403 q 620 303 591 345 q 648 203 648 262 q 569 46 648 105 q 365 -14 490 -14 q 209 18 277 -14 q 103 105 141 49 q 64 226 64 161 l 190 226 q 240 126 193 163 q 365 89 288 89 q 479 118 436 89 q 522 195 522 146 m 587 856 l 587 849 l 483 849 l 381 964 l 280 849 l 176 849 l 176 857 l 343 1042 l 419 1042 l 587 856 z "},"Ş":{"ha":824,"x_min":54,"x_max":772,"o":"m 406 440 q 162 558 238 488 q 85 732 85 629 q 179 925 85 848 q 421 1001 272 1001 q 603 962 523 1001 q 726 853 682 922 q 770 702 770 784 l 639 702 q 582 843 639 791 q 421 894 525 894 q 271 851 325 894 q 217 734 217 809 q 268 632 217 673 q 443 555 319 590 q 635 479 566 521 q 738 382 705 437 q 772 251 772 326 q 678 59 772 131 q 428 -14 585 -14 q 238 25 326 -14 q 102 132 150 64 q 54 286 54 200 l 185 286 q 251 145 185 197 q 428 93 317 93 q 586 135 531 93 q 641 250 641 177 q 590 362 641 322 q 406 440 539 401 m 475 0 l 467 -35 q 570 -153 570 -54 q 516 -257 570 -218 q 365 -295 462 -295 l 360 -222 q 443 -205 414 -222 q 473 -155 473 -187 q 451 -111 473 -125 q 363 -91 429 -97 l 385 0 l 475 0 z "}}}
